STARTFONT 2.1
FONT -FontForge-Glass TTY VT220-Medium-R-Normal--64-380-120-120-C-320-ISO10646-1
SIZE 38 120 120
FONTBOUNDINGBOX 32 64 0 -14
COMMENT "Generated by fontforge, http://fontforge.sourceforge.net"
COMMENT "Created by svo with FontForge 2.0 (http://fontforge.sf.net)"
COMMENT ""
COMMENT "Use font size 15 on Windows"
COMMENT "Use font size 20 on Mac/Linux "
STARTPROPERTIES 41
FOUNDRY "FontForge"
FAMILY_NAME "Glass TTY VT220"
WEIGHT_NAME "Medium"
SLANT "R"
SETWIDTH_NAME "Normal"
ADD_STYLE_NAME ""
PIXEL_SIZE 64
POINT_SIZE 380
RESOLUTION_X 120
RESOLUTION_Y 120
SPACING "C"
AVERAGE_WIDTH 320
CHARSET_REGISTRY "ISO10646"
CHARSET_ENCODING "1"
FONTNAME_REGISTRY ""
CHARSET_COLLECTIONS "ISO8859-5 ISO10646-1"
FONT_NAME "Glass_TTY_VT220"
FACE_NAME "VT220"
COPYRIGHT "Created by svo with FontForge 2.0 (http://fontforge.sf.net)"
FONT_VERSION "001.3"
FONT_ASCENT 51
FONT_DESCENT 13
UNDERLINE_POSITION -7
UNDERLINE_THICKNESS 2
X_HEIGHT 31
CAP_HEIGHT 44
DEFAULT_CHAR 1
RAW_ASCENT 800
RAW_DESCENT 200
NORM_SPACE 32
RELATIVE_WEIGHT 50
RELATIVE_SETWIDTH 50
SUPERSCRIPT_X 0
SUPERSCRIPT_Y 30
SUPERSCRIPT_SIZE 44
SUBSCRIPT_X 0
SUBSCRIPT_Y 8
SUBSCRIPT_SIZE 44
FIGURE_WIDTH 32
AVG_LOWERCASE_WIDTH 320
AVG_UPPERCASE_WIDTH 320
ENDPROPERTIES
CHARS 323
STARTCHAR uni0000
ENCODING 0
SWIDTH 500 0
DWIDTH 32 0
BBX 26 42 0 3
BITMAP
07FFF000
1FFFFC00
1FFFFC00
00000000
00000000
00000000
00000000
FC001F80
FC001FC0
7C000F80
00000000
00000000
00000000
0FF00000
1FF80000
1FF80000
00000000
00000000
00000000
000C0000
003F0000
003F0000
000C0000
00000000
00000000
00000000
003F0000
003F0000
003F0000
00000000
00000000
00000000
00000000
00000000
00000000
00000000
00000000
00000000
00000000
003F0000
003F0000
003E0000
ENDCHAR
STARTCHAR uni0001
ENCODING 1
SWIDTH 500 0
DWIDTH 32 0
BBX 26 42 0 3
BITMAP
003E0000
003F0000
003F0000
00000000
00000000
00000000
00000000
01FFE000
03FFE000
01FFC000
00000000
00000000
00000000
0FFFF800
1FFFFC00
0FFFFC00
00000000
00000000
00000000
003FF000
FFFFFFC0
FFFFFFC0
01FF0000
00000000
00000000
00000000
0FFFFC00
1FFFFC00
0FFFFC00
00000000
00000000
00000000
01FFC000
03FFE000
01FFE000
00000000
00000000
00000000
00000000
003F0000
003F0000
003E0000
ENDCHAR
STARTCHAR uni0002
ENCODING 2
SWIDTH 500 0
DWIDTH 32 0
BBX 26 42 0 3
BITMAP
7C3E0F80
FC3F1FC0
FC3F1F80
00000000
00000000
00000000
00000000
1F80FC00
1FC0FC00
0F807C00
00000000
00000000
00000000
FC3F0F80
FC3F1FC0
FC3F1F80
00000000
00000000
00000000
02007000
1FC0FC00
1FC0FC00
02003000
00000000
00000000
00000000
FC3F1F80
FC3F1FC0
FC3F0F80
00000000
00000000
00000000
0F807C00
1FC0FC00
1F80FC00
00000000
00000000
00000000
00000000
FC3F1F80
FC3F1FC0
7C3E0F80
ENDCHAR
STARTCHAR uni0003
ENCODING 3
SWIDTH 500 0
DWIDTH 32 0
BBX 26 55 0 -10
BITMAP
7C3E0000
FC3F0000
FC3F0000
00000000
00000000
00000000
00000000
FC3F0000
FC3F0000
7C3E0000
00000000
00000000
00000000
7FFE0000
FFFF0000
FFFF0000
00000000
00000000
00000000
700C0000
FC3F0000
FC3F0000
300C0000
00000000
00000000
00000000
FFFFFF80
FFFFFFC0
7FFFFF80
00000000
00000000
00000000
0007E000
0007E000
0007E000
00000000
00000000
00000000
00000000
0007E000
0007E000
0007E000
00000000
00000000
00000000
0007E000
0007E000
0007E000
00000000
00000000
00000000
00018000
0007E000
0007E000
00018000
ENDCHAR
STARTCHAR uni0004
ENCODING 4
SWIDTH 500 0
DWIDTH 32 0
BBX 26 55 0 -10
BITMAP
7FFE0000
FFFF0000
FFFF0000
00000000
00000000
00000000
00000000
FC000000
FC000000
7C000000
00000000
00000000
00000000
7FF00000
FFF80000
FFF80000
00000000
00000000
00000000
70000000
FC000000
FC000000
30000000
00000000
00000000
00000000
FC3FFF80
FC3FFFC0
FC3FFF80
00000000
00000000
00000000
003E0000
003F0000
003F0000
00000000
00000000
00000000
00000000
003FFC00
003FFC00
001FF800
00000000
00000000
00000000
003F0000
003F0000
003F0000
00000000
00000000
00000000
000C0000
003F0000
003F0000
000C0000
ENDCHAR
STARTCHAR uni0005
ENCODING 5
SWIDTH 500 0
DWIDTH 32 0
BBX 26 55 0 -10
BITMAP
0FFE0000
1FFF0000
1FFF0000
00000000
00000000
00000000
00000000
FC000000
FC000000
7C000000
00000000
00000000
00000000
FC000000
FC000000
FC000000
00000000
00000000
00000000
70000000
FC000000
FC000000
30000000
00000000
00000000
00000000
0FFFFC00
1FFFFC00
0FFFFC00
00000000
00000000
00000000
003E0F80
003F1FC0
003F1F80
00000000
00000000
00000000
00000000
003FFC00
003FFC00
001FF800
00000000
00000000
00000000
003F0F80
003F1FC0
003F1F80
00000000
00000000
00000000
000C0200
003F1FC0
003F1FC0
000C0200
ENDCHAR
STARTCHAR uni0006
ENCODING 6
SWIDTH 500 0
DWIDTH 32 0
BBX 26 55 0 -10
BITMAP
7C000000
FC000000
FC000000
00000000
00000000
00000000
00000000
FC000000
FC000000
7C000000
00000000
00000000
00000000
FC000000
FC000000
FC000000
00000000
00000000
00000000
70000000
FC000000
FC000000
30000000
00000000
00000000
00000000
FFFFFF80
FFFFFFC0
7FFFFF80
00000000
00000000
00000000
003E0000
003F0000
003F0000
00000000
00000000
00000000
00000000
003FFC00
003FFC00
001FF800
00000000
00000000
00000000
003F0000
003F0000
003F0000
00000000
00000000
00000000
000C0000
003F0000
003F0000
000C0000
ENDCHAR
STARTCHAR uni0007
ENCODING 7
SWIDTH 500 0
DWIDTH 32 0
BBX 19 16 3 29
BITMAP
0FFE00
1FFF00
0FFF00
000000
000000
000000
000000
FC07E0
FE07E0
7C03E0
000000
000000
000000
0FFF00
1FFF00
0FFF00
ENDCHAR
STARTCHAR uni0008
ENCODING 8
SWIDTH 500 0
DWIDTH 32 0
BBX 26 35 0 3
BITMAP
003F0000
003F0000
003E0000
00000000
00000000
00000000
003F0000
003F0000
003F0000
00000000
00000000
00000000
003FF000
FFFFFFC0
FFFFFFC0
01FF0000
00000000
00000000
00000000
003F0000
003F0000
003F0000
00000000
00000000
00000000
003E0000
003F0000
003F0000
00000000
00000000
00000000
00000000
FFFFFF80
FFFFFFC0
1FFFFC00
ENDCHAR
STARTCHAR uni0009
ENCODING 9
SWIDTH 500 0
DWIDTH 32 0
BBX 26 55 0 -10
BITMAP
7C07E000
FC07E000
FC07E000
00000000
00000000
00000000
00000000
FF87E000
FFC7E000
7F87E000
00000000
00000000
00000000
7FFFC000
FFFFE000
FFFFE000
00000000
00000000
00000000
70070000
FC3FE000
FC3FE000
30070000
00000000
00000000
00000000
FC3FE000
FC3FE000
FC3FE000
00000000
00000000
00000000
003E0000
003F0000
003F0000
00000000
00000000
00000000
00000000
003F0000
003F0000
003E0000
00000000
00000000
00000000
003F0000
003F0000
003F0000
00000000
00000000
00000000
0007FE00
003FFFC0
003FFFC0
0007FE00
ENDCHAR
STARTCHAR uni000A
ENCODING 10
SWIDTH 500 0
DWIDTH 32 0
BBX 26 55 0 -10
BITMAP
7C07E000
FC07E000
FC07E000
00000000
00000000
00000000
00000000
FC07E000
FC07E000
7C07E000
00000000
00000000
00000000
0FFE0000
1FFF0000
1FFF0000
00000000
00000000
00000000
00F40000
1FFF0000
1FFF0000
00F40000
00000000
00000000
00000000
01FFFF80
03FFFFC0
01FFFF80
00000000
00000000
00000000
0007E000
0007E000
0007E000
00000000
00000000
00000000
00000000
0007E000
0007E000
0007E000
00000000
00000000
00000000
0007E000
0007E000
0007E000
00000000
00000000
00000000
00018000
0007E000
0007E000
00018000
ENDCHAR
STARTCHAR uni000B
ENCODING 11
SWIDTH 500 0
DWIDTH 32 0
BBX 16 29 0 22
BITMAP
003F
003F
003F
0000
0000
0000
003E
003F
003F
0000
0000
0000
0000
003F
003F
003E
0000
0000
0000
003F
003F
003F
0000
0000
0000
1FFC
FFFF
FFFF
1FF8
ENDCHAR
STARTCHAR uni000C
ENCODING 12
SWIDTH 500 0
DWIDTH 32 0
BBX 16 36 0 -10
BITMAP
1FFC
FFFF
FFFF
1FF8
0000
0000
0000
003F
003F
003F
0000
0000
0000
003E
003F
003F
0000
0000
0000
0000
003F
003F
003E
0000
0000
0000
003F
003F
003F
0000
0000
0000
000C
003F
003F
000C
ENDCHAR
STARTCHAR uni000D
ENCODING 13
SWIDTH 500 0
DWIDTH 32 0
BBX 16 36 10 -10
BITMAP
1FF8
FFFF
FFFF
1FF8
0000
0000
0000
FC00
FC00
FC00
0000
0000
0000
F800
FC00
FC00
0000
0000
0000
0000
FC00
FC00
F800
0000
0000
0000
FC00
FC00
FC00
0000
0000
0000
3000
FC00
FC00
3000
ENDCHAR
STARTCHAR uni000E
ENCODING 14
SWIDTH 500 0
DWIDTH 32 0
BBX 16 29 10 22
BITMAP
FC00
FC00
FC00
0000
0000
0000
F800
FC00
FC00
0000
0000
0000
0000
FC00
FC00
F800
0000
0000
0000
FC00
FC00
FC00
0000
0000
0000
1FF8
FFFF
FFFF
1FF8
ENDCHAR
STARTCHAR uni000F
ENCODING 15
SWIDTH 500 0
DWIDTH 32 0
BBX 26 61 0 -10
BITMAP
003F0000
003F0000
003F0000
00000000
00000000
00000000
003E0000
003F0000
003F0000
00000000
00000000
00000000
00000000
003F0000
003F0000
003E0000
00000000
00000000
00000000
003F0000
003F0000
003F0000
00000000
00000000
00000000
003FF000
FFFFFFC0
FFFFFFC0
01FF0000
00000000
00000000
00000000
003F0000
003F0000
003F0000
00000000
00000000
00000000
003E0000
003F0000
003F0000
00000000
00000000
00000000
00000000
003F0000
003F0000
003E0000
00000000
00000000
00000000
003F0000
003F0000
003F0000
00000000
00000000
00000000
000C0000
003F0000
003F0000
000C0000
ENDCHAR
STARTCHAR uni0010
ENCODING 16
SWIDTH 500 0
DWIDTH 32 0
BBX 26 3 0 48
BITMAP
FFFFFF80
FFFFFFC0
7FFFFF80
ENDCHAR
STARTCHAR uni0011
ENCODING 17
SWIDTH 500 0
DWIDTH 32 0
BBX 26 3 0 35
BITMAP
FFFFFF80
FFFFFFC0
1FFFFC00
ENDCHAR
STARTCHAR uni0012
ENCODING 18
SWIDTH 500 0
DWIDTH 32 0
BBX 26 4 0 22
BITMAP
003FF000
FFFFFFC0
FFFFFFC0
01FF0000
ENDCHAR
STARTCHAR uni0013
ENCODING 19
SWIDTH 500 0
DWIDTH 32 0
BBX 26 3 0 10
BITMAP
5FFFFE00
FFFFFFC0
FFFFFF80
ENDCHAR
STARTCHAR uni0014
ENCODING 20
SWIDTH 500 0
DWIDTH 32 0
BBX 26 3 0 -3
BITMAP
7FFFFF00
FFFFFFC0
FFFFFF80
ENDCHAR
STARTCHAR uni0015
ENCODING 21
SWIDTH 500 0
DWIDTH 32 0
BBX 16 61 10 -10
BITMAP
FC00
FC00
FC00
0000
0000
0000
F800
FC00
FC00
0000
0000
0000
0000
FC00
FC00
F800
0000
0000
0000
FC00
FC00
FC00
0000
0000
0000
1FF8
FFFF
FFFF
1FF8
0000
0000
0000
FC00
FC00
FC00
0000
0000
0000
F800
FC00
FC00
0000
0000
0000
0000
FC00
FC00
F800
0000
0000
0000
FC00
FC00
FC00
0000
0000
0000
3000
FC00
FC00
3000
ENDCHAR
STARTCHAR uni0016
ENCODING 22
SWIDTH 500 0
DWIDTH 32 0
BBX 16 61 0 -10
BITMAP
003F
003F
003F
0000
0000
0000
003E
003F
003F
0000
0000
0000
0000
003F
003F
003E
0000
0000
0000
003F
003F
003F
0000
0000
0000
1FFC
FFFF
FFFF
1FF8
0000
0000
0000
003F
003F
003F
0000
0000
0000
003E
003F
003F
0000
0000
0000
0000
003F
003F
003E
0000
0000
0000
003F
003F
003F
0000
0000
0000
000C
003F
003F
000C
ENDCHAR
STARTCHAR uni0017
ENCODING 23
SWIDTH 500 0
DWIDTH 32 0
BBX 26 29 0 22
BITMAP
003F0000
003F0000
003F0000
00000000
00000000
00000000
003E0000
003F0000
003F0000
00000000
00000000
00000000
00000000
003F0000
003F0000
003E0000
00000000
00000000
00000000
003F0000
003F0000
003F0000
00000000
00000000
00000000
003FF000
FFFFFFC0
FFFFFFC0
01FF0000
ENDCHAR
STARTCHAR uni0018
ENCODING 24
SWIDTH 500 0
DWIDTH 32 0
BBX 26 36 0 -10
BITMAP
003FF000
FFFFFFC0
FFFFFFC0
01FF0000
00000000
00000000
00000000
003F0000
003F0000
003F0000
00000000
00000000
00000000
003E0000
003F0000
003F0000
00000000
00000000
00000000
00000000
003F0000
003F0000
003E0000
00000000
00000000
00000000
003F0000
003F0000
003F0000
00000000
00000000
00000000
000C0000
003F0000
003F0000
000C0000
ENDCHAR
STARTCHAR uni0019
ENCODING 25
SWIDTH 500 0
DWIDTH 32 0
BBX 6 61 10 -10
BITMAP
FC
FC
FC
00
00
00
F8
FC
FC
00
00
00
00
FC
FC
F8
00
00
00
FC
FC
FC
00
00
00
30
FC
FC
30
00
00
00
FC
FC
FC
00
00
00
F8
FC
FC
00
00
00
00
FC
FC
F8
00
00
00
FC
FC
FC
00
00
00
30
FC
FC
30
ENDCHAR
STARTCHAR uni001A
ENCODING 26
SWIDTH 500 0
DWIDTH 32 0
BBX 26 48 0 -3
BITMAP
00000F80
00001FC0
00001F80
00000000
00000000
00000000
00000000
0007E000
0007E000
0007E000
00000000
00000000
00000000
01F00000
03F80000
01F80000
00000000
00000000
00000000
70000000
FC000000
FC000000
30000000
00000000
00000000
00000000
01F80000
03F80000
01F00000
00000000
00000000
00000000
0007E000
0007E000
0007E000
00000000
00000000
00000000
00000000
00001F80
00001FC0
00000F80
00000000
00000000
00000000
7FFFFF00
FFFFFFC0
FFFFFF80
ENDCHAR
STARTCHAR uni001B
ENCODING 27
SWIDTH 500 0
DWIDTH 32 0
BBX 26 48 0 -3
BITMAP
7C000000
FC000000
FC000000
00000000
00000000
00000000
00000000
03F80000
03F80000
01F00000
00000000
00000000
00000000
0007E000
0007E000
0007E000
00000000
00000000
00000000
00000200
00001FC0
00001FC0
00000200
00000000
00000000
00000000
0007E000
0007E000
0007E000
00000000
00000000
00000000
01F00000
03F80000
01F80000
00000000
00000000
00000000
00000000
FC000000
FC000000
7C000000
00000000
00000000
00000000
7FFFFF00
FFFFFFC0
FFFFFF80
ENDCHAR
STARTCHAR uni001C
ENCODING 28
SWIDTH 500 0
DWIDTH 32 0
BBX 26 29 0 3
BITMAP
7FFFFF00
FFFFFFC0
FFFFFF80
00000000
00000000
00000000
00407000
03F8FC00
03F8FC00
00503000
00000000
00000000
00000000
01F8FC00
03F8FC00
01F0FC00
00000000
00000000
00000000
01F07C00
03F8FC00
01F8FC00
00000000
00000000
00000000
00000000
1F80FC00
1FC0FC00
0F807C00
ENDCHAR
STARTCHAR uni001D
ENCODING 29
SWIDTH 500 0
DWIDTH 32 0
BBX 26 42 0 3
BITMAP
00000F80
00001FC0
00001F80
00000000
00000000
00000000
00000000
0000FC00
0000FC00
00007C00
00000000
00000000
00000000
7FFFFF00
FFFFFFC0
FFFFFF80
00000000
00000000
00000000
000C0000
003F0000
003F0000
000C0000
00000000
00000000
00000000
FFFFFF80
FFFFFFC0
7FFFFF80
00000000
00000000
00000000
0F800000
1FC00000
1F800000
00000000
00000000
00000000
00000000
FC000000
FC000000
7C000000
ENDCHAR
STARTCHAR uni001E
ENCODING 30
SWIDTH 500 0
DWIDTH 32 0
BBX 26 48 0 -3
BITMAP
001FF800
003FFC00
003FFC00
00000000
00000000
00000000
00000000
03F81F80
03F81FC0
01F00F80
00000000
00000000
00000000
01F00000
03F80000
01F80000
00000000
00000000
00000000
11FE0000
FFFFE000
FFFFE000
07F00000
00000000
00000000
00000000
01F80000
03F80000
01F00000
00000000
00000000
00000000
0FFFC000
1FFFE000
1FFFE000
00000000
00000000
00000000
00000000
FFF8FF80
FFF8FFC0
7FF07F80
00000000
00000000
00000000
0F800000
1FC00000
1F800000
ENDCHAR
STARTCHAR uni001F
ENCODING 31
SWIDTH 500 0
DWIDTH 32 0
BBX 6 4 10 22
BITMAP
30
FC
FC
30
ENDCHAR
STARTCHAR space
ENCODING 32
SWIDTH 500 0
DWIDTH 32 0
BBX 1 1 0 0
BITMAP
00
ENDCHAR
STARTCHAR exclam
ENCODING 33
SWIDTH 500 0
DWIDTH 32 0
BBX 6 42 10 3
BITMAP
F8
FC
FC
00
00
00
00
FC
FC
F8
00
00
00
FC
FC
FC
00
00
00
30
FC
FC
30
00
00
00
FC
FC
FC
00
00
00
00
00
00
00
00
00
00
FC
FC
F8
ENDCHAR
STARTCHAR quotedbl
ENCODING 34
SWIDTH 500 0
DWIDTH 32 0
BBX 16 16 3 29
BITMAP
7C3F
FE3F
FC3F
0000
0000
0000
0000
FC3F
FE3F
7C3F
0000
0000
0000
7C3F
FE3F
FC3F
ENDCHAR
STARTCHAR numbersign
ENCODING 35
SWIDTH 500 0
DWIDTH 32 0
BBX 22 42 0 3
BITMAP
0F87E0
1FC7E0
1F87E0
000000
000000
000000
000000
1F87E0
1FC7E0
0F87E0
000000
000000
000000
7FFFF8
FFFFFC
FFFFFC
000000
000000
000000
020180
1FC7E0
1FC7E0
020180
000000
000000
000000
FFFFFC
FFFFFC
7FFFFC
000000
000000
000000
0F87E0
1FC7E0
1F87E0
000000
000000
000000
000000
1F87E0
1FC7E0
0F87E0
ENDCHAR
STARTCHAR dollar
ENCODING 36
SWIDTH 500 0
DWIDTH 32 0
BBX 26 42 0 3
BITMAP
003E0000
003F0000
003F0000
00000000
00000000
00000000
00000000
1FFFFC00
1FFFFC00
07FFF800
00000000
00000000
00000000
FC3F0000
FC3F0000
FC3F0000
00000000
00000000
00000000
003F8000
1FFFFC00
1FFFFC00
007E0000
00000000
00000000
00000000
003F1F80
003F1FC0
003F0F80
00000000
00000000
00000000
07FFF000
1FFFFC00
1FFFFC00
00000000
00000000
00000000
00000000
003F0000
003F0000
003E0000
ENDCHAR
STARTCHAR percent
ENCODING 37
SWIDTH 500 0
DWIDTH 32 0
BBX 26 42 0 3
BITMAP
0F800F80
1FC01FC0
1F801F80
00000000
00000000
00000000
00000000
FFF8FC00
FFF8FC00
7FF07C00
00000000
00000000
00000000
0F87E000
1FC7E000
1F87E000
00000000
00000000
00000000
000C0000
003F0000
003F0000
000C0000
00000000
00000000
00000000
01F8FC00
03F8FC00
01F0FC00
00000000
00000000
00000000
0F83FF80
1FC7FFC0
1F87FF80
00000000
00000000
00000000
00000000
FC00FC00
FC00FC00
7C007C00
ENDCHAR
STARTCHAR ampersand
ENCODING 38
SWIDTH 500 0
DWIDTH 32 0
BBX 26 42 0 3
BITMAP
0FFE0000
1FFF0000
1FFF0000
00000000
00000000
00000000
00000000
FC07E000
FC07E000
7C07E000
00000000
00000000
00000000
FC07E000
FC07E000
FC07E000
00000000
00000000
00000000
00F40000
1FFF0000
1FFF0000
00F40000
00000000
00000000
00000000
FC07FF80
FC07FFC0
FC07FF80
00000000
00000000
00000000
7C007C00
FC00FC00
FC00FC00
00000000
00000000
00000000
00000000
1FFFFF80
1FFFFFC0
03FFFE00
ENDCHAR
STARTCHAR quotesingle
ENCODING 39
SWIDTH 500 0
DWIDTH 32 0
BBX 13 16 6 29
BITMAP
0FF0
0FF8
0FF8
0000
0000
0000
0000
0FC0
0FC0
0F80
0000
0000
0000
7C00
FE00
7E00
ENDCHAR
STARTCHAR parenleft
ENCODING 40
SWIDTH 500 0
DWIDTH 32 0
BBX 13 42 6 3
BITMAP
01F8
01F8
01F8
0000
0000
0000
0000
0FC0
0FC0
0F80
0000
0000
0000
7C00
FE00
7E00
0000
0000
0000
1000
FE00
FE00
1400
0000
0000
0000
7E00
FE00
7C00
0000
0000
0000
0F80
0FC0
0FC0
0000
0000
0000
0000
01F8
01F8
01F8
ENDCHAR
STARTCHAR parenright
ENCODING 41
SWIDTH 500 0
DWIDTH 32 0
BBX 13 42 6 3
BITMAP
7C00
FE00
7E00
0000
0000
0000
0000
0FC0
0FC0
0F80
0000
0000
0000
01F8
01F8
01F8
0000
0000
0000
0060
01F8
01F8
0060
0000
0000
0000
01F8
01F8
01F8
0000
0000
0000
0F80
0FC0
0FC0
0000
0000
0000
0000
FE00
FE00
7C00
ENDCHAR
STARTCHAR asterisk
ENCODING 42
SWIDTH 500 0
DWIDTH 32 0
BBX 26 28 0 10
BITMAP
1F80FC00
1FC0FC00
0F807C00
00000000
00000000
00000000
01FFE000
03FFE000
01FFE000
00000000
00000000
00000000
003FF000
FFFFFFC0
FFFFFFC0
01FF0000
00000000
00000000
00000000
01FFE000
03FFE000
01FFE000
00000000
00000000
00000000
0F807C00
1FC0FC00
1F80FC00
ENDCHAR
STARTCHAR plus
ENCODING 43
SWIDTH 500 0
DWIDTH 32 0
BBX 26 28 0 10
BITMAP
003F0000
003F0000
003E0000
00000000
00000000
00000000
003F0000
003F0000
003F0000
00000000
00000000
00000000
003FF000
FFFFFFC0
FFFFFFC0
01FF0000
00000000
00000000
00000000
003F0000
003F0000
003F0000
00000000
00000000
00000000
003E0000
003F0000
003F0000
ENDCHAR
STARTCHAR comma
ENCODING 44
SWIDTH 500 0
DWIDTH 32 0
BBX 13 16 3 -3
BITMAP
0FF0
1FF8
0FF8
0000
0000
0000
0000
1FC0
1FC0
0F80
0000
0000
0000
7C00
FE00
FC00
ENDCHAR
STARTCHAR hyphen
ENCODING 45
SWIDTH 500 0
DWIDTH 32 0
BBX 26 4 0 22
BITMAP
003FF000
FFFFFFC0
FFFFFFC0
01FF0000
ENDCHAR
STARTCHAR period
ENCODING 46
SWIDTH 500 0
DWIDTH 32 0
BBX 10 10 6 3
BITMAP
7F80
FFC0
7FC0
0000
0000
0000
0000
7FC0
FFC0
7F80
ENDCHAR
STARTCHAR slash
ENCODING 47
SWIDTH 500 0
DWIDTH 32 0
BBX 26 42 0 3
BITMAP
00000F80
00001FC0
00001F80
00000000
00000000
00000000
00000000
0000FC00
0000FC00
00007C00
00000000
00000000
00000000
0007E000
0007E000
0007E000
00000000
00000000
00000000
000C0000
003F0000
003F0000
000C0000
00000000
00000000
00000000
01F80000
03F80000
01F00000
00000000
00000000
00000000
0F800000
1FC00000
1F800000
00000000
00000000
00000000
00000000
FC000000
FC000000
7C000000
ENDCHAR
STARTCHAR zero
ENCODING 48
SWIDTH 500 0
DWIDTH 32 0
BBX 26 42 0 3
BITMAP
01FFC000
03FFE000
01FFE000
00000000
00000000
00000000
00000000
1F80FC00
1FC0FC00
0F807C00
00000000
00000000
00000000
FC000F80
FC001FC0
FC001F80
00000000
00000000
00000000
70000200
FC001FC0
FC001FC0
30000200
00000000
00000000
00000000
FC001F80
FC001FC0
FC000F80
00000000
00000000
00000000
0F807C00
1FC0FC00
1F80FC00
00000000
00000000
00000000
00000000
01FFE000
03FFE000
01FFC000
ENDCHAR
STARTCHAR one
ENCODING 49
SWIDTH 500 0
DWIDTH 32 0
BBX 19 42 3 3
BITMAP
01F000
01F800
01F800
000000
000000
000000
000000
0FF800
1FF800
0FF000
000000
000000
000000
7FF000
FFF800
FFF800
000000
000000
000000
006000
01F800
01F800
006000
000000
000000
000000
01F800
01F800
01F800
000000
000000
000000
01F000
01F800
01F800
000000
000000
000000
000000
FFFFE0
FFFFE0
3FFFC0
ENDCHAR
STARTCHAR two
ENCODING 50
SWIDTH 500 0
DWIDTH 32 0
BBX 26 42 0 3
BITMAP
07FFF000
1FFFFC00
1FFFFC00
00000000
00000000
00000000
00000000
FC001F80
FC001FC0
7C000F80
00000000
00000000
00000000
00000F80
00001FC0
00001F80
00000000
00000000
00000000
0003C000
003FFC00
003FFC00
0003C000
00000000
00000000
00000000
1FF80000
1FF80000
0FF00000
00000000
00000000
00000000
7C000000
FC000000
FC000000
00000000
00000000
00000000
00000000
FFFFFF80
FFFFFFC0
1FFFFC00
ENDCHAR
STARTCHAR three
ENCODING 51
SWIDTH 500 0
DWIDTH 32 0
BBX 26 42 0 3
BITMAP
5FFFFE00
FFFFFFC0
FFFFFF80
00000000
00000000
00000000
00000000
0000FC00
0000FC00
00007C00
00000000
00000000
00000000
0007E000
0007E000
0007E000
00000000
00000000
00000000
0003C000
003FFC00
003FFC00
0003C000
00000000
00000000
00000000
00001F80
00001FC0
00000F80
00000000
00000000
00000000
7C000F80
FC001FC0
FC001F80
00000000
00000000
00000000
00000000
1FFFFC00
1FFFFC00
07FFF800
ENDCHAR
STARTCHAR four
ENCODING 52
SWIDTH 500 0
DWIDTH 32 0
BBX 26 42 0 3
BITMAP
0007E000
0007E000
0007E000
00000000
00000000
00000000
00000000
003FE000
003FE000
003FC000
00000000
00000000
00000000
01FFE000
03FFE000
01FFE000
00000000
00000000
00000000
02018000
1FC7E000
1FC7E000
02018000
00000000
00000000
00000000
FFFFFF80
FFFFFFC0
7FFFFF80
00000000
00000000
00000000
0007E000
0007E000
0007E000
00000000
00000000
00000000
00000000
0007E000
0007E000
0007E000
ENDCHAR
STARTCHAR five
ENCODING 53
SWIDTH 500 0
DWIDTH 32 0
BBX 26 42 0 3
BITMAP
5FFFFE00
FFFFFFC0
FFFFFF80
00000000
00000000
00000000
00000000
FC000000
FC000000
7C000000
00000000
00000000
00000000
7FFFF800
FFFFFC00
FFFFFC00
00000000
00000000
00000000
1C000200
FFC01FC0
FFC01FC0
1C000200
00000000
00000000
00000000
00001F80
00001FC0
00000F80
00000000
00000000
00000000
7C000F80
FC001FC0
FC001F80
00000000
00000000
00000000
00000000
1FFFFC00
1FFFFC00
07FFF800
ENDCHAR
STARTCHAR six
ENCODING 54
SWIDTH 500 0
DWIDTH 32 0
BBX 26 42 0 3
BITMAP
01FFF800
03FFFC00
01FFFC00
00000000
00000000
00000000
00000000
1F800000
1FC00000
0F800000
00000000
00000000
00000000
FC000000
FC000000
FC000000
00000000
00000000
00000000
087F4000
FFFFFC00
FFFFFC00
03FC2000
00000000
00000000
00000000
FF801F80
FFC01FC0
FF800F80
00000000
00000000
00000000
7C000F80
FC001FC0
FC001F80
00000000
00000000
00000000
00000000
1FFFFC00
1FFFFC00
07FFF800
ENDCHAR
STARTCHAR seven
ENCODING 55
SWIDTH 500 0
DWIDTH 32 0
BBX 26 42 0 3
BITMAP
5FFFFE00
FFFFFFC0
FFFFFF80
00000000
00000000
00000000
00000000
00001F80
00001FC0
00000F80
00000000
00000000
00000000
0000FC00
0000FC00
0000FC00
00000000
00000000
00000000
00018000
0007E000
0007E000
00018000
00000000
00000000
00000000
003F0000
003F0000
003F0000
00000000
00000000
00000000
01F00000
03F80000
01F80000
00000000
00000000
00000000
00000000
03F80000
03F80000
01F00000
ENDCHAR
STARTCHAR eight
ENCODING 56
SWIDTH 500 0
DWIDTH 32 0
BBX 26 42 0 3
BITMAP
07FFF000
1FFFFC00
1FFFFC00
00000000
00000000
00000000
00000000
FC001F80
FC001FC0
7C000F80
00000000
00000000
00000000
FC000F80
FC001FC0
FC001F80
00000000
00000000
00000000
003F8000
1FFFFC00
1FFFFC00
007E0000
00000000
00000000
00000000
FC001F80
FC001FC0
FC000F80
00000000
00000000
00000000
7C000F80
FC001FC0
FC001F80
00000000
00000000
00000000
00000000
1FFFFC00
1FFFFC00
07FFF800
ENDCHAR
STARTCHAR nine
ENCODING 57
SWIDTH 500 0
DWIDTH 32 0
BBX 26 42 0 3
BITMAP
07FFF000
1FFFFC00
1FFFFC00
00000000
00000000
00000000
00000000
FC001F80
FC001FC0
7C000F80
00000000
00000000
00000000
FC007F80
FC00FFC0
FC00FF80
00000000
00000000
00000000
010FE800
1FFFFFC0
1FFFFFC0
017F8400
00000000
00000000
00000000
00001F80
00001FC0
00000F80
00000000
00000000
00000000
00007C00
0000FC00
0000FC00
00000000
00000000
00000000
00000000
1FFFE000
1FFFE000
0FFFC000
ENDCHAR
STARTCHAR colon
ENCODING 58
SWIDTH 500 0
DWIDTH 32 0
BBX 10 35 6 3
BITMAP
7FC0
FFC0
7F80
0000
0000
0000
7F80
FFC0
7FC0
0000
0000
0000
0000
0000
0000
0000
0000
0000
0000
0000
0000
0000
0000
0000
0000
7F80
FFC0
7FC0
0000
0000
0000
0000
7FC0
FFC0
7F80
ENDCHAR
STARTCHAR semicolon
ENCODING 59
SWIDTH 500 0
DWIDTH 32 0
BBX 13 41 3 -3
BITMAP
0FF8
1FF8
0FF0
0000
0000
0000
0FF0
1FF8
0FF8
0000
0000
0000
0000
0000
0000
0000
0000
0000
0000
0000
0000
0000
0000
0000
0000
0FF0
1FF8
0FF8
0000
0000
0000
0000
1FC0
1FC0
0F80
0000
0000
0000
7C00
FE00
FC00
ENDCHAR
STARTCHAR less
ENCODING 60
SWIDTH 500 0
DWIDTH 32 0
BBX 26 42 0 3
BITMAP
00000F80
00001FC0
00001F80
00000000
00000000
00000000
00000000
0007E000
0007E000
0007E000
00000000
00000000
00000000
01F00000
03F80000
01F80000
00000000
00000000
00000000
70000000
FC000000
FC000000
30000000
00000000
00000000
00000000
01F80000
03F80000
01F00000
00000000
00000000
00000000
0007E000
0007E000
0007E000
00000000
00000000
00000000
00000000
00001F80
00001FC0
00000F80
ENDCHAR
STARTCHAR equal
ENCODING 61
SWIDTH 500 0
DWIDTH 32 0
BBX 26 16 0 16
BITMAP
7FFFFF00
FFFFFFC0
FFFFFF80
00000000
00000000
00000000
00000000
00000000
00000000
00000000
00000000
00000000
00000000
FFFFFF80
FFFFFFC0
7FFFFF80
ENDCHAR
STARTCHAR greater
ENCODING 62
SWIDTH 500 0
DWIDTH 32 0
BBX 26 42 0 3
BITMAP
7C000000
FC000000
FC000000
00000000
00000000
00000000
00000000
03F80000
03F80000
01F00000
00000000
00000000
00000000
0007E000
0007E000
0007E000
00000000
00000000
00000000
00000200
00001FC0
00001FC0
00000200
00000000
00000000
00000000
0007E000
0007E000
0007E000
00000000
00000000
00000000
01F00000
03F80000
01F80000
00000000
00000000
00000000
00000000
FC000000
FC000000
7C000000
ENDCHAR
STARTCHAR question
ENCODING 63
SWIDTH 500 0
DWIDTH 32 0
BBX 26 42 0 3
BITMAP
07FFF000
1FFFFC00
1FFFFC00
00000000
00000000
00000000
00000000
FC001F80
FC001FC0
7C000F80
00000000
00000000
00000000
0007FC00
0007FC00
0007FC00
00000000
00000000
00000000
000C0000
003F0000
003F0000
000C0000
00000000
00000000
00000000
003F0000
003F0000
003F0000
00000000
00000000
00000000
00000000
00000000
00000000
00000000
00000000
00000000
00000000
003F0000
003F0000
003E0000
ENDCHAR
STARTCHAR at
ENCODING 64
SWIDTH 500 0
DWIDTH 32 0
BBX 26 42 0 3
BITMAP
07FFF000
1FFFFC00
1FFFFC00
00000000
00000000
00000000
00000000
FC001F80
FC001FC0
7C000F80
00000000
00000000
00000000
FC3FFF80
FC3FFFC0
FC3FFF80
00000000
00000000
00000000
0F201C00
FFF8FFC0
FFF8FFC0
0F201C00
00000000
00000000
00000000
FC3FFF80
FC3FFFC0
FC3FFF80
00000000
00000000
00000000
7C000000
FC000000
FC000000
00000000
00000000
00000000
00000000
1FFFFC00
1FFFFC00
07FFF800
ENDCHAR
STARTCHAR A
ENCODING 65
SWIDTH 500 0
DWIDTH 32 0
BBX 26 42 0 3
BITMAP
003E0000
003F0000
003F0000
00000000
00000000
00000000
00000000
01FFE000
03FFE000
01FFC000
00000000
00000000
00000000
0F80FC00
1FC0FC00
1F80FC00
00000000
00000000
00000000
70000200
FC001FC0
FC001FC0
30000200
00000000
00000000
00000000
FFFFFF80
FFFFFFC0
7FFFFF80
00000000
00000000
00000000
7C000F80
FC001FC0
FC001F80
00000000
00000000
00000000
00000000
FC001F80
FC001FC0
7C000F80
ENDCHAR
STARTCHAR B
ENCODING 66
SWIDTH 500 0
DWIDTH 32 0
BBX 26 42 0 3
BITMAP
5FFFF800
FFFFFC00
FFFFFC00
00000000
00000000
00000000
00000000
1F801F80
1FC01FC0
0F800F80
00000000
00000000
00000000
0F800F80
1FC01FC0
1F801F80
00000000
00000000
00000000
003F8000
1FFFFC00
1FFFFC00
007E0000
00000000
00000000
00000000
1F801F80
1FC01FC0
0F800F80
00000000
00000000
00000000
0F800F80
1FC01FC0
1F801F80
00000000
00000000
00000000
00000000
FFFFFC00
FFFFFC00
1FFFE000
ENDCHAR
STARTCHAR C
ENCODING 67
SWIDTH 500 0
DWIDTH 32 0
BBX 26 42 0 3
BITMAP
01FFF800
03FFFC00
01FFFC00
00000000
00000000
00000000
00000000
1F801F80
1FC01FC0
0F800F80
00000000
00000000
00000000
FC000000
FC000000
FC000000
00000000
00000000
00000000
70000000
FC000000
FC000000
30000000
00000000
00000000
00000000
FC000000
FC000000
FC000000
00000000
00000000
00000000
0F800F80
1FC01FC0
1F801F80
00000000
00000000
00000000
00000000
03FFFC00
03FFFC00
00FFF800
ENDCHAR
STARTCHAR D
ENCODING 68
SWIDTH 500 0
DWIDTH 32 0
BBX 26 42 0 3
BITMAP
7FFFC000
FFFFE000
FFFFE000
00000000
00000000
00000000
00000000
1F80FC00
1FC0FC00
0F807C00
00000000
00000000
00000000
0F800F80
1FC01FC0
1F801F80
00000000
00000000
00000000
02000200
1FC01FC0
1FC01FC0
02000200
00000000
00000000
00000000
1F801F80
1FC01FC0
0F800F80
00000000
00000000
00000000
0F807C00
1FC0FC00
1F80FC00
00000000
00000000
00000000
00000000
FFFFE000
FFFFE000
3FFFC000
ENDCHAR
STARTCHAR E
ENCODING 69
SWIDTH 500 0
DWIDTH 32 0
BBX 26 42 0 3
BITMAP
5FFFFE00
FFFFFFC0
FFFFFF80
00000000
00000000
00000000
00000000
FC000000
FC000000
7C000000
00000000
00000000
00000000
FC000000
FC000000
FC000000
00000000
00000000
00000000
11FE0000
FFFFE000
FFFFE000
07F00000
00000000
00000000
00000000
FC000000
FC000000
FC000000
00000000
00000000
00000000
7C000000
FC000000
FC000000
00000000
00000000
00000000
00000000
FFFFFF80
FFFFFFC0
1FFFFC00
ENDCHAR
STARTCHAR F
ENCODING 70
SWIDTH 500 0
DWIDTH 32 0
BBX 26 42 0 3
BITMAP
5FFFFE00
FFFFFFC0
FFFFFF80
00000000
00000000
00000000
00000000
FC000000
FC000000
7C000000
00000000
00000000
00000000
FC000000
FC000000
FC000000
00000000
00000000
00000000
11FE0000
FFFFE000
FFFFE000
07F00000
00000000
00000000
00000000
FC000000
FC000000
FC000000
00000000
00000000
00000000
7C000000
FC000000
FC000000
00000000
00000000
00000000
00000000
FC000000
FC000000
7C000000
ENDCHAR
STARTCHAR G
ENCODING 71
SWIDTH 500 0
DWIDTH 32 0
BBX 26 42 0 3
BITMAP
01FFF800
03FFFC00
01FFFC00
00000000
00000000
00000000
00000000
1F801F80
1FC01FC0
0F800F80
00000000
00000000
00000000
FC000000
FC000000
FC000000
00000000
00000000
00000000
70000000
FC000000
FC000000
30000000
00000000
00000000
00000000
FC07FF80
FC07FFC0
FC07FF80
00000000
00000000
00000000
0F800F80
1FC01FC0
1F801F80
00000000
00000000
00000000
00000000
03FFFC00
03FFFC00
00FFF800
ENDCHAR
STARTCHAR H
ENCODING 72
SWIDTH 500 0
DWIDTH 32 0
BBX 26 42 0 3
BITMAP
7C000F80
FC001FC0
FC001F80
00000000
00000000
00000000
00000000
FC001F80
FC001FC0
7C000F80
00000000
00000000
00000000
FC000F80
FC001FC0
FC001F80
00000000
00000000
00000000
003FF000
FFFFFFC0
FFFFFFC0
01FF0000
00000000
00000000
00000000
FC001F80
FC001FC0
FC000F80
00000000
00000000
00000000
7C000F80
FC001FC0
FC001F80
00000000
00000000
00000000
00000000
FC001F80
FC001FC0
7C000F80
ENDCHAR
STARTCHAR I
ENCODING 73
SWIDTH 500 0
DWIDTH 32 0
BBX 19 42 3 3
BITMAP
3FFF80
FFFFE0
FFFFE0
000000
000000
000000
000000
01F800
01F800
01F000
000000
000000
000000
01F800
01F800
01F800
000000
000000
000000
006000
01F800
01F800
006000
000000
000000
000000
01F800
01F800
01F800
000000
000000
000000
01F000
01F800
01F800
000000
000000
000000
000000
FFFFE0
FFFFE0
3FFFC0
ENDCHAR
STARTCHAR J
ENCODING 74
SWIDTH 500 0
DWIDTH 32 0
BBX 26 42 0 3
BITMAP
0003FF80
0007FFC0
0007FF80
00000000
00000000
00000000
00000000
0000FC00
0000FC00
00007C00
00000000
00000000
00000000
0000FC00
0000FC00
0000FC00
00000000
00000000
00000000
00007000
0000FC00
0000FC00
00003000
00000000
00000000
00000000
0000FC00
0000FC00
0000FC00
00000000
00000000
00000000
7C007C00
FC00FC00
FC00FC00
00000000
00000000
00000000
00000000
1FFFE000
1FFFE000
0FFFC000
ENDCHAR
STARTCHAR K
ENCODING 75
SWIDTH 500 0
DWIDTH 32 0
BBX 26 42 0 3
BITMAP
7C000F80
FC001FC0
FC001F80
00000000
00000000
00000000
00000000
FC07FC00
FC07FC00
7C03FC00
00000000
00000000
00000000
7FFE0000
FFFF0000
FFFF0000
00000000
00000000
00000000
1C000000
FFC00000
FFC00000
1C000000
00000000
00000000
00000000
FFFF0000
FFFF0000
7FFE0000
00000000
00000000
00000000
7C03FC00
FC07FC00
FC07FC00
00000000
00000000
00000000
00000000
FC001F80
FC001FC0
7C000F80
ENDCHAR
STARTCHAR L
ENCODING 76
SWIDTH 500 0
DWIDTH 32 0
BBX 26 42 0 3
BITMAP
7C000000
FC000000
FC000000
00000000
00000000
00000000
00000000
FC000000
FC000000
7C000000
00000000
00000000
00000000
FC000000
FC000000
FC000000
00000000
00000000
00000000
70000000
FC000000
FC000000
30000000
00000000
00000000
00000000
FC000000
FC000000
FC000000
00000000
00000000
00000000
7C000000
FC000000
FC000000
00000000
00000000
00000000
00000000
FFFFFF80
FFFFFFC0
1FFFFC00
ENDCHAR
STARTCHAR M
ENCODING 77
SWIDTH 500 0
DWIDTH 32 0
BBX 26 42 0 3
BITMAP
7C000F80
FC001FC0
FC001F80
00000000
00000000
00000000
00000000
FF80FF80
FFC0FFC0
7F807F80
00000000
00000000
00000000
7FFFFF00
FFFFFFC0
FFFFFF80
00000000
00000000
00000000
700C0200
FC3F1FC0
FC3F1FC0
300C0200
00000000
00000000
00000000
FC001F80
FC001FC0
FC000F80
00000000
00000000
00000000
7C000F80
FC001FC0
FC001F80
00000000
00000000
00000000
00000000
FC001F80
FC001FC0
7C000F80
ENDCHAR
STARTCHAR N
ENCODING 78
SWIDTH 500 0
DWIDTH 32 0
BBX 26 42 0 3
BITMAP
7C000F80
FC001FC0
FC001F80
00000000
00000000
00000000
00000000
FF801F80
FFC01FC0
7F800F80
00000000
00000000
00000000
7FF00F80
FFF81FC0
FFF81F80
00000000
00000000
00000000
700C0200
FC3F1FC0
FC3F1FC0
300C0200
00000000
00000000
00000000
FC07FF80
FC07FFC0
FC07FF80
00000000
00000000
00000000
7C007F80
FC00FFC0
FC00FF80
00000000
00000000
00000000
00000000
FC001F80
FC001FC0
7C000F80
ENDCHAR
STARTCHAR O
ENCODING 79
SWIDTH 500 0
DWIDTH 32 0
BBX 26 42 0 3
BITMAP
07FFF000
1FFFFC00
1FFFFC00
00000000
00000000
00000000
00000000
FC001F80
FC001FC0
7C000F80
00000000
00000000
00000000
FC000F80
FC001FC0
FC001F80
00000000
00000000
00000000
70000200
FC001FC0
FC001FC0
30000200
00000000
00000000
00000000
FC001F80
FC001FC0
FC000F80
00000000
00000000
00000000
7C000F80
FC001FC0
FC001F80
00000000
00000000
00000000
00000000
1FFFFC00
1FFFFC00
07FFF800
ENDCHAR
STARTCHAR P
ENCODING 80
SWIDTH 500 0
DWIDTH 32 0
BBX 26 42 0 3
BITMAP
5FFFF800
FFFFFC00
FFFFFC00
00000000
00000000
00000000
00000000
FC001F80
FC001FC0
7C000F80
00000000
00000000
00000000
FC000F80
FC001FC0
FC001F80
00000000
00000000
00000000
087F4000
FFFFFC00
FFFFFC00
03FC2000
00000000
00000000
00000000
FC000000
FC000000
FC000000
00000000
00000000
00000000
7C000000
FC000000
FC000000
00000000
00000000
00000000
00000000
FC000000
FC000000
7C000000
ENDCHAR
STARTCHAR Q
ENCODING 81
SWIDTH 500 0
DWIDTH 32 0
BBX 26 42 0 3
BITMAP
07FFF000
1FFFFC00
1FFFFC00
00000000
00000000
00000000
00000000
FC001F80
FC001FC0
7C000F80
00000000
00000000
00000000
FC000F80
FC001FC0
FC001F80
00000000
00000000
00000000
70000200
FC001FC0
FC001FC0
30000200
00000000
00000000
00000000
FC07FF80
FC07FFC0
FC07FF80
00000000
00000000
00000000
7C007C00
FC00FC00
FC00FC00
00000000
00000000
00000000
00000000
1FFFFF80
1FFFFFC0
03FFFE00
ENDCHAR
STARTCHAR R
ENCODING 82
SWIDTH 500 0
DWIDTH 32 0
BBX 26 42 0 3
BITMAP
5FFFF800
FFFFFC00
FFFFFC00
00000000
00000000
00000000
00000000
FC001F80
FC001FC0
7C000F80
00000000
00000000
00000000
FC000F80
FC001FC0
FC001F80
00000000
00000000
00000000
087F4000
FFFFFC00
FFFFFC00
03FC2000
00000000
00000000
00000000
FC07E000
FC07E000
FC07E000
00000000
00000000
00000000
7C007C00
FC00FC00
FC00FC00
00000000
00000000
00000000
00000000
FC001F80
FC001FC0
7C000F80
ENDCHAR
STARTCHAR S
ENCODING 83
SWIDTH 500 0
DWIDTH 32 0
BBX 26 42 0 3
BITMAP
07FFF000
1FFFFC00
1FFFFC00
00000000
00000000
00000000
00000000
FC001F80
FC001FC0
7C000F80
00000000
00000000
00000000
FC000000
FC000000
FC000000
00000000
00000000
00000000
003F8000
1FFFFC00
1FFFFC00
007E0000
00000000
00000000
00000000
00001F80
00001FC0
00000F80
00000000
00000000
00000000
7C000F80
FC001FC0
FC001F80
00000000
00000000
00000000
00000000
1FFFFC00
1FFFFC00
07FFF800
ENDCHAR
STARTCHAR T
ENCODING 84
SWIDTH 500 0
DWIDTH 32 0
BBX 26 42 0 3
BITMAP
5FFFFE00
FFFFFFC0
FFFFFF80
00000000
00000000
00000000
00000000
003F0000
003F0000
003E0000
00000000
00000000
00000000
003F0000
003F0000
003F0000
00000000
00000000
00000000
000C0000
003F0000
003F0000
000C0000
00000000
00000000
00000000
003F0000
003F0000
003F0000
00000000
00000000
00000000
003E0000
003F0000
003F0000
00000000
00000000
00000000
00000000
003F0000
003F0000
003E0000
ENDCHAR
STARTCHAR U
ENCODING 85
SWIDTH 500 0
DWIDTH 32 0
BBX 26 42 0 3
BITMAP
7C000F80
FC001FC0
FC001F80
00000000
00000000
00000000
00000000
FC001F80
FC001FC0
7C000F80
00000000
00000000
00000000
FC000F80
FC001FC0
FC001F80
00000000
00000000
00000000
70000200
FC001FC0
FC001FC0
30000200
00000000
00000000
00000000
FC001F80
FC001FC0
FC000F80
00000000
00000000
00000000
7C000F80
FC001FC0
FC001F80
00000000
00000000
00000000
00000000
1FFFFC00
1FFFFC00
07FFF800
ENDCHAR
STARTCHAR V
ENCODING 86
SWIDTH 500 0
DWIDTH 32 0
BBX 26 42 0 3
BITMAP
7C000F80
FC001FC0
FC001F80
00000000
00000000
00000000
00000000
FC001F80
FC001FC0
7C000F80
00000000
00000000
00000000
0F80FC00
1FC0FC00
1F80FC00
00000000
00000000
00000000
02007000
1FC0FC00
1FC0FC00
02003000
00000000
00000000
00000000
01FFE000
03FFE000
01FFE000
00000000
00000000
00000000
01FFC000
03FFE000
01FFE000
00000000
00000000
00000000
00000000
003F0000
003F0000
003E0000
ENDCHAR
STARTCHAR W
ENCODING 87
SWIDTH 500 0
DWIDTH 32 0
BBX 26 42 0 3
BITMAP
7C000F80
FC001FC0
FC001F80
00000000
00000000
00000000
00000000
FC001F80
FC001FC0
7C000F80
00000000
00000000
00000000
FC000F80
FC001FC0
FC001F80
00000000
00000000
00000000
700C0200
FC3F1FC0
FC3F1FC0
300C0200
00000000
00000000
00000000
FC3F1F80
FC3F1FC0
FC3F0F80
00000000
00000000
00000000
5FFFFE00
FFFFFFC0
FFFFFF80
00000000
00000000
00000000
00000000
1F80FC00
1FC0FC00
0F807C00
ENDCHAR
STARTCHAR X
ENCODING 88
SWIDTH 500 0
DWIDTH 32 0
BBX 26 42 0 3
BITMAP
7C000F80
FC001FC0
FC001F80
00000000
00000000
00000000
00000000
1F80FC00
1FC0FC00
0F807C00
00000000
00000000
00000000
01FFE000
03FFE000
01FFE000
00000000
00000000
00000000
000C0000
003F0000
003F0000
000C0000
00000000
00000000
00000000
01FFE000
03FFE000
01FFE000
00000000
00000000
00000000
0F807C00
1FC0FC00
1F80FC00
00000000
00000000
00000000
00000000
FC001F80
FC001FC0
7C000F80
ENDCHAR
STARTCHAR Y
ENCODING 89
SWIDTH 500 0
DWIDTH 32 0
BBX 26 42 0 3
BITMAP
7C000F80
FC001FC0
FC001F80
00000000
00000000
00000000
00000000
1F80FC00
1FC0FC00
0F807C00
00000000
00000000
00000000
01FFE000
03FFE000
01FFE000
00000000
00000000
00000000
000C0000
003F0000
003F0000
000C0000
00000000
00000000
00000000
003F0000
003F0000
003F0000
00000000
00000000
00000000
003E0000
003F0000
003F0000
00000000
00000000
00000000
00000000
003F0000
003F0000
003E0000
ENDCHAR
STARTCHAR Z
ENCODING 90
SWIDTH 500 0
DWIDTH 32 0
BBX 26 42 0 3
BITMAP
5FFFFE00
FFFFFFC0
FFFFFF80
00000000
00000000
00000000
00000000
0000FC00
0000FC00
00007C00
00000000
00000000
00000000
0007E000
0007E000
0007E000
00000000
00000000
00000000
000C0000
003F0000
003F0000
000C0000
00000000
00000000
00000000
01F80000
03F80000
01F00000
00000000
00000000
00000000
0F800000
1FC00000
1F800000
00000000
00000000
00000000
00000000
FFFFFF80
FFFFFFC0
1FFFFC00
ENDCHAR
STARTCHAR bracketleft
ENCODING 91
SWIDTH 500 0
DWIDTH 32 0
BBX 16 42 6 3
BITMAP
7FFE
FFFF
7FFF
0000
0000
0000
0000
FE00
FE00
7C00
0000
0000
0000
7C00
FE00
7E00
0000
0000
0000
1000
FE00
FE00
1400
0000
0000
0000
7E00
FE00
7C00
0000
0000
0000
7C00
FE00
7E00
0000
0000
0000
0000
FFFF
FFFF
3FFE
ENDCHAR
STARTCHAR backslash
ENCODING 92
SWIDTH 500 0
DWIDTH 32 0
BBX 26 42 0 3
BITMAP
7C000000
FC000000
FC000000
00000000
00000000
00000000
00000000
1F800000
1FC00000
0F800000
00000000
00000000
00000000
01F00000
03F80000
01F80000
00000000
00000000
00000000
000C0000
003F0000
003F0000
000C0000
00000000
00000000
00000000
0007E000
0007E000
0007E000
00000000
00000000
00000000
00007C00
0000FC00
0000FC00
00000000
00000000
00000000
00000000
00001F80
00001FC0
00000F80
ENDCHAR
STARTCHAR bracketright
ENCODING 93
SWIDTH 500 0
DWIDTH 32 0
BBX 16 42 3 3
BITMAP
7FFE
FFFF
FFFF
0000
0000
0000
0000
003F
003F
003F
0000
0000
0000
003F
003F
003F
0000
0000
0000
000C
003F
003F
000C
0000
0000
0000
003F
003F
003F
0000
0000
0000
003F
003F
003F
0000
0000
0000
0000
FFFF
FFFF
7FFE
ENDCHAR
STARTCHAR asciicircum
ENCODING 94
SWIDTH 500 0
DWIDTH 32 0
BBX 26 23 0 22
BITMAP
003E0000
003F0000
003F0000
00000000
00000000
00000000
00000000
01FFE000
03FFE000
01FFC000
00000000
00000000
00000000
0F80FC00
1FC0FC00
1F80FC00
00000000
00000000
00000000
70000200
FC001FC0
FC001FC0
30000200
ENDCHAR
STARTCHAR underscore
ENCODING 95
SWIDTH 500 0
DWIDTH 32 0
BBX 26 3 0 3
BITMAP
FFFFFF80
FFFFFFC0
1FFFFC00
ENDCHAR
STARTCHAR grave
ENCODING 96
SWIDTH 500 0
DWIDTH 32 0
BBX 13 16 6 29
BITMAP
7F80
FFC0
7FC0
0000
0000
0000
0000
0FC0
0FC0
0F80
0000
0000
0000
01F8
01F8
01F8
ENDCHAR
STARTCHAR a
ENCODING 97
SWIDTH 500 0
DWIDTH 32 0
BBX 26 29 0 3
BITMAP
0FFFF800
1FFFFC00
0FFFFC00
00000000
00000000
00000000
00000200
00001FC0
00001FC0
00000200
00000000
00000000
00000000
0FFFFF80
1FFFFFC0
0FFFFF80
00000000
00000000
00000000
7C007F80
FC00FFC0
FC00FF80
00000000
00000000
00000000
00000000
1FFFFF80
1FFFFFC0
03FFFE00
ENDCHAR
STARTCHAR b
ENCODING 98
SWIDTH 500 0
DWIDTH 32 0
BBX 26 42 0 3
BITMAP
7C000000
FC000000
FC000000
00000000
00000000
00000000
00000000
FC000000
FC000000
7C000000
00000000
00000000
00000000
7FFFF800
FFFFFC00
FFFFFC00
00000000
00000000
00000000
1C000200
FFC01FC0
FFC01FC0
1C000200
00000000
00000000
00000000
FC001F80
FC001FC0
FC000F80
00000000
00000000
00000000
7F800F80
FFC01FC0
FF801F80
00000000
00000000
00000000
00000000
FFFFFC00
FFFFFC00
1FFFE000
ENDCHAR
STARTCHAR c
ENCODING 99
SWIDTH 500 0
DWIDTH 32 0
BBX 26 29 0 3
BITMAP
0FFFF800
1FFFFC00
0FFFFC00
00000000
00000000
00000000
70000200
FC001FC0
FC001FC0
30000200
00000000
00000000
00000000
FC000000
FC000000
FC000000
00000000
00000000
00000000
7C000000
FC000000
FC000000
00000000
00000000
00000000
00000000
1FFFFF80
1FFFFFC0
03FFFE00
ENDCHAR
STARTCHAR d
ENCODING 100
SWIDTH 500 0
DWIDTH 32 0
BBX 26 42 0 3
BITMAP
00000F80
00001FC0
00001F80
00000000
00000000
00000000
00000000
00001F80
00001FC0
00000F80
00000000
00000000
00000000
0FFFFF80
1FFFFFC0
0FFFFF80
00000000
00000000
00000000
70001C00
FC00FFC0
FC00FFC0
30001C00
00000000
00000000
00000000
FC001F80
FC001FC0
FC000F80
00000000
00000000
00000000
7C007F80
FC00FFC0
FC00FF80
00000000
00000000
00000000
00000000
1FFFFF80
1FFFFFC0
03FFFE00
ENDCHAR
STARTCHAR e
ENCODING 101
SWIDTH 500 0
DWIDTH 32 0
BBX 26 29 0 3
BITMAP
0FFFF800
1FFFFC00
0FFFFC00
00000000
00000000
00000000
70000200
FC001FC0
FC001FC0
30000200
00000000
00000000
00000000
FFFFFF80
FFFFFFC0
7FFFFF80
00000000
00000000
00000000
7C000000
FC000000
FC000000
00000000
00000000
00000000
00000000
1FFFFC00
1FFFFC00
07FFF800
ENDCHAR
STARTCHAR f
ENCODING 102
SWIDTH 500 0
DWIDTH 32 0
BBX 26 42 0 3
BITMAP
001FF800
003FFC00
003FFC00
00000000
00000000
00000000
00000000
03F81F80
03F81FC0
01F00F80
00000000
00000000
00000000
01F00000
03F80000
01F80000
00000000
00000000
00000000
11FE0000
FFFFE000
FFFFE000
07F00000
00000000
00000000
00000000
01F80000
03F80000
01F00000
00000000
00000000
00000000
01F00000
03F80000
01F80000
00000000
00000000
00000000
00000000
03F80000
03F80000
01F00000
ENDCHAR
STARTCHAR g
ENCODING 103
SWIDTH 500 0
DWIDTH 32 0
BBX 26 42 0 -10
BITMAP
0FFFFF80
1FFFFFC0
0FFFFF80
00000000
00000000
00000000
70007000
FC00FC00
FC00FC00
30003000
00000000
00000000
00000000
1FFFE000
1FFFE000
0FFFE000
00000000
00000000
00000000
7C000000
FC000000
FC000000
00000000
00000000
00000000
00000000
1FFFFC00
1FFFFC00
07FFF800
00000000
00000000
00000000
FC000F80
FC001FC0
FC001F80
00000000
00000000
00000000
003F8000
1FFFFC00
1FFFFC00
007E0000
ENDCHAR
STARTCHAR h
ENCODING 104
SWIDTH 500 0
DWIDTH 32 0
BBX 26 42 0 3
BITMAP
7C000000
FC000000
FC000000
00000000
00000000
00000000
00000000
FC000000
FC000000
7C000000
00000000
00000000
00000000
7FFFF800
FFFFFC00
FFFFFC00
00000000
00000000
00000000
1C000200
FFC01FC0
FFC01FC0
1C000200
00000000
00000000
00000000
FC001F80
FC001FC0
FC000F80
00000000
00000000
00000000
7C000F80
FC001FC0
FC001F80
00000000
00000000
00000000
00000000
FC001F80
FC001FC0
7C000F80
ENDCHAR
STARTCHAR i
ENCODING 105
SWIDTH 500 0
DWIDTH 32 0
BBX 19 42 3 3
BITMAP
01F000
01F800
01F800
000000
000000
000000
000000
000000
000000
000000
000000
000000
000000
0FF000
1FF800
0FF800
000000
000000
000000
006000
01F800
01F800
006000
000000
000000
000000
01F800
01F800
01F800
000000
000000
000000
01F000
01F800
01F800
000000
000000
000000
000000
FFFFE0
FFFFE0
3FFFC0
ENDCHAR
STARTCHAR j
ENCODING 106
SWIDTH 500 0
DWIDTH 32 0
BBX 22 55 0 -10
BITMAP
00007C
0000FC
0000FC
000000
000000
000000
000000
000000
000000
000000
000000
000000
000000
0000FC
0000FC
0000FC
000000
000000
000000
000070
0000FC
0000FC
000030
000000
000000
000000
0000FC
0000FC
0000FC
000000
000000
000000
00007C
0000FC
0000FC
000000
000000
000000
000000
FC00FC
FC00FC
7C007C
000000
000000
000000
FC00FC
FC00FC
FC00FC
000000
000000
000000
03FF00
1FFFE0
1FFFE0
07FF00
ENDCHAR
STARTCHAR k
ENCODING 107
SWIDTH 500 0
DWIDTH 32 0
BBX 26 42 0 3
BITMAP
7C000000
FC000000
FC000000
00000000
00000000
00000000
00000000
FC000000
FC000000
7C000000
00000000
00000000
00000000
FC07E000
FC07E000
FC07E000
00000000
00000000
00000000
700C0000
FC3F0000
FC3F0000
300C0000
00000000
00000000
00000000
FFF80000
FFF80000
7FF00000
00000000
00000000
00000000
7C07E000
FC07E000
FC07E000
00000000
00000000
00000000
00000000
FC001F80
FC001FC0
7C000F80
ENDCHAR
STARTCHAR l
ENCODING 108
SWIDTH 500 0
DWIDTH 32 0
BBX 13 42 6 3
BITMAP
7F80
FFC0
7FC0
0000
0000
0000
0000
0FC0
0FC0
0F80
0000
0000
0000
0FC0
0FC0
0FC0
0000
0000
0000
0300
0FC0
0FC0
0300
0000
0000
0000
0FC0
0FC0
0FC0
0000
0000
0000
0F80
0FC0
0FC0
0000
0000
0000
0000
7FF8
FFF8
7FF0
ENDCHAR
STARTCHAR m
ENCODING 109
SWIDTH 500 0
DWIDTH 32 0
BBX 26 29 0 3
BITMAP
7F80FC00
FFC0FC00
FF80FC00
00000000
00000000
00000000
003FF000
FFFFFFC0
FFFFFFC0
01FF0000
00000000
00000000
00000000
FC3F1F80
FC3F1FC0
FC3F0F80
00000000
00000000
00000000
7C3E0F80
FC3F1FC0
FC3F1F80
00000000
00000000
00000000
00000000
FC001F80
FC001FC0
7C000F80
ENDCHAR
STARTCHAR n
ENCODING 110
SWIDTH 500 0
DWIDTH 32 0
BBX 26 29 0 3
BITMAP
7FFFF800
FFFFFC00
FFFFFC00
00000000
00000000
00000000
1C000200
FFC01FC0
FFC01FC0
1C000200
00000000
00000000
00000000
FC001F80
FC001FC0
FC000F80
00000000
00000000
00000000
7C000F80
FC001FC0
FC001F80
00000000
00000000
00000000
00000000
FC001F80
FC001FC0
7C000F80
ENDCHAR
STARTCHAR o
ENCODING 111
SWIDTH 500 0
DWIDTH 32 0
BBX 26 29 0 3
BITMAP
0FFFF800
1FFFFC00
0FFFFC00
00000000
00000000
00000000
70000200
FC001FC0
FC001FC0
30000200
00000000
00000000
00000000
FC001F80
FC001FC0
FC000F80
00000000
00000000
00000000
7C000F80
FC001FC0
FC001F80
00000000
00000000
00000000
00000000
1FFFFC00
1FFFFC00
07FFF800
ENDCHAR
STARTCHAR p
ENCODING 112
SWIDTH 500 0
DWIDTH 32 0
BBX 26 42 0 -10
BITMAP
7FFFF800
FFFFFC00
FFFFFC00
00000000
00000000
00000000
1C000200
FFC01FC0
FFC01FC0
1C000200
00000000
00000000
00000000
FF801F80
FFC01FC0
FF800F80
00000000
00000000
00000000
5FFFF800
FFFFFC00
FFFFFC00
00000000
00000000
00000000
00000000
FC000000
FC000000
7C000000
00000000
00000000
00000000
FC000000
FC000000
FC000000
00000000
00000000
00000000
70000000
FC000000
FC000000
30000000
ENDCHAR
STARTCHAR q
ENCODING 113
SWIDTH 500 0
DWIDTH 32 0
BBX 26 42 0 -10
BITMAP
0FFFFF80
1FFFFFC0
0FFFFF80
00000000
00000000
00000000
70001C00
FC00FFC0
FC00FFC0
30001C00
00000000
00000000
00000000
FC00FF80
FC00FFC0
FC00FF80
00000000
00000000
00000000
03FFFE00
1FFFFFC0
1FFFFF80
00000000
00000000
00000000
00000000
00001F80
00001FC0
00000F80
00000000
00000000
00000000
00000F80
00001FC0
00001F80
00000000
00000000
00000000
00000200
00001FC0
00001FC0
00000200
ENDCHAR
STARTCHAR r
ENCODING 114
SWIDTH 500 0
DWIDTH 32 0
BBX 26 29 0 3
BITMAP
FC3FFC00
FC3FFC00
FC3FFC00
00000000
00000000
00000000
03800200
1FF81FC0
1FF81FC0
01C00200
00000000
00000000
00000000
1F800000
1FC00000
0F800000
00000000
00000000
00000000
0F800000
1FC00000
1F800000
00000000
00000000
00000000
00000000
1F800000
1FC00000
0F800000
ENDCHAR
STARTCHAR s
ENCODING 115
SWIDTH 500 0
DWIDTH 32 0
BBX 26 29 0 3
BITMAP
0FFFF800
1FFFFC00
0FFFFC00
00000000
00000000
00000000
70000000
FC000000
FC000000
30000000
00000000
00000000
00000000
0FFFFC00
1FFFFC00
0FFFFC00
00000000
00000000
00000000
00000F80
00001FC0
00001F80
00000000
00000000
00000000
00000000
FFFFFC00
FFFFFC00
1FFFE000
ENDCHAR
STARTCHAR t
ENCODING 116
SWIDTH 500 0
DWIDTH 32 0
BBX 22 42 0 3
BITMAP
01F000
03F800
01F800
000000
000000
000000
000000
03F800
03F800
01F000
000000
000000
000000
7FFFC0
FFFFE0
FFFFE0
000000
000000
000000
004000
03F800
03F800
005000
000000
000000
000000
01F800
03F800
01F000
000000
000000
000000
01F07C
03F8FC
01F8FC
000000
000000
000000
000000
003FE0
003FE0
003FC0
ENDCHAR
STARTCHAR u
ENCODING 117
SWIDTH 500 0
DWIDTH 32 0
BBX 26 29 0 3
BITMAP
FC00FC00
FC00FC00
FC00FC00
00000000
00000000
00000000
70007000
FC00FC00
FC00FC00
30003000
00000000
00000000
00000000
FC00FC00
FC00FC00
FC00FC00
00000000
00000000
00000000
7C007C00
FC00FC00
FC00FC00
00000000
00000000
00000000
00000000
1FFFFF80
1FFFFFC0
03FFFE00
ENDCHAR
STARTCHAR v
ENCODING 118
SWIDTH 500 0
DWIDTH 32 0
BBX 26 29 0 3
BITMAP
FC000F80
FC001FC0
FC001F80
00000000
00000000
00000000
70000200
FC001FC0
FC001FC0
30000200
00000000
00000000
00000000
1F80FC00
1FC0FC00
0F80FC00
00000000
00000000
00000000
01FFC000
03FFE000
01FFE000
00000000
00000000
00000000
00000000
003F0000
003F0000
003E0000
ENDCHAR
STARTCHAR w
ENCODING 119
SWIDTH 500 0
DWIDTH 32 0
BBX 26 29 0 3
BITMAP
FC000F80
FC001FC0
FC001F80
00000000
00000000
00000000
70000200
FC001FC0
FC001FC0
30000200
00000000
00000000
00000000
FC3F1F80
FC3F1FC0
FC3F0F80
00000000
00000000
00000000
5FFFFE00
FFFFFFC0
FFFFFF80
00000000
00000000
00000000
00000000
1F80FC00
1FC0FC00
0F807C00
ENDCHAR
STARTCHAR x
ENCODING 120
SWIDTH 500 0
DWIDTH 32 0
BBX 22 29 0 3
BITMAP
FC00FC
FC00FC
FC00FC
000000
000000
000000
020180
1FC7E0
1FC7E0
020180
000000
000000
000000
01FF00
03FF00
01FF00
000000
000000
000000
0F87E0
1FC7E0
1F87E0
000000
000000
000000
000000
FC00FC
FC00FC
7C007C
ENDCHAR
STARTCHAR y
ENCODING 121
SWIDTH 500 0
DWIDTH 32 0
BBX 22 42 0 -10
BITMAP
FC00FC
FC00FC
FC00FC
000000
000000
000000
700070
FC00FC
FC00FC
300030
000000
000000
000000
FC07FC
FC07FC
FC07FC
000000
000000
000000
07FFF0
1FFFFC
1FFFFC
000000
000000
000000
000000
0000FC
0000FC
00007C
000000
000000
000000
FC00FC
FC00FC
FC00FC
000000
000000
000000
03FF00
1FFFE0
1FFFE0
07FF00
ENDCHAR
STARTCHAR z
ENCODING 122
SWIDTH 500 0
DWIDTH 32 0
BBX 26 29 0 3
BITMAP
7FFFFF00
FFFFFFC0
FFFFFF80
00000000
00000000
00000000
00007000
0000FC00
0000FC00
00003000
00000000
00000000
00000000
003FE000
003FE000
003FE000
00000000
00000000
00000000
01F00000
03F80000
01F80000
00000000
00000000
00000000
00000000
FFFFFF80
FFFFFFC0
1FFFFC00
ENDCHAR
STARTCHAR braceleft
ENCODING 123
SWIDTH 500 0
DWIDTH 32 0
BBX 20 42 6 3
BITMAP
00FFE0
01FFF0
01FFE0
000000
000000
000000
000000
0FC000
0FC000
0F8000
000000
000000
000000
01F800
01F800
01F800
000000
000000
000000
0E0000
FFC000
FFC000
0E0000
000000
000000
000000
01F800
01F800
01F800
000000
000000
000000
0F8000
0FC000
0FC000
000000
000000
000000
000000
01FFE0
01FFF0
00FFE0
ENDCHAR
STARTCHAR bar
ENCODING 124
SWIDTH 500 0
DWIDTH 32 0
BBX 6 42 10 3
BITMAP
F8
FC
FC
00
00
00
00
FC
FC
F8
00
00
00
FC
FC
FC
00
00
00
30
FC
FC
30
00
00
00
FC
FC
FC
00
00
00
F8
FC
FC
00
00
00
00
FC
FC
F8
ENDCHAR
STARTCHAR braceright
ENCODING 125
SWIDTH 500 0
DWIDTH 32 0
BBX 19 42 0 3
BITMAP
7FF000
FFF800
FFF800
000000
000000
000000
000000
003F00
003F00
003E00
000000
000000
000000
01F000
03F800
01F800
000000
000000
000000
000700
003FE0
003FE0
000700
000000
000000
000000
01F800
03F800
01F000
000000
000000
000000
003E00
003F00
003F00
000000
000000
000000
000000
FFF800
FFF800
7FF000
ENDCHAR
STARTCHAR asciitilde
ENCODING 126
SWIDTH 500 0
DWIDTH 32 0
BBX 26 16 0 29
BITMAP
0FF00F80
1FF81FC0
1FF81F80
00000000
00000000
00000000
00000000
FC3F1F80
FC3F1FC0
7C3E0F80
00000000
00000000
00000000
FC07FC00
FC07FC00
FC07FC00
ENDCHAR
STARTCHAR uni007F
ENCODING 127
SWIDTH 500 0
DWIDTH 32 0
BBX 19 55 0 -10
BITMAP
7FF000
FFF800
FFF800
000000
000000
000000
000000
FC3F00
FC3F00
7C3E00
000000
000000
000000
FC3F00
FC3F00
FC3F00
000000
000000
000000
700C00
FC3F00
FC3F00
300C00
000000
000000
000000
FFFFE0
FFFFE0
7FFFE0
000000
000000
000000
01F000
03F800
01F800
000000
000000
000000
000000
03F800
03F800
01F000
000000
000000
000000
01F000
03F800
01F800
000000
000000
000000
004000
03F800
03F800
005000
ENDCHAR
STARTCHAR uni0080
ENCODING 128
SWIDTH 500 0
DWIDTH 32 0
BBX 26 55 0 -10
BITMAP
0FF00000
1FF80000
1FF80000
00000000
00000000
00000000
00000000
FC3F0000
FC3F0000
7C3E0000
00000000
00000000
00000000
0FF00000
1FF80000
1FF80000
00000000
00000000
00000000
700C0000
FC3F0000
FC3F0000
300C0000
00000000
00000000
00000000
0FFFFC00
1FFFFC00
0FFFFC00
00000000
00000000
00000000
003E0F80
003F1FC0
003F1F80
00000000
00000000
00000000
00000000
003F1F80
003F1FC0
003E0F80
00000000
00000000
00000000
003F0F80
003F1FC0
003F1F80
00000000
00000000
00000000
0000E800
0007FC00
0007FC00
0002E800
ENDCHAR
STARTCHAR uni0081
ENCODING 129
SWIDTH 500 0
DWIDTH 32 0
BBX 26 55 0 -10
BITMAP
0FF00000
1FF80000
1FF80000
00000000
00000000
00000000
00000000
FC3F0000
FC3F0000
7C3E0000
00000000
00000000
00000000
0FF00000
1FF80000
1FF80000
00000000
00000000
00000000
700C0000
FC3F0000
FC3F0000
300C0000
00000000
00000000
00000000
1FF8FC00
1FF8FC00
0FF0FC00
00000000
00000000
00000000
0003FC00
0007FC00
0007FC00
00000000
00000000
00000000
00000000
0000FC00
0000FC00
00007C00
00000000
00000000
00000000
0000FC00
0000FC00
0000FC00
00000000
00000000
00000000
00017800
0007FFC0
0007FFC0
00007800
ENDCHAR
STARTCHAR uni0082
ENCODING 130
SWIDTH 500 0
DWIDTH 32 0
BBX 26 55 0 -10
BITMAP
0FF00000
1FF80000
1FF80000
00000000
00000000
00000000
00000000
FC3F0000
FC3F0000
7C3E0000
00000000
00000000
00000000
0FF00000
1FF80000
1FF80000
00000000
00000000
00000000
700C0000
FC3F0000
FC3F0000
300C0000
00000000
00000000
00000000
0FFFFC00
1FFFFC00
0FFFFC00
00000000
00000000
00000000
003E0F80
003F1FC0
003F1F80
00000000
00000000
00000000
00000000
0000FC00
0000FC00
00007C00
00000000
00000000
00000000
0007E000
0007E000
0007E000
00000000
00000000
00000000
0007FE00
003FFFC0
003FFFC0
0007FE00
ENDCHAR
STARTCHAR uni0083
ENCODING 131
SWIDTH 500 0
DWIDTH 32 0
BBX 26 55 0 -10
BITMAP
0FF00000
1FF80000
1FF80000
00000000
00000000
00000000
00000000
FC3F0000
FC3F0000
7C3E0000
00000000
00000000
00000000
0FF00000
1FF80000
1FF80000
00000000
00000000
00000000
700C0000
FC3F0000
FC3F0000
300C0000
00000000
00000000
00000000
0FFFFF80
1FFFFFC0
0FFFFF80
00000000
00000000
00000000
00000F80
00001FC0
00001F80
00000000
00000000
00000000
00000000
0007FC00
0007FC00
0003FC00
00000000
00000000
00000000
00000F80
00001FC0
00001F80
00000000
00000000
00000000
0003C000
003FFC00
003FFC00
0003C000
ENDCHAR
STARTCHAR uni0084
ENCODING 132
SWIDTH 500 0
DWIDTH 32 0
BBX 26 55 0 -10
BITMAP
0FF00000
1FF80000
1FF80000
00000000
00000000
00000000
00000000
FC3F0000
FC3F0000
7C3E0000
00000000
00000000
00000000
0FF00000
1FF80000
1FF80000
00000000
00000000
00000000
700C0000
FC3F0000
FC3F0000
300C0000
00000000
00000000
00000000
1FF8FC00
1FF8FC00
0FF0FC00
00000000
00000000
00000000
0003FC00
0007FC00
0007FC00
00000000
00000000
00000000
00000000
003FFC00
003FFC00
001FF800
00000000
00000000
00000000
01FFFF80
03FFFFC0
01FFFF80
00000000
00000000
00000000
00007000
0000FC00
0000FC00
00003000
ENDCHAR
STARTCHAR uni0085
ENCODING 133
SWIDTH 500 0
DWIDTH 32 0
BBX 26 55 0 -10
BITMAP
0FF00000
1FF80000
1FF80000
00000000
00000000
00000000
00000000
FC3F0000
FC3F0000
7C3E0000
00000000
00000000
00000000
0FF00000
1FF80000
1FF80000
00000000
00000000
00000000
700C0000
FC3F0000
FC3F0000
300C0000
00000000
00000000
00000000
0FFFFF80
1FFFFFC0
0FFFFF80
00000000
00000000
00000000
003E0000
003F0000
003F0000
00000000
00000000
00000000
00000000
003FFC00
003FFC00
001FF800
00000000
00000000
00000000
00000F80
00001FC0
00001F80
00000000
00000000
00000000
0003C000
003FFC00
003FFC00
0003C000
ENDCHAR
STARTCHAR uni0086
ENCODING 134
SWIDTH 500 0
DWIDTH 32 0
BBX 26 55 0 -10
BITMAP
0FF00000
1FF80000
1FF80000
00000000
00000000
00000000
00000000
FC3F0000
FC3F0000
7C3E0000
00000000
00000000
00000000
0FF00000
1FF80000
1FF80000
00000000
00000000
00000000
700C0000
FC3F0000
FC3F0000
300C0000
00000000
00000000
00000000
1FF8FF80
1FF8FFC0
0FF0FF80
00000000
00000000
00000000
0007E000
0007E000
0007E000
00000000
00000000
00000000
00000000
003FFC00
003FFC00
001FF800
00000000
00000000
00000000
003F0F80
003F1FC0
003F1F80
00000000
00000000
00000000
0000E800
0007FC00
0007FC00
0002E800
ENDCHAR
STARTCHAR uni0087
ENCODING 135
SWIDTH 500 0
DWIDTH 32 0
BBX 26 55 0 -10
BITMAP
0FF00000
1FF80000
1FF80000
00000000
00000000
00000000
00000000
FC3F0000
FC3F0000
7C3E0000
00000000
00000000
00000000
0FF00000
1FF80000
1FF80000
00000000
00000000
00000000
700C0000
FC3F0000
FC3F0000
300C0000
00000000
00000000
00000000
0FFFFF80
1FFFFFC0
0FFFFF80
00000000
00000000
00000000
00000F80
00001FC0
00001F80
00000000
00000000
00000000
00000000
0000FC00
0000FC00
00007C00
00000000
00000000
00000000
0007E000
0007E000
0007E000
00000000
00000000
00000000
00018000
0007E000
0007E000
00018000
ENDCHAR
STARTCHAR uni0088
ENCODING 136
SWIDTH 500 0
DWIDTH 32 0
BBX 26 55 0 -10
BITMAP
0FF00000
1FF80000
1FF80000
00000000
00000000
00000000
00000000
FC3F0000
FC3F0000
7C3E0000
00000000
00000000
00000000
0FF00000
1FF80000
1FF80000
00000000
00000000
00000000
700C0000
FC3F0000
FC3F0000
300C0000
00000000
00000000
00000000
0FFFFC00
1FFFFC00
0FFFFC00
00000000
00000000
00000000
003E0F80
003F1FC0
003F1F80
00000000
00000000
00000000
00000000
0007FC00
0007FC00
0003FC00
00000000
00000000
00000000
003F0F80
003F1FC0
003F1F80
00000000
00000000
00000000
0000E800
0007FC00
0007FC00
0002E800
ENDCHAR
STARTCHAR uni0089
ENCODING 137
SWIDTH 500 0
DWIDTH 32 0
BBX 26 55 0 -10
BITMAP
0FF00000
1FF80000
1FF80000
00000000
00000000
00000000
00000000
FC3F0000
FC3F0000
7C3E0000
00000000
00000000
00000000
0FF00000
1FF80000
1FF80000
00000000
00000000
00000000
700C0000
FC3F0000
FC3F0000
300C0000
00000000
00000000
00000000
0FFFFC00
1FFFFC00
0FFFFC00
00000000
00000000
00000000
003E0F80
003F1FC0
003F1F80
00000000
00000000
00000000
00000000
0007FF80
0007FFC0
0003FF80
00000000
00000000
00000000
0000FC00
0000FC00
0000FC00
00000000
00000000
00000000
00070000
003FE000
003FE000
00070000
ENDCHAR
STARTCHAR uni008A
ENCODING 138
SWIDTH 500 0
DWIDTH 32 0
BBX 26 55 0 -10
BITMAP
0FF00000
1FF80000
1FF80000
00000000
00000000
00000000
00000000
FC3F0000
FC3F0000
7C3E0000
00000000
00000000
00000000
0FF00000
1FF80000
1FF80000
00000000
00000000
00000000
700C0000
FC3F0000
FC3F0000
300C0000
00000000
00000000
00000000
0FFFFC00
1FFFFC00
0FFFFC00
00000000
00000000
00000000
003E0F80
003F1FC0
003F1F80
00000000
00000000
00000000
00000000
003FFF80
003FFFC0
001FFF80
00000000
00000000
00000000
003F0F80
003F1FC0
003F1F80
00000000
00000000
00000000
000C0200
003F1FC0
003F1FC0
000C0200
ENDCHAR
STARTCHAR uni008B
ENCODING 139
SWIDTH 500 0
DWIDTH 32 0
BBX 26 55 0 -10
BITMAP
0FF00000
1FF80000
1FF80000
00000000
00000000
00000000
00000000
FC3F0000
FC3F0000
7C3E0000
00000000
00000000
00000000
0FF00000
1FF80000
1FF80000
00000000
00000000
00000000
700C0000
FC3F0000
FC3F0000
300C0000
00000000
00000000
00000000
0FFFFC00
1FFFFC00
0FFFFC00
00000000
00000000
00000000
003E0F80
003F1FC0
003F1F80
00000000
00000000
00000000
00000000
003FFC00
003FFC00
001FF800
00000000
00000000
00000000
003F0F80
003F1FC0
003F1F80
00000000
00000000
00000000
0003C000
003FFC00
003FFC00
0003C000
ENDCHAR
STARTCHAR uni008C
ENCODING 140
SWIDTH 500 0
DWIDTH 32 0
BBX 26 55 0 -10
BITMAP
0FF00000
1FF80000
1FF80000
00000000
00000000
00000000
00000000
FC3F0000
FC3F0000
7C3E0000
00000000
00000000
00000000
0FF00000
1FF80000
1FF80000
00000000
00000000
00000000
700C0000
FC3F0000
FC3F0000
300C0000
00000000
00000000
00000000
0FFFFF80
1FFFFFC0
0FFFFF80
00000000
00000000
00000000
003E0000
003F0000
003F0000
00000000
00000000
00000000
00000000
003F0000
003F0000
003E0000
00000000
00000000
00000000
003F0000
003F0000
003F0000
00000000
00000000
00000000
00017800
0007FFC0
0007FFC0
00007800
ENDCHAR
STARTCHAR uni008D
ENCODING 141
SWIDTH 500 0
DWIDTH 32 0
BBX 26 55 0 -10
BITMAP
0FF00000
1FF80000
1FF80000
00000000
00000000
00000000
00000000
FC3F0000
FC3F0000
7C3E0000
00000000
00000000
00000000
0FF00000
1FF80000
1FF80000
00000000
00000000
00000000
700C0000
FC3F0000
FC3F0000
300C0000
00000000
00000000
00000000
0FFFFC00
1FFFFC00
0FFFFC00
00000000
00000000
00000000
003E0F80
003F1FC0
003F1F80
00000000
00000000
00000000
00000000
003F1F80
003F1FC0
003E0F80
00000000
00000000
00000000
003F0F80
003F1FC0
003F1F80
00000000
00000000
00000000
0003C000
003FFC00
003FFC00
0003C000
ENDCHAR
STARTCHAR uni008E
ENCODING 142
SWIDTH 500 0
DWIDTH 32 0
BBX 26 55 0 -10
BITMAP
0FF00000
1FF80000
1FF80000
00000000
00000000
00000000
00000000
FC3F0000
FC3F0000
7C3E0000
00000000
00000000
00000000
0FF00000
1FF80000
1FF80000
00000000
00000000
00000000
700C0000
FC3F0000
FC3F0000
300C0000
00000000
00000000
00000000
0FFFFF80
1FFFFFC0
0FFFFF80
00000000
00000000
00000000
003E0000
003F0000
003F0000
00000000
00000000
00000000
00000000
003FFC00
003FFC00
001FF800
00000000
00000000
00000000
003F0000
003F0000
003F0000
00000000
00000000
00000000
0007FE00
003FFFC0
003FFFC0
0007FE00
ENDCHAR
STARTCHAR uni008F
ENCODING 143
SWIDTH 500 0
DWIDTH 32 0
BBX 26 55 0 -10
BITMAP
0FF00000
1FF80000
1FF80000
00000000
00000000
00000000
00000000
FC3F0000
FC3F0000
7C3E0000
00000000
00000000
00000000
0FF00000
1FF80000
1FF80000
00000000
00000000
00000000
700C0000
FC3F0000
FC3F0000
300C0000
00000000
00000000
00000000
0FFFFF80
1FFFFFC0
0FFFFF80
00000000
00000000
00000000
003E0000
003F0000
003F0000
00000000
00000000
00000000
00000000
003FFC00
003FFC00
001FF800
00000000
00000000
00000000
003F0000
003F0000
003F0000
00000000
00000000
00000000
000C0000
003F0000
003F0000
000C0000
ENDCHAR
STARTCHAR uni0090
ENCODING 144
SWIDTH 500 0
DWIDTH 32 0
BBX 26 55 0 -10
BITMAP
0FF00000
1FF80000
1FF80000
00000000
00000000
00000000
00000000
FC3F0000
FC3F0000
7C3E0000
00000000
00000000
00000000
0FFE0000
1FFF0000
1FFF0000
00000000
00000000
00000000
00400000
03F80000
03F80000
00500000
00000000
00000000
00000000
FF87FC00
FFC7FC00
FF87FC00
00000000
00000000
00000000
003E0F80
003F1FC0
003F1F80
00000000
00000000
00000000
00000000
003F1F80
003F1FC0
003E0F80
00000000
00000000
00000000
003F0F80
003F1FC0
003F1F80
00000000
00000000
00000000
0000E800
0007FC00
0007FC00
0002E800
ENDCHAR
STARTCHAR uni0091
ENCODING 145
SWIDTH 500 0
DWIDTH 32 0
BBX 26 55 0 -10
BITMAP
0FF00000
1FF80000
1FF80000
00000000
00000000
00000000
00000000
FC3F0000
FC3F0000
7C3E0000
00000000
00000000
00000000
0FFE0000
1FFF0000
1FFF0000
00000000
00000000
00000000
00400000
03F80000
03F80000
00500000
00000000
00000000
00000000
FF80FC00
FFC0FC00
FF80FC00
00000000
00000000
00000000
0003FC00
0007FC00
0007FC00
00000000
00000000
00000000
00000000
0000FC00
0000FC00
00007C00
00000000
00000000
00000000
0000FC00
0000FC00
0000FC00
00000000
00000000
00000000
00017800
0007FFC0
0007FFC0
00007800
ENDCHAR
STARTCHAR uni0092
ENCODING 146
SWIDTH 500 0
DWIDTH 32 0
BBX 26 55 0 -10
BITMAP
0FF00000
1FF80000
1FF80000
00000000
00000000
00000000
00000000
FC3F0000
FC3F0000
7C3E0000
00000000
00000000
00000000
0FFE0000
1FFF0000
1FFF0000
00000000
00000000
00000000
00400000
03F80000
03F80000
00500000
00000000
00000000
00000000
FF87FC00
FFC7FC00
FF87FC00
00000000
00000000
00000000
003E0F80
003F1FC0
003F1F80
00000000
00000000
00000000
00000000
0000FC00
0000FC00
00007C00
00000000
00000000
00000000
0007E000
0007E000
0007E000
00000000
00000000
00000000
0007FE00
003FFFC0
003FFFC0
0007FE00
ENDCHAR
STARTCHAR uni0093
ENCODING 147
SWIDTH 500 0
DWIDTH 32 0
BBX 26 55 0 -10
BITMAP
0FF00000
1FF80000
1FF80000
00000000
00000000
00000000
00000000
FC3F0000
FC3F0000
7C3E0000
00000000
00000000
00000000
0FFE0000
1FFF0000
1FFF0000
00000000
00000000
00000000
00400000
03F80000
03F80000
00500000
00000000
00000000
00000000
FFFFFF80
FFFFFFC0
7FFFFF80
00000000
00000000
00000000
00000F80
00001FC0
00001F80
00000000
00000000
00000000
00000000
0007FC00
0007FC00
0003FC00
00000000
00000000
00000000
00000F80
00001FC0
00001F80
00000000
00000000
00000000
0003C000
003FFC00
003FFC00
0003C000
ENDCHAR
STARTCHAR uni0094
ENCODING 148
SWIDTH 500 0
DWIDTH 32 0
BBX 26 55 0 -10
BITMAP
0FF00000
1FF80000
1FF80000
00000000
00000000
00000000
00000000
FC3F0000
FC3F0000
7C3E0000
00000000
00000000
00000000
0FFE0000
1FFF0000
1FFF0000
00000000
00000000
00000000
00400000
03F80000
03F80000
00500000
00000000
00000000
00000000
FF80FC00
FFC0FC00
FF80FC00
00000000
00000000
00000000
0003FC00
0007FC00
0007FC00
00000000
00000000
00000000
00000000
003FFC00
003FFC00
001FF800
00000000
00000000
00000000
01FFFF80
03FFFFC0
01FFFF80
00000000
00000000
00000000
00007000
0000FC00
0000FC00
00003000
ENDCHAR
STARTCHAR uni0095
ENCODING 149
SWIDTH 500 0
DWIDTH 32 0
BBX 26 55 0 -10
BITMAP
0FF00000
1FF80000
1FF80000
00000000
00000000
00000000
00000000
FC3F0000
FC3F0000
7C3E0000
00000000
00000000
00000000
0FFE0000
1FFF0000
1FFF0000
00000000
00000000
00000000
00400000
03F80000
03F80000
00500000
00000000
00000000
00000000
FFFFFF80
FFFFFFC0
7FFFFF80
00000000
00000000
00000000
003E0000
003F0000
003F0000
00000000
00000000
00000000
00000000
003FFC00
003FFC00
001FF800
00000000
00000000
00000000
00000F80
00001FC0
00001F80
00000000
00000000
00000000
0003C000
003FFC00
003FFC00
0003C000
ENDCHAR
STARTCHAR uni0096
ENCODING 150
SWIDTH 500 0
DWIDTH 32 0
BBX 26 55 0 -10
BITMAP
0FF00000
1FF80000
1FF80000
00000000
00000000
00000000
00000000
FC3F0000
FC3F0000
7C3E0000
00000000
00000000
00000000
0FFE0000
1FFF0000
1FFF0000
00000000
00000000
00000000
00400000
03F80000
03F80000
00500000
00000000
00000000
00000000
FF80FF80
FFC0FFC0
FF80FF80
00000000
00000000
00000000
0007E000
0007E000
0007E000
00000000
00000000
00000000
00000000
003FFC00
003FFC00
001FF800
00000000
00000000
00000000
003F0F80
003F1FC0
003F1F80
00000000
00000000
00000000
0000E800
0007FC00
0007FC00
0002E800
ENDCHAR
STARTCHAR uni0097
ENCODING 151
SWIDTH 500 0
DWIDTH 32 0
BBX 26 55 0 -10
BITMAP
0FF00000
1FF80000
1FF80000
00000000
00000000
00000000
00000000
FC3F0000
FC3F0000
7C3E0000
00000000
00000000
00000000
0FFE0000
1FFF0000
1FFF0000
00000000
00000000
00000000
00400000
03F80000
03F80000
00500000
00000000
00000000
00000000
FFFFFF80
FFFFFFC0
7FFFFF80
00000000
00000000
00000000
00000F80
00001FC0
00001F80
00000000
00000000
00000000
00000000
0000FC00
0000FC00
00007C00
00000000
00000000
00000000
0007E000
0007E000
0007E000
00000000
00000000
00000000
00018000
0007E000
0007E000
00018000
ENDCHAR
STARTCHAR uni0098
ENCODING 152
SWIDTH 500 0
DWIDTH 32 0
BBX 26 55 0 -10
BITMAP
0FF00000
1FF80000
1FF80000
00000000
00000000
00000000
00000000
FC3F0000
FC3F0000
7C3E0000
00000000
00000000
00000000
0FFE0000
1FFF0000
1FFF0000
00000000
00000000
00000000
00400000
03F80000
03F80000
00500000
00000000
00000000
00000000
FF87FC00
FFC7FC00
FF87FC00
00000000
00000000
00000000
003E0F80
003F1FC0
003F1F80
00000000
00000000
00000000
00000000
0007FC00
0007FC00
0003FC00
00000000
00000000
00000000
003F0F80
003F1FC0
003F1F80
00000000
00000000
00000000
0000E800
0007FC00
0007FC00
0002E800
ENDCHAR
STARTCHAR uni0099
ENCODING 153
SWIDTH 500 0
DWIDTH 32 0
BBX 26 55 0 -10
BITMAP
0FF00000
1FF80000
1FF80000
00000000
00000000
00000000
00000000
FC3F0000
FC3F0000
7C3E0000
00000000
00000000
00000000
0FFE0000
1FFF0000
1FFF0000
00000000
00000000
00000000
00400000
03F80000
03F80000
00500000
00000000
00000000
00000000
FF87FC00
FFC7FC00
FF87FC00
00000000
00000000
00000000
003E0F80
003F1FC0
003F1F80
00000000
00000000
00000000
00000000
0007FF80
0007FFC0
0003FF80
00000000
00000000
00000000
0000FC00
0000FC00
0000FC00
00000000
00000000
00000000
00070000
003FE000
003FE000
00070000
ENDCHAR
STARTCHAR uni009A
ENCODING 154
SWIDTH 500 0
DWIDTH 32 0
BBX 26 55 0 -10
BITMAP
0FF00000
1FF80000
1FF80000
00000000
00000000
00000000
00000000
FC3F0000
FC3F0000
7C3E0000
00000000
00000000
00000000
0FFE0000
1FFF0000
1FFF0000
00000000
00000000
00000000
00400000
03F80000
03F80000
00500000
00000000
00000000
00000000
FF87FC00
FFC7FC00
FF87FC00
00000000
00000000
00000000
003E0F80
003F1FC0
003F1F80
00000000
00000000
00000000
00000000
003FFF80
003FFFC0
001FFF80
00000000
00000000
00000000
003F0F80
003F1FC0
003F1F80
00000000
00000000
00000000
000C0200
003F1FC0
003F1FC0
000C0200
ENDCHAR
STARTCHAR uni009B
ENCODING 155
SWIDTH 500 0
DWIDTH 32 0
BBX 26 55 0 -10
BITMAP
0FF00000
1FF80000
1FF80000
00000000
00000000
00000000
00000000
FC3F0000
FC3F0000
7C3E0000
00000000
00000000
00000000
0FFE0000
1FFF0000
1FFF0000
00000000
00000000
00000000
00400000
03F80000
03F80000
00500000
00000000
00000000
00000000
FFFFFC00
FFFFFC00
7FFFFC00
00000000
00000000
00000000
003E0F80
003F1FC0
003F1F80
00000000
00000000
00000000
00000000
003FFC00
003FFC00
001FF800
00000000
00000000
00000000
003F0F80
003F1FC0
003F1F80
00000000
00000000
00000000
0003C000
003FFC00
003FFC00
0003C000
ENDCHAR
STARTCHAR uni009C
ENCODING 156
SWIDTH 500 0
DWIDTH 32 0
BBX 26 55 0 -10
BITMAP
0FF00000
1FF80000
1FF80000
00000000
00000000
00000000
00000000
FC3F0000
FC3F0000
7C3E0000
00000000
00000000
00000000
0FFE0000
1FFF0000
1FFF0000
00000000
00000000
00000000
00400000
03F80000
03F80000
00500000
00000000
00000000
00000000
FF87FF80
FFC7FFC0
FF87FF80
00000000
00000000
00000000
003E0000
003F0000
003F0000
00000000
00000000
00000000
00000000
003F0000
003F0000
003E0000
00000000
00000000
00000000
003F0000
003F0000
003F0000
00000000
00000000
00000000
00017800
0007FFC0
0007FFC0
00007800
ENDCHAR
STARTCHAR uni009D
ENCODING 157
SWIDTH 500 0
DWIDTH 32 0
BBX 26 55 0 -10
BITMAP
0FF00000
1FF80000
1FF80000
00000000
00000000
00000000
00000000
FC3F0000
FC3F0000
7C3E0000
00000000
00000000
00000000
0FFE0000
1FFF0000
1FFF0000
00000000
00000000
00000000
00400000
03F80000
03F80000
00500000
00000000
00000000
00000000
FFFFFC00
FFFFFC00
7FFFFC00
00000000
00000000
00000000
003E0F80
003F1FC0
003F1F80
00000000
00000000
00000000
00000000
003F1F80
003F1FC0
003E0F80
00000000
00000000
00000000
003F0F80
003F1FC0
003F1F80
00000000
00000000
00000000
0003C000
003FFC00
003FFC00
0003C000
ENDCHAR
STARTCHAR uni009E
ENCODING 158
SWIDTH 500 0
DWIDTH 32 0
BBX 26 55 0 -10
BITMAP
0FF00000
1FF80000
1FF80000
00000000
00000000
00000000
00000000
FC3F0000
FC3F0000
7C3E0000
00000000
00000000
00000000
0FFE0000
1FFF0000
1FFF0000
00000000
00000000
00000000
00400000
03F80000
03F80000
00500000
00000000
00000000
00000000
FFFFFF80
FFFFFFC0
7FFFFF80
00000000
00000000
00000000
003E0000
003F0000
003F0000
00000000
00000000
00000000
00000000
003FFC00
003FFC00
001FF800
00000000
00000000
00000000
003F0000
003F0000
003F0000
00000000
00000000
00000000
0007FE00
003FFFC0
003FFFC0
0007FE00
ENDCHAR
STARTCHAR uni009F
ENCODING 159
SWIDTH 500 0
DWIDTH 32 0
BBX 26 55 0 -10
BITMAP
0FF00000
1FF80000
1FF80000
00000000
00000000
00000000
00000000
FC3F0000
FC3F0000
7C3E0000
00000000
00000000
00000000
0FFE0000
1FFF0000
1FFF0000
00000000
00000000
00000000
00400000
03F80000
03F80000
00500000
00000000
00000000
00000000
FFFFFF80
FFFFFFC0
7FFFFF80
00000000
00000000
00000000
003E0000
003F0000
003F0000
00000000
00000000
00000000
00000000
003FFC00
003FFC00
001FF800
00000000
00000000
00000000
003F0000
003F0000
003F0000
00000000
00000000
00000000
000C0000
003F0000
003F0000
000C0000
ENDCHAR
STARTCHAR uni00A0
ENCODING 160
SWIDTH 500 0
DWIDTH 32 0
BBX 26 55 0 -10
BITMAP
0FF00000
1FF80000
1FF80000
00000000
00000000
00000000
00000000
FC3F0000
FC3F0000
7C3E0000
00000000
00000000
00000000
7FFE0000
FFFF0000
FFFF0000
00000000
00000000
00000000
700C0000
FC3F0000
FC3F0000
300C0000
00000000
00000000
00000000
FC3FFC00
FC3FFC00
FC3FFC00
00000000
00000000
00000000
003E0F80
003F1FC0
003F1F80
00000000
00000000
00000000
00000000
003F1F80
003F1FC0
003E0F80
00000000
00000000
00000000
003F0F80
003F1FC0
003F1F80
00000000
00000000
00000000
0000E800
0007FC00
0007FC00
0002E800
ENDCHAR
STARTCHAR exclamdown
ENCODING 161
SWIDTH 500 0
DWIDTH 32 0
BBX 6 42 10 3
BITMAP
F8
FC
FC
00
00
00
00
00
00
00
00
00
00
FC
FC
FC
00
00
00
30
FC
FC
30
00
00
00
FC
FC
FC
00
00
00
F8
FC
FC
00
00
00
00
FC
FC
F8
ENDCHAR
STARTCHAR cent
ENCODING 162
SWIDTH 500 0
DWIDTH 32 0
BBX 26 41 0 -3
BITMAP
003F0000
003F0000
003E0000
00000000
00000000
00000000
0FFFF800
1FFFFC00
0FFFFC00
00000000
00000000
00000000
700C0200
FC3F1FC0
FC3F1FC0
300C0200
00000000
00000000
00000000
FC3F0000
FC3F0000
FC3F0000
00000000
00000000
00000000
7C3E0F80
FC3F1FC0
FC3F1F80
00000000
00000000
00000000
00000000
1FFFFC00
1FFFFC00
07FFF800
00000000
00000000
00000000
003F0000
003F0000
003F0000
ENDCHAR
STARTCHAR sterling
ENCODING 163
SWIDTH 500 0
DWIDTH 32 0
BBX 26 48 0 -3
BITMAP
001FF800
003FFC00
003FFC00
00000000
00000000
00000000
00000000
03F81F80
03F81FC0
01F00F80
00000000
00000000
00000000
01F00000
03F80000
01F80000
00000000
00000000
00000000
11FE0000
FFFFE000
FFFFE000
07F00000
00000000
00000000
00000000
01F80000
03F80000
01F00000
00000000
00000000
00000000
0FFFC000
1FFFE000
1FFFE000
00000000
00000000
00000000
00000000
FFF8FF80
FFF8FFC0
7FF07F80
00000000
00000000
00000000
0F800000
1FC00000
1F800000
ENDCHAR
STARTCHAR currency
ENCODING 164
SWIDTH 500 0
DWIDTH 32 0
BBX 26 55 0 -10
BITMAP
0FF00000
1FF80000
1FF80000
00000000
00000000
00000000
00000000
FC3F0000
FC3F0000
7C3E0000
00000000
00000000
00000000
7FFE0000
FFFF0000
FFFF0000
00000000
00000000
00000000
700C0000
FC3F0000
FC3F0000
300C0000
00000000
00000000
00000000
FC3FFC00
FC3FFC00
FC3FFC00
00000000
00000000
00000000
0003FC00
0007FC00
0007FC00
00000000
00000000
00000000
00000000
003FFC00
003FFC00
001FF800
00000000
00000000
00000000
01FFFF80
03FFFFC0
01FFFF80
00000000
00000000
00000000
00007000
0000FC00
0000FC00
00003000
ENDCHAR
STARTCHAR yen
ENCODING 165
SWIDTH 500 0
DWIDTH 32 0
BBX 26 42 0 3
BITMAP
7C000F80
FC001FC0
FC001F80
00000000
00000000
00000000
00000000
1F80FC00
1FC0FC00
0F807C00
00000000
00000000
00000000
01FFE000
03FFE000
01FFE000
00000000
00000000
00000000
000C0000
003F0000
003F0000
000C0000
00000000
00000000
00000000
FFFFFF80
FFFFFFC0
7FFFFF80
00000000
00000000
00000000
003E0000
003F0000
003F0000
00000000
00000000
00000000
00000000
003F0000
003F0000
003E0000
ENDCHAR
STARTCHAR brokenbar
ENCODING 166
SWIDTH 500 0
DWIDTH 32 0
BBX 26 55 0 -10
BITMAP
0FF00000
1FF80000
1FF80000
00000000
00000000
00000000
00000000
FC3F0000
FC3F0000
7C3E0000
00000000
00000000
00000000
7FFE0000
FFFF0000
FFFF0000
00000000
00000000
00000000
700C0000
FC3F0000
FC3F0000
300C0000
00000000
00000000
00000000
FC3FFF80
FC3FFFC0
FC3FFF80
00000000
00000000
00000000
0007E000
0007E000
0007E000
00000000
00000000
00000000
00000000
003FFC00
003FFC00
001FF800
00000000
00000000
00000000
003F0F80
003F1FC0
003F1F80
00000000
00000000
00000000
0000E800
0007FC00
0007FC00
0002E800
ENDCHAR
STARTCHAR section
ENCODING 167
SWIDTH 500 0
DWIDTH 32 0
BBX 19 42 3 3
BITMAP
0FFFC0
1FFFE0
0FFFE0
000000
000000
000000
000000
FC0000
FE0000
7C0000
000000
000000
000000
0FFF00
1FFF00
0FFF00
000000
000000
000000
100380
FE07E0
FE07E0
100180
000000
000000
000000
0FFF00
1FFF00
0FFF00
000000
000000
000000
0003E0
0007E0
0007E0
000000
000000
000000
000000
FFFF00
FFFF00
7FFE00
ENDCHAR
STARTCHAR dieresis
ENCODING 168
SWIDTH 500 0
DWIDTH 32 0
BBX 26 28 0 10
BITMAP
FC001F80
FC001FC0
7C000F80
00000000
00000000
00000000
0FFFF800
1FFFFC00
0FFFFC00
00000000
00000000
00000000
02007000
1FC0FC00
1FC0FC00
02003000
00000000
00000000
00000000
0FFFFC00
1FFFFC00
0FFFFC00
00000000
00000000
00000000
7C000F80
FC001FC0
FC001F80
ENDCHAR
STARTCHAR copyright
ENCODING 169
SWIDTH 500 0
DWIDTH 32 0
BBX 26 48 0 -3
BITMAP
01FFC000
03FFE000
01FFE000
00000000
00000000
00000000
00000000
1F80FC00
1FC0FC00
0F807C00
00000000
00000000
00000000
FC3FFF80
FC3FFFC0
FC3FFF80
00000000
00000000
00000000
0F200200
FFF81FC0
FFF81FC0
0F200200
00000000
00000000
00000000
FFF81F80
FFF81FC0
7FF00F80
00000000
00000000
00000000
7C1FFF00
FC3FFFC0
FC3FFFC0
00000000
00000000
00000000
00000000
1F80FC00
1FC0FC00
0F807C00
00000000
00000000
00000000
01FFE000
03FFE000
01FFE000
ENDCHAR
STARTCHAR ordfeminine
ENCODING 170
SWIDTH 500 0
DWIDTH 32 0
BBX 26 42 0 3
BITMAP
07FFF000
1FFFFC00
1FFFFC00
00000000
00000000
00000000
00000000
00001F80
00001FC0
00000F80
00000000
00000000
00000000
0FFFFF80
1FFFFFC0
0FFFFF80
00000000
00000000
00000000
70001C00
FC00FFC0
FC00FFC0
30001C00
00000000
00000000
00000000
0FFFFF80
1FFFFFC0
0FFFFF80
00000000
00000000
00000000
00000000
00000000
00000000
00000000
00000000
00000000
00000000
FFFFFF80
FFFFFFC0
1FFFFC00
ENDCHAR
STARTCHAR guillemotleft
ENCODING 171
SWIDTH 500 0
DWIDTH 32 0
BBX 26 42 0 3
BITMAP
003E0F80
003F1FC0
003F1F80
00000000
00000000
00000000
00000000
03F8FC00
03F8FC00
01F07C00
00000000
00000000
00000000
0F87E000
1FC7E000
1F87E000
00000000
00000000
00000000
700C0000
FC3F0000
FC3F0000
300C0000
00000000
00000000
00000000
1F87E000
1FC7E000
0F87E000
00000000
00000000
00000000
01F07C00
03F8FC00
01F8FC00
00000000
00000000
00000000
00000000
003F1F80
003F1FC0
003E0F80
ENDCHAR
STARTCHAR logicalnot
ENCODING 172
SWIDTH 500 0
DWIDTH 32 0
BBX 26 55 0 -10
BITMAP
0FF00000
1FF80000
1FF80000
00000000
00000000
00000000
00000000
FC3F0000
FC3F0000
7C3E0000
00000000
00000000
00000000
7FFE0000
FFFF0000
FFFF0000
00000000
00000000
00000000
700C0000
FC3F0000
FC3F0000
300C0000
00000000
00000000
00000000
FC3FFF80
FC3FFFC0
FC3FFF80
00000000
00000000
00000000
003E0000
003F0000
003F0000
00000000
00000000
00000000
00000000
003F0000
003F0000
003E0000
00000000
00000000
00000000
003F0000
003F0000
003F0000
00000000
00000000
00000000
00017800
0007FFC0
0007FFC0
00007800
ENDCHAR
STARTCHAR uni00AD
ENCODING 173
SWIDTH 500 0
DWIDTH 32 0
BBX 26 55 0 -10
BITMAP
0FF00000
1FF80000
1FF80000
00000000
00000000
00000000
00000000
FC3F0000
FC3F0000
7C3E0000
00000000
00000000
00000000
7FFE0000
FFFF0000
FFFF0000
00000000
00000000
00000000
700C0000
FC3F0000
FC3F0000
300C0000
00000000
00000000
00000000
FC3FFC00
FC3FFC00
FC3FFC00
00000000
00000000
00000000
003E0F80
003F1FC0
003F1F80
00000000
00000000
00000000
00000000
003F1F80
003F1FC0
003E0F80
00000000
00000000
00000000
003F0F80
003F1FC0
003F1F80
00000000
00000000
00000000
0003C000
003FFC00
003FFC00
0003C000
ENDCHAR
STARTCHAR registered
ENCODING 174
SWIDTH 500 0
DWIDTH 32 0
BBX 26 55 0 -10
BITMAP
0FF00000
1FF80000
1FF80000
00000000
00000000
00000000
00000000
FC3F0000
FC3F0000
7C3E0000
00000000
00000000
00000000
7FFE0000
FFFF0000
FFFF0000
00000000
00000000
00000000
700C0000
FC3F0000
FC3F0000
300C0000
00000000
00000000
00000000
FC3FFF80
FC3FFFC0
FC3FFF80
00000000
00000000
00000000
003E0000
003F0000
003F0000
00000000
00000000
00000000
00000000
003FFC00
003FFC00
001FF800
00000000
00000000
00000000
003F0000
003F0000
003F0000
00000000
00000000
00000000
0007FE00
003FFFC0
003FFFC0
0007FE00
ENDCHAR
STARTCHAR macron
ENCODING 175
SWIDTH 500 0
DWIDTH 32 0
BBX 26 55 0 -10
BITMAP
0FF00000
1FF80000
1FF80000
00000000
00000000
00000000
00000000
FC3F0000
FC3F0000
7C3E0000
00000000
00000000
00000000
7FFE0000
FFFF0000
FFFF0000
00000000
00000000
00000000
700C0000
FC3F0000
FC3F0000
300C0000
00000000
00000000
00000000
FC3FFF80
FC3FFFC0
FC3FFF80
00000000
00000000
00000000
003E0000
003F0000
003F0000
00000000
00000000
00000000
00000000
003FFC00
003FFC00
001FF800
00000000
00000000
00000000
003F0000
003F0000
003F0000
00000000
00000000
00000000
000C0000
003F0000
003F0000
000C0000
ENDCHAR
STARTCHAR degree
ENCODING 176
SWIDTH 500 0
DWIDTH 32 0
BBX 19 16 3 29
BITMAP
0FFE00
1FFF00
0FFF00
000000
000000
000000
000000
FC07E0
FE07E0
7C03E0
000000
000000
000000
0FFF00
1FFF00
0FFF00
ENDCHAR
STARTCHAR plusminus
ENCODING 177
SWIDTH 500 0
DWIDTH 32 0
BBX 26 35 0 3
BITMAP
003F0000
003F0000
003E0000
00000000
00000000
00000000
003F0000
003F0000
003F0000
00000000
00000000
00000000
003FF000
FFFFFFC0
FFFFFFC0
01FF0000
00000000
00000000
00000000
003F0000
003F0000
003F0000
00000000
00000000
00000000
003E0000
003F0000
003F0000
00000000
00000000
00000000
00000000
FFFFFF80
FFFFFFC0
1FFFFC00
ENDCHAR
STARTCHAR uni00B2
ENCODING 178
SWIDTH 500 0
DWIDTH 32 0
BBX 19 29 3 22
BITMAP
0FFF00
1FFF00
0FFF00
000000
000000
000000
7C03E0
FE07E0
FC07E0
000000
000000
000000
000000
01FF00
01FF00
01FE00
000000
000000
000000
0F8000
1FC000
0FC000
000000
000000
000000
01FC00
FFFFE0
FFFFE0
03F000
ENDCHAR
STARTCHAR uni00B3
ENCODING 179
SWIDTH 500 0
DWIDTH 32 0
BBX 19 29 3 22
BITMAP
7FFFE0
FFFFE0
7FFFE0
000000
000000
000000
0003E0
0007E0
0007E0
000000
000000
000000
000000
01FF00
01FF00
01FE00
000000
000000
000000
0007E0
0007E0
0007E0
000000
000000
000000
1FF800
FFFF00
FFFF00
3FF800
ENDCHAR
STARTCHAR acute
ENCODING 180
SWIDTH 500 0
DWIDTH 32 0
BBX 26 55 0 -10
BITMAP
7FF00000
FFF80000
FFF80000
00000000
00000000
00000000
00000000
FC3F0000
FC3F0000
7C3E0000
00000000
00000000
00000000
7FF00000
FFF80000
FFF80000
00000000
00000000
00000000
700C0000
FC3F0000
FC3F0000
300C0000
00000000
00000000
00000000
FFF8FC00
FFF8FC00
7FF0FC00
00000000
00000000
00000000
0003FC00
0007FC00
0007FC00
00000000
00000000
00000000
00000000
003FFC00
003FFC00
001FF800
00000000
00000000
00000000
01FFFF80
03FFFFC0
01FFFF80
00000000
00000000
00000000
00007000
0000FC00
0000FC00
00003000
ENDCHAR
STARTCHAR uni00B5
ENCODING 181
SWIDTH 500 0
DWIDTH 32 0
BBX 26 42 0 -10
BITMAP
0F800F80
1FC01FC0
1F801F80
00000000
00000000
00000000
02000200
1FC01FC0
1FC01FC0
02000200
00000000
00000000
00000000
1F801F80
1FC01FC0
0F800F80
00000000
00000000
00000000
0FF07F80
1FF8FFC0
1FF8FF80
00000000
00000000
00000000
00000000
1FFFFF80
1FFFFFC0
03FFFE00
00000000
00000000
00000000
0F800000
1FC00000
1F800000
00000000
00000000
00000000
70000000
FC000000
FC000000
30000000
ENDCHAR
STARTCHAR paragraph
ENCODING 182
SWIDTH 500 0
DWIDTH 32 0
BBX 26 42 0 3
BITMAP
03FFFE00
1FFFFFC0
1FFFFF80
00000000
00000000
00000000
00000000
FF87FF80
FFC7FFC0
7F83FF80
00000000
00000000
00000000
7F87FF80
FFC7FFC0
FF87FF80
00000000
00000000
00000000
010FE800
1FFFFFC0
1FFFFFC0
017F8400
00000000
00000000
00000000
0007FF80
0007FFC0
0007FF80
00000000
00000000
00000000
0003FF80
0007FFC0
0007FF80
00000000
00000000
00000000
00000000
0007FF80
0007FFC0
0003FF80
ENDCHAR
STARTCHAR periodcentered
ENCODING 183
SWIDTH 500 0
DWIDTH 32 0
BBX 10 10 6 22
BITMAP
7F80
FFC0
7FC0
0000
0000
0000
0E00
FFC0
FFC0
0E00
ENDCHAR
STARTCHAR cedilla
ENCODING 184
SWIDTH 500 0
DWIDTH 32 0
BBX 26 55 0 -10
BITMAP
7FF00000
FFF80000
FFF80000
00000000
00000000
00000000
00000000
FC3F0000
FC3F0000
7C3E0000
00000000
00000000
00000000
7FF00000
FFF80000
FFF80000
00000000
00000000
00000000
700C0000
FC3F0000
FC3F0000
300C0000
00000000
00000000
00000000
FFFFFC00
FFFFFC00
7FFFFC00
00000000
00000000
00000000
003E0F80
003F1FC0
003F1F80
00000000
00000000
00000000
00000000
0007FC00
0007FC00
0003FC00
00000000
00000000
00000000
003F0F80
003F1FC0
003F1F80
00000000
00000000
00000000
0000E800
0007FC00
0007FC00
0002E800
ENDCHAR
STARTCHAR uni00B9
ENCODING 185
SWIDTH 500 0
DWIDTH 32 0
BBX 13 29 6 22
BITMAP
0FC0
0FC0
0FC0
0000
0000
0000
7F80
FFC0
7FC0
0000
0000
0000
0000
0FC0
0FC0
0F80
0000
0000
0000
0FC0
0FC0
0FC0
0000
0000
0000
0780
FFF8
FFF8
2780
ENDCHAR
STARTCHAR ordmasculine
ENCODING 186
SWIDTH 500 0
DWIDTH 32 0
BBX 26 42 0 3
BITMAP
07FFF000
1FFFFC00
1FFFFC00
00000000
00000000
00000000
00000000
FC001F80
FC001FC0
7C000F80
00000000
00000000
00000000
FC000F80
FC001FC0
FC001F80
00000000
00000000
00000000
70000200
FC001FC0
FC001FC0
30000200
00000000
00000000
00000000
0FFFFC00
1FFFFC00
0FFFFC00
00000000
00000000
00000000
00000000
00000000
00000000
00000000
00000000
00000000
00000000
FFFFFF80
FFFFFFC0
1FFFFC00
ENDCHAR
STARTCHAR guillemotright
ENCODING 187
SWIDTH 500 0
DWIDTH 32 0
BBX 26 42 0 3
BITMAP
7C3E0000
FC3F0000
FC3F0000
00000000
00000000
00000000
00000000
1F87E000
1FC7E000
0F87E000
00000000
00000000
00000000
01F0FC00
03F8FC00
01F8FC00
00000000
00000000
00000000
000C0200
003F1FC0
003F1FC0
000C0200
00000000
00000000
00000000
01F8FC00
03F8FC00
01F0FC00
00000000
00000000
00000000
0F87E000
1FC7E000
1F87E000
00000000
00000000
00000000
00000000
FC3F0000
FC3F0000
7C3E0000
ENDCHAR
STARTCHAR onequarter
ENCODING 188
SWIDTH 500 0
DWIDTH 32 0
BBX 26 55 0 -10
BITMAP
0F800000
1FC00000
1F800000
00000000
00000000
00000000
00000000
FF80FC00
FFC0FC00
7F807C00
00000000
00000000
00000000
0F87E000
1FC7E000
1F87E000
00000000
00000000
00000000
00F40000
1FFF0000
1FFF0000
00F40000
00000000
00000000
00000000
01F8FC00
03F8FC00
01F0FC00
00000000
00000000
00000000
0F83FC00
1FC7FC00
1F87FC00
00000000
00000000
00000000
00000000
FC3FFC00
FC3FFC00
7C1FF800
00000000
00000000
00000000
01FFFF80
03FFFFC0
01FFFF80
00000000
00000000
00000000
00007000
0000FC00
0000FC00
00003000
ENDCHAR
STARTCHAR onehalf
ENCODING 189
SWIDTH 500 0
DWIDTH 32 0
BBX 26 55 0 -10
BITMAP
0F800000
1FC00000
1F800000
00000000
00000000
00000000
00000000
FF80FC00
FFC0FC00
7F807C00
00000000
00000000
00000000
0F87E000
1FC7E000
1F87E000
00000000
00000000
00000000
00F40000
1FFF0000
1FFF0000
00F40000
00000000
00000000
00000000
01FFFC00
03FFFC00
01FFFC00
00000000
00000000
00000000
0FFE0F80
1FFF1FC0
1FFF1F80
00000000
00000000
00000000
00000000
FC00FC00
FC00FC00
7C007C00
00000000
00000000
00000000
0007E000
0007E000
0007E000
00000000
00000000
00000000
0007FE00
003FFFC0
003FFFC0
0007FE00
ENDCHAR
STARTCHAR threequarters
ENCODING 190
SWIDTH 500 0
DWIDTH 32 0
BBX 26 55 0 -10
BITMAP
7FF00000
FFF80000
FFF80000
00000000
00000000
00000000
00000000
FC3F0000
FC3F0000
7C3E0000
00000000
00000000
00000000
7FF00000
FFF80000
FFF80000
00000000
00000000
00000000
700C0000
FC3F0000
FC3F0000
300C0000
00000000
00000000
00000000
FFFFFF80
FFFFFFC0
7FFFFF80
00000000
00000000
00000000
003E0000
003F0000
003F0000
00000000
00000000
00000000
00000000
003FFC00
003FFC00
001FF800
00000000
00000000
00000000
003F0000
003F0000
003F0000
00000000
00000000
00000000
0007FE00
003FFFC0
003FFFC0
0007FE00
ENDCHAR
STARTCHAR questiondown
ENCODING 191
SWIDTH 500 0
DWIDTH 32 0
BBX 26 42 0 3
BITMAP
003E0000
003F0000
003F0000
00000000
00000000
00000000
00000000
00000000
00000000
00000000
00000000
00000000
00000000
003F0000
003F0000
003F0000
00000000
00000000
00000000
000C0000
003F0000
003F0000
000C0000
00000000
00000000
00000000
1FF80000
1FF80000
0FF00000
00000000
00000000
00000000
7C000F80
FC001FC0
FC001F80
00000000
00000000
00000000
00000000
1FFFFC00
1FFFFC00
07FFF800
ENDCHAR
STARTCHAR Agrave
ENCODING 192
SWIDTH 500 0
DWIDTH 32 0
BBX 26 48 0 3
BITMAP
01FF0000
03FF0000
01FF0000
00000000
00000000
00000000
0003FC00
0007FC00
0007FC00
00000000
00000000
00000000
00000000
003F0000
003F0000
003E0000
00000000
00000000
00000000
01FFE000
03FFE000
01FFE000
00000000
00000000
00000000
02007000
1FC0FC00
1FC0FC00
02003000
00000000
00000000
00000000
FFFFFF80
FFFFFFC0
7FFFFF80
00000000
00000000
00000000
7C000F80
FC001FC0
FC001F80
00000000
00000000
00000000
00000000
FC001F80
FC001FC0
7C000F80
ENDCHAR
STARTCHAR Aacute
ENCODING 193
SWIDTH 500 0
DWIDTH 32 0
BBX 26 48 0 3
BITMAP
003FE000
003FE000
003FE000
00000000
00000000
00000000
0FF00000
1FF80000
1FF80000
00000000
00000000
00000000
00000000
003F0000
003F0000
003E0000
00000000
00000000
00000000
01FFE000
03FFE000
01FFE000
00000000
00000000
00000000
02007000
1FC0FC00
1FC0FC00
02003000
00000000
00000000
00000000
FFFFFF80
FFFFFFC0
7FFFFF80
00000000
00000000
00000000
7C000F80
FC001FC0
FC001F80
00000000
00000000
00000000
00000000
FC001F80
FC001FC0
7C000F80
ENDCHAR
STARTCHAR Acircumflex
ENCODING 194
SWIDTH 500 0
DWIDTH 32 0
BBX 26 48 0 3
BITMAP
01FFE000
03FFE000
01FFE000
00000000
00000000
00000000
0F807C00
1FC0FC00
1F80FC00
00000000
00000000
00000000
00000000
003F0000
003F0000
003E0000
00000000
00000000
00000000
01FFE000
03FFE000
01FFE000
00000000
00000000
00000000
02007000
1FC0FC00
1FC0FC00
02003000
00000000
00000000
00000000
FFFFFF80
FFFFFFC0
7FFFFF80
00000000
00000000
00000000
7C000F80
FC001FC0
FC001F80
00000000
00000000
00000000
00000000
FC001F80
FC001FC0
7C000F80
ENDCHAR
STARTCHAR Atilde
ENCODING 195
SWIDTH 500 0
DWIDTH 32 0
BBX 26 48 0 3
BITMAP
01FF1F80
03FF1FC0
01FF0F80
00000000
00000000
00000000
0F83FC00
1FC7FC00
1F87FC00
00000000
00000000
00000000
00000000
003F0000
003F0000
003E0000
00000000
00000000
00000000
01FFE000
03FFE000
01FFE000
00000000
00000000
00000000
02007000
1FC0FC00
1FC0FC00
02003000
00000000
00000000
00000000
FFFFFF80
FFFFFFC0
7FFFFF80
00000000
00000000
00000000
7C000F80
FC001FC0
FC001F80
00000000
00000000
00000000
00000000
FC001F80
FC001FC0
7C000F80
ENDCHAR
STARTCHAR Adieresis
ENCODING 196
SWIDTH 500 0
DWIDTH 32 0
BBX 26 48 0 3
BITMAP
1F80FC00
1FC0FC00
0F80FC00
00000000
00000000
00000000
00000000
00000000
00000000
00000000
00000000
00000000
00000000
003F0000
003F0000
003E0000
00000000
00000000
00000000
01FFE000
03FFE000
01FFE000
00000000
00000000
00000000
02007000
1FC0FC00
1FC0FC00
02003000
00000000
00000000
00000000
FFFFFF80
FFFFFFC0
7FFFFF80
00000000
00000000
00000000
7C000F80
FC001FC0
FC001F80
00000000
00000000
00000000
00000000
FC001F80
FC001FC0
7C000F80
ENDCHAR
STARTCHAR Aring
ENCODING 197
SWIDTH 500 0
DWIDTH 32 0
BBX 26 48 0 3
BITMAP
01FFE000
03FFE000
01FFE000
00000000
00000000
00000000
0F807C00
1FC0FC00
1F80FC00
00000000
00000000
00000000
00000000
01FFE000
03FFE000
01FFC000
00000000
00000000
00000000
01FFE000
03FFE000
01FFE000
00000000
00000000
00000000
02007000
1FC0FC00
1FC0FC00
02003000
00000000
00000000
00000000
FFFFFF80
FFFFFFC0
7FFFFF80
00000000
00000000
00000000
7C000F80
FC001FC0
FC001F80
00000000
00000000
00000000
00000000
FC001F80
FC001FC0
7C000F80
ENDCHAR
STARTCHAR AE
ENCODING 198
SWIDTH 500 0
DWIDTH 32 0
BBX 26 42 0 3
BITMAP
01FFFE00
03FFFFC0
01FFFF80
00000000
00000000
00000000
00000000
1FFF0000
1FFF0000
0FFE0000
00000000
00000000
00000000
FC3F0000
FC3F0000
FC3F0000
00000000
00000000
00000000
7003C000
FC3FFC00
FC3FFC00
3003C000
00000000
00000000
00000000
FFFF0000
FFFF0000
7FFE0000
00000000
00000000
00000000
7C3E0000
FC3F0000
FC3F0000
00000000
00000000
00000000
00000000
FC3FFF80
FC3FFFC0
7C1FFF80
ENDCHAR
STARTCHAR Ccedilla
ENCODING 199
SWIDTH 500 0
DWIDTH 32 0
BBX 26 55 0 -10
BITMAP
01FFF800
03FFFC00
01FFFC00
00000000
00000000
00000000
00000000
1F801F80
1FC01FC0
0F800F80
00000000
00000000
00000000
FC000000
FC000000
FC000000
00000000
00000000
00000000
70000000
FC000000
FC000000
30000000
00000000
00000000
00000000
FC000000
FC000000
FC000000
00000000
00000000
00000000
0F800F80
1FC01FC0
1F801F80
00000000
00000000
00000000
00000000
03FFFC00
03FFFC00
00FFF800
00000000
00000000
00000000
0007E000
0007E000
0007E000
00000000
00000000
00000000
001E0000
03FFE000
03FFE000
009E0000
ENDCHAR
STARTCHAR Egrave
ENCODING 200
SWIDTH 500 0
DWIDTH 32 0
BBX 26 48 0 3
BITMAP
1FF80000
1FF80000
0FF00000
00000000
00000000
00000000
003FC000
003FE000
003FE000
00000000
00000000
00000000
00000000
FFFFFF80
FFFFFFC0
1FFFFC00
00000000
00000000
00000000
FC000000
FC000000
FC000000
00000000
00000000
00000000
11FE0000
FFFFE000
FFFFE000
07F00000
00000000
00000000
00000000
FC000000
FC000000
FC000000
00000000
00000000
00000000
7C000000
FC000000
FC000000
00000000
00000000
00000000
00000000
FFFFFF80
FFFFFFC0
1FFFFC00
ENDCHAR
STARTCHAR Eacute
ENCODING 201
SWIDTH 500 0
DWIDTH 32 0
BBX 26 48 0 3
BITMAP
0007FC00
0007FC00
0007FC00
00000000
00000000
00000000
01FE0000
03FF0000
01FF0000
00000000
00000000
00000000
00000000
FFFFFF80
FFFFFFC0
1FFFFC00
00000000
00000000
00000000
FC000000
FC000000
FC000000
00000000
00000000
00000000
11FE0000
FFFFE000
FFFFE000
07F00000
00000000
00000000
00000000
FC000000
FC000000
FC000000
00000000
00000000
00000000
7C000000
FC000000
FC000000
00000000
00000000
00000000
00000000
FFFFFF80
FFFFFFC0
1FFFFC00
ENDCHAR
STARTCHAR Ecircumflex
ENCODING 202
SWIDTH 500 0
DWIDTH 32 0
BBX 26 48 0 3
BITMAP
01FFE000
03FFE000
01FFE000
00000000
00000000
00000000
0F807C00
1FC0FC00
1F80FC00
00000000
00000000
00000000
00000000
FFFFFF80
FFFFFFC0
1FFFFC00
00000000
00000000
00000000
FC000000
FC000000
FC000000
00000000
00000000
00000000
1FFC0000
FFFF0000
FFFF0000
1FF80000
00000000
00000000
00000000
FC000000
FC000000
FC000000
00000000
00000000
00000000
7C000000
FC000000
FC000000
00000000
00000000
00000000
00000000
FFFFFF80
FFFFFFC0
1FFFFC00
ENDCHAR
STARTCHAR Edieresis
ENCODING 203
SWIDTH 500 0
DWIDTH 32 0
BBX 26 48 0 3
BITMAP
1F80FC00
1FC0FC00
0F80FC00
00000000
00000000
00000000
00000000
00000000
00000000
00000000
00000000
00000000
00000000
FFFFFF80
FFFFFFC0
1FFFFC00
00000000
00000000
00000000
FC000000
FC000000
FC000000
00000000
00000000
00000000
11FE0000
FFFFE000
FFFFE000
07F00000
00000000
00000000
00000000
FC000000
FC000000
FC000000
00000000
00000000
00000000
7C000000
FC000000
FC000000
00000000
00000000
00000000
00000000
FFFFFF80
FFFFFFC0
1FFFFC00
ENDCHAR
STARTCHAR Igrave
ENCODING 204
SWIDTH 500 0
DWIDTH 32 0
BBX 19 48 3 3
BITMAP
0FF800
1FF800
0FF800
000000
000000
000000
001FE0
003FE0
003FE0
000000
000000
000000
000000
FFFFE0
FFFFE0
3FFFC0
000000
000000
000000
01F800
01F800
01F800
000000
000000
000000
006000
01F800
01F800
006000
000000
000000
000000
01F800
01F800
01F800
000000
000000
000000
01F000
01F800
01F800
000000
000000
000000
000000
FFFFE0
FFFFE0
3FFFC0
ENDCHAR
STARTCHAR Iacute
ENCODING 205
SWIDTH 500 0
DWIDTH 32 0
BBX 19 48 3 3
BITMAP
01FF00
01FF00
01FF00
000000
000000
000000
7F8000
FFC000
FFC000
000000
000000
000000
000000
FFFFE0
FFFFE0
3FFFC0
000000
000000
000000
01F800
01F800
01F800
000000
000000
000000
006000
01F800
01F800
006000
000000
000000
000000
01F800
01F800
01F800
000000
000000
000000
01F000
01F800
01F800
000000
000000
000000
000000
FFFFE0
FFFFE0
3FFFC0
ENDCHAR
STARTCHAR Icircumflex
ENCODING 206
SWIDTH 500 0
DWIDTH 32 0
BBX 19 48 3 3
BITMAP
0FFF00
1FFF00
0FFF00
000000
000000
000000
7C03E0
FE07E0
FC07E0
000000
000000
000000
000000
FFFFE0
FFFFE0
3FFFC0
000000
000000
000000
01F800
01F800
01F800
000000
000000
000000
006000
01F800
01F800
006000
000000
000000
000000
01F800
01F800
01F800
000000
000000
000000
01F000
01F800
01F800
000000
000000
000000
000000
FFFFE0
FFFFE0
3FFFC0
ENDCHAR
STARTCHAR Idieresis
ENCODING 207
SWIDTH 500 0
DWIDTH 32 0
BBX 19 48 3 3
BITMAP
FC07E0
FE07E0
7C07E0
000000
000000
000000
000000
000000
000000
000000
000000
000000
000000
FFFFE0
FFFFE0
3FFFC0
000000
000000
000000
01F800
01F800
01F800
000000
000000
000000
006000
01F800
01F800
006000
000000
000000
000000
01F800
01F800
01F800
000000
000000
000000
01F000
01F800
01F800
000000
000000
000000
000000
FFFFE0
FFFFE0
3FFFC0
ENDCHAR
STARTCHAR Eth
ENCODING 208
SWIDTH 500 0
DWIDTH 32 0
BBX 26 55 0 -10
BITMAP
7FF00000
FFF80000
FFF80000
00000000
00000000
00000000
00000000
FC3F0000
FC3F0000
7C3E0000
00000000
00000000
00000000
FC3F0000
FC3F0000
FC3F0000
00000000
00000000
00000000
700C0000
FC3F0000
FC3F0000
300C0000
00000000
00000000
00000000
FFFFFC00
FFFFFC00
7FFFFC00
00000000
00000000
00000000
003E0F80
003F1FC0
003F1F80
00000000
00000000
00000000
00000000
003F1F80
003F1FC0
003E0F80
00000000
00000000
00000000
003F0F80
003F1FC0
003F1F80
00000000
00000000
00000000
0000E800
0007FC00
0007FC00
0002E800
ENDCHAR
STARTCHAR Ntilde
ENCODING 209
SWIDTH 500 0
DWIDTH 32 0
BBX 26 48 0 3
BITMAP
01FF1F80
03FF1FC0
01FF0F80
00000000
00000000
00000000
0F83FC00
1FC7FC00
1F87FC00
00000000
00000000
00000000
00000000
FF801F80
FFC01FC0
7F800F80
00000000
00000000
00000000
7FF00F80
FFF81FC0
FFF81F80
00000000
00000000
00000000
700C0200
FC3F1FC0
FC3F1FC0
300C0200
00000000
00000000
00000000
FC07FF80
FC07FFC0
FC07FF80
00000000
00000000
00000000
7C007F80
FC00FFC0
FC00FF80
00000000
00000000
00000000
00000000
FC001F80
FC001FC0
7C000F80
ENDCHAR
STARTCHAR Ograve
ENCODING 210
SWIDTH 500 0
DWIDTH 32 0
BBX 26 48 0 3
BITMAP
01FF0000
03FF0000
01FF0000
00000000
00000000
00000000
0003FC00
0007FC00
0007FC00
00000000
00000000
00000000
00000000
1FFFFC00
1FFFFC00
07FFF800
00000000
00000000
00000000
FC000F80
FC001FC0
FC001F80
00000000
00000000
00000000
70000200
FC001FC0
FC001FC0
30000200
00000000
00000000
00000000
FC001F80
FC001FC0
FC000F80
00000000
00000000
00000000
7C000F80
FC001FC0
FC001F80
00000000
00000000
00000000
00000000
1FFFFC00
1FFFFC00
07FFF800
ENDCHAR
STARTCHAR Oacute
ENCODING 211
SWIDTH 500 0
DWIDTH 32 0
BBX 26 48 0 3
BITMAP
003FE000
003FE000
003FE000
00000000
00000000
00000000
0FF00000
1FF80000
1FF80000
00000000
00000000
00000000
00000000
1FFFFC00
1FFFFC00
07FFF800
00000000
00000000
00000000
FC000F80
FC001FC0
FC001F80
00000000
00000000
00000000
70000200
FC001FC0
FC001FC0
30000200
00000000
00000000
00000000
FC001F80
FC001FC0
FC000F80
00000000
00000000
00000000
7C000F80
FC001FC0
FC001F80
00000000
00000000
00000000
00000000
1FFFFC00
1FFFFC00
07FFF800
ENDCHAR
STARTCHAR Ocircumflex
ENCODING 212
SWIDTH 500 0
DWIDTH 32 0
BBX 26 48 0 3
BITMAP
01FFE000
03FFE000
01FFE000
00000000
00000000
00000000
0F807C00
1FC0FC00
1F80FC00
00000000
00000000
00000000
00000000
1FFFFC00
1FFFFC00
07FFF800
00000000
00000000
00000000
FC000F80
FC001FC0
FC001F80
00000000
00000000
00000000
70000200
FC001FC0
FC001FC0
30000200
00000000
00000000
00000000
FC001F80
FC001FC0
FC000F80
00000000
00000000
00000000
7C000F80
FC001FC0
FC001F80
00000000
00000000
00000000
00000000
1FFFFC00
1FFFFC00
07FFF800
ENDCHAR
STARTCHAR Otilde
ENCODING 213
SWIDTH 500 0
DWIDTH 32 0
BBX 26 48 0 3
BITMAP
1FF8FC00
1FF8FC00
0FF0FC00
00000000
00000000
00000000
7C3FC000
FC3FE000
FC3FE000
00000000
00000000
00000000
00000000
1FFFFC00
1FFFFC00
07FFF800
00000000
00000000
00000000
FC000F80
FC001FC0
FC001F80
00000000
00000000
00000000
70000200
FC001FC0
FC001FC0
30000200
00000000
00000000
00000000
FC001F80
FC001FC0
FC000F80
00000000
00000000
00000000
7C000F80
FC001FC0
FC001F80
00000000
00000000
00000000
00000000
1FFFFC00
1FFFFC00
07FFF800
ENDCHAR
STARTCHAR Odieresis
ENCODING 214
SWIDTH 500 0
DWIDTH 32 0
BBX 26 48 0 3
BITMAP
1F80FC00
1FC0FC00
0F80FC00
00000000
00000000
00000000
00000000
00000000
00000000
00000000
00000000
00000000
00000000
1FFFFC00
1FFFFC00
07FFF800
00000000
00000000
00000000
FC000F80
FC001FC0
FC001F80
00000000
00000000
00000000
70000200
FC001FC0
FC001FC0
30000200
00000000
00000000
00000000
FC001F80
FC001FC0
FC000F80
00000000
00000000
00000000
7C000F80
FC001FC0
FC001F80
00000000
00000000
00000000
00000000
1FFFFC00
1FFFFC00
07FFF800
ENDCHAR
STARTCHAR multiply
ENCODING 215
SWIDTH 500 0
DWIDTH 32 0
BBX 26 42 0 3
BITMAP
03FFFE00
1FFFFFC0
1FFFFF80
00000000
00000000
00000000
00000000
FC3F0000
FC3F0000
7C3E0000
00000000
00000000
00000000
FC3F0000
FC3F0000
FC3F0000
00000000
00000000
00000000
7003C000
FC3FFC00
FC3FFC00
3003C000
00000000
00000000
00000000
FC3F0000
FC3F0000
FC3F0000
00000000
00000000
00000000
7C3E0000
FC3F0000
FC3F0000
00000000
00000000
00000000
00000000
1FFFFF80
1FFFFFC0
03FFFE00
ENDCHAR
STARTCHAR Oslash
ENCODING 216
SWIDTH 500 0
DWIDTH 32 0
BBX 26 54 0 -3
BITMAP
00001F80
00001FC0
00000F80
00000000
00000000
00000000
07FFF000
1FFFFC00
1FFFFC00
00000000
00000000
00000000
00000000
FC00FF80
FC00FFC0
7C007F80
00000000
00000000
00000000
FC07FF80
FC07FFC0
FC07FF80
00000000
00000000
00000000
700C0200
FC3F1FC0
FC3F1FC0
300C0200
00000000
00000000
00000000
FFF81F80
FFF81FC0
7FF00F80
00000000
00000000
00000000
7F800F80
FFC01FC0
FF801F80
00000000
00000000
00000000
00000000
1FFFFC00
1FFFFC00
07FFF800
00000000
00000000
00000000
FC000000
FC000000
FC000000
ENDCHAR
STARTCHAR Ugrave
ENCODING 217
SWIDTH 500 0
DWIDTH 32 0
BBX 26 48 0 3
BITMAP
1FF80000
1FF80000
0FF00000
00000000
00000000
00000000
003FC000
003FE000
003FE000
00000000
00000000
00000000
00000000
FC001F80
FC001FC0
7C000F80
00000000
00000000
00000000
FC000F80
FC001FC0
FC001F80
00000000
00000000
00000000
70000200
FC001FC0
FC001FC0
30000200
00000000
00000000
00000000
FC001F80
FC001FC0
FC000F80
00000000
00000000
00000000
7C000F80
FC001FC0
FC001F80
00000000
00000000
00000000
00000000
1FFFFC00
1FFFFC00
07FFF800
ENDCHAR
STARTCHAR Uacute
ENCODING 218
SWIDTH 500 0
DWIDTH 32 0
BBX 26 48 0 3
BITMAP
0007FC00
0007FC00
0007FC00
00000000
00000000
00000000
01FE0000
03FF0000
01FF0000
00000000
00000000
00000000
00000000
FC001F80
FC001FC0
7C000F80
00000000
00000000
00000000
FC000F80
FC001FC0
FC001F80
00000000
00000000
00000000
70000200
FC001FC0
FC001FC0
30000200
00000000
00000000
00000000
FC001F80
FC001FC0
FC000F80
00000000
00000000
00000000
7C000F80
FC001FC0
FC001F80
00000000
00000000
00000000
00000000
1FFFFC00
1FFFFC00
07FFF800
ENDCHAR
STARTCHAR Ucircumflex
ENCODING 219
SWIDTH 500 0
DWIDTH 32 0
BBX 26 48 0 3
BITMAP
003F0000
003F0000
003F0000
00000000
00000000
00000000
01FFC000
03FFE000
01FFE000
00000000
00000000
00000000
00000000
FC001F80
FC001FC0
7C000F80
00000000
00000000
00000000
FC000F80
FC001FC0
FC001F80
00000000
00000000
00000000
70000200
FC001FC0
FC001FC0
30000200
00000000
00000000
00000000
FC001F80
FC001FC0
FC000F80
00000000
00000000
00000000
7C000F80
FC001FC0
FC001F80
00000000
00000000
00000000
00000000
1FFFFC00
1FFFFC00
07FFF800
ENDCHAR
STARTCHAR Udieresis
ENCODING 220
SWIDTH 500 0
DWIDTH 32 0
BBX 26 48 0 3
BITMAP
1F80FC00
1FC0FC00
0F80FC00
00000000
00000000
00000000
00000000
00000000
00000000
00000000
00000000
00000000
00000000
FC001F80
FC001FC0
7C000F80
00000000
00000000
00000000
FC000F80
FC001FC0
FC001F80
00000000
00000000
00000000
70000200
FC001FC0
FC001FC0
30000200
00000000
00000000
00000000
FC001F80
FC001FC0
FC000F80
00000000
00000000
00000000
7C000F80
FC001FC0
FC001F80
00000000
00000000
00000000
00000000
1FFFFC00
1FFFFC00
07FFF800
ENDCHAR
STARTCHAR Yacute
ENCODING 221
SWIDTH 500 0
DWIDTH 32 0
BBX 26 48 0 3
BITMAP
1F80FC00
1FC0FC00
0F80FC00
00000000
00000000
00000000
00000000
00000000
00000000
00000000
00000000
00000000
00000000
FC001F80
FC001FC0
7C000F80
00000000
00000000
00000000
0F80FC00
1FC0FC00
1F80FC00
00000000
00000000
00000000
001E0000
03FFE000
03FFE000
009E0000
00000000
00000000
00000000
003F0000
003F0000
003F0000
00000000
00000000
00000000
003E0000
003F0000
003F0000
00000000
00000000
00000000
00000000
003F0000
003F0000
003E0000
ENDCHAR
STARTCHAR Thorn
ENCODING 222
SWIDTH 500 0
DWIDTH 32 0
BBX 26 55 0 -10
BITMAP
7FF00000
FFF80000
FFF80000
00000000
00000000
00000000
00000000
FC3F0000
FC3F0000
7C3E0000
00000000
00000000
00000000
FC3F0000
FC3F0000
FC3F0000
00000000
00000000
00000000
700C0000
FC3F0000
FC3F0000
300C0000
00000000
00000000
00000000
FFFFFF80
FFFFFFC0
7FFFFF80
00000000
00000000
00000000
003E0000
003F0000
003F0000
00000000
00000000
00000000
00000000
003FFC00
003FFC00
001FF800
00000000
00000000
00000000
003F0000
003F0000
003F0000
00000000
00000000
00000000
0007FE00
003FFFC0
003FFFC0
0007FE00
ENDCHAR
STARTCHAR germandbls
ENCODING 223
SWIDTH 500 0
DWIDTH 32 0
BBX 26 48 0 -3
BITMAP
01FFC000
03FFE000
01FFE000
00000000
00000000
00000000
00000000
1F80FC00
1FC0FC00
0F807C00
00000000
00000000
00000000
FC00FC00
FC00FC00
FC00FC00
00000000
00000000
00000000
11FE0000
FFFFE000
FFFFE000
07F00000
00000000
00000000
00000000
FC00FC00
FC00FC00
FC00FC00
00000000
00000000
00000000
7FF00F80
FFF81FC0
FFF81F80
00000000
00000000
00000000
00000000
FC3FFC00
FC3FFC00
7C1FF800
00000000
00000000
00000000
FC000000
FC000000
FC000000
ENDCHAR
STARTCHAR agrave
ENCODING 224
SWIDTH 500 0
DWIDTH 32 0
BBX 26 42 0 3
BITMAP
01FE0000
03FF0000
01FF0000
00000000
00000000
00000000
00000000
0007FC00
0007FC00
0003FC00
00000000
00000000
00000000
0FFFF800
1FFFFC00
0FFFFC00
00000000
00000000
00000000
00000200
00001FC0
00001FC0
00000200
00000000
00000000
00000000
0FFFFF80
1FFFFFC0
0FFFFF80
00000000
00000000
00000000
7C007F80
FC00FFC0
FC00FF80
00000000
00000000
00000000
00000000
1FFFFF80
1FFFFFC0
03FFFE00
ENDCHAR
STARTCHAR aacute
ENCODING 225
SWIDTH 500 0
DWIDTH 32 0
BBX 26 42 0 3
BITMAP
003FC000
003FE000
003FE000
00000000
00000000
00000000
00000000
1FF80000
1FF80000
0FF00000
00000000
00000000
00000000
0FFFF800
1FFFFC00
0FFFFC00
00000000
00000000
00000000
00000200
00001FC0
00001FC0
00000200
00000000
00000000
00000000
0FFFFF80
1FFFFFC0
0FFFFF80
00000000
00000000
00000000
7C007F80
FC00FFC0
FC00FF80
00000000
00000000
00000000
00000000
1FFFFF80
1FFFFFC0
03FFFE00
ENDCHAR
STARTCHAR acircumflex
ENCODING 226
SWIDTH 500 0
DWIDTH 32 0
BBX 26 48 0 3
BITMAP
01FFE000
03FFE000
01FFE000
00000000
00000000
00000000
0F807C00
1FC0FC00
1F80FC00
00000000
00000000
00000000
00000000
00000000
00000000
00000000
00000000
00000000
00000000
0FFFF800
1FFFFC00
0FFFFC00
00000000
00000000
00000000
00000200
00001FC0
00001FC0
00000200
00000000
00000000
00000000
0FFFFF80
1FFFFFC0
0FFFFF80
00000000
00000000
00000000
7C007F80
FC00FFC0
FC00FF80
00000000
00000000
00000000
00000000
1FFFFF80
1FFFFFC0
03FFFE00
ENDCHAR
STARTCHAR atilde
ENCODING 227
SWIDTH 500 0
DWIDTH 32 0
BBX 26 48 0 3
BITMAP
01FF1F80
03FF1FC0
01FF0F80
00000000
00000000
00000000
0F83FC00
1FC7FC00
1F87FC00
00000000
00000000
00000000
00000000
00000000
00000000
00000000
00000000
00000000
00000000
0FFFF800
1FFFFC00
0FFFFC00
00000000
00000000
00000000
00000200
00001FC0
00001FC0
00000200
00000000
00000000
00000000
0FFFFF80
1FFFFFC0
0FFFFF80
00000000
00000000
00000000
7C007F80
FC00FFC0
FC00FF80
00000000
00000000
00000000
00000000
1FFFFF80
1FFFFFC0
03FFFE00
ENDCHAR
STARTCHAR adieresis
ENCODING 228
SWIDTH 500 0
DWIDTH 32 0
BBX 26 42 0 3
BITMAP
0F807C00
1FC0FC00
1F80FC00
00000000
00000000
00000000
00000000
00000000
00000000
00000000
00000000
00000000
00000000
0FFFF800
1FFFFC00
0FFFFC00
00000000
00000000
00000000
00000200
00001FC0
00001FC0
00000200
00000000
00000000
00000000
0FFFFF80
1FFFFFC0
0FFFFF80
00000000
00000000
00000000
7C007F80
FC00FFC0
FC00FF80
00000000
00000000
00000000
00000000
1FFFFF80
1FFFFFC0
03FFFE00
ENDCHAR
STARTCHAR aring
ENCODING 229
SWIDTH 500 0
DWIDTH 32 0
BBX 26 48 0 3
BITMAP
01FFE000
03FFE000
01FFE000
00000000
00000000
00000000
0F807C00
1FC0FC00
1F80FC00
00000000
00000000
00000000
00000000
01FFE000
03FFE000
01FFC000
00000000
00000000
00000000
0FFFF800
1FFFFC00
0FFFFC00
00000000
00000000
00000000
00000200
00001FC0
00001FC0
00000200
00000000
00000000
00000000
0FFFFF80
1FFFFFC0
0FFFFF80
00000000
00000000
00000000
7C007F80
FC00FFC0
FC00FF80
00000000
00000000
00000000
00000000
1FFFFF80
1FFFFFC0
03FFFE00
ENDCHAR
STARTCHAR ae
ENCODING 230
SWIDTH 500 0
DWIDTH 32 0
BBX 26 29 0 3
BITMAP
0FFFF800
1FFFFC00
0FFFFC00
00000000
00000000
00000000
000C0200
003F1FC0
003F1FC0
000C0200
00000000
00000000
00000000
0FFFFF80
1FFFFFC0
0FFFFF80
00000000
00000000
00000000
7C3E0000
FC3F0000
FC3F0000
00000000
00000000
00000000
00000000
1FFFFF80
1FFFFFC0
03FFFE00
ENDCHAR
STARTCHAR ccedilla
ENCODING 231
SWIDTH 500 0
DWIDTH 32 0
BBX 26 42 0 -10
BITMAP
0FFFF800
1FFFFC00
0FFFFC00
00000000
00000000
00000000
70000200
FC001FC0
FC001FC0
30000200
00000000
00000000
00000000
FC000000
FC000000
FC000000
00000000
00000000
00000000
7C000F80
FC001FC0
FC001F80
00000000
00000000
00000000
00000000
1FFFFC00
1FFFFC00
07FFF800
00000000
00000000
00000000
0007E000
0007E000
0007E000
00000000
00000000
00000000
001E0000
03FFE000
03FFE000
009E0000
ENDCHAR
STARTCHAR egrave
ENCODING 232
SWIDTH 500 0
DWIDTH 32 0
BBX 26 42 0 3
BITMAP
01FE0000
03FF0000
01FF0000
00000000
00000000
00000000
00000000
0007FC00
0007FC00
0003FC00
00000000
00000000
00000000
0FFFF800
1FFFFC00
0FFFFC00
00000000
00000000
00000000
70000200
FC001FC0
FC001FC0
30000200
00000000
00000000
00000000
FFFFFF80
FFFFFFC0
7FFFFF80
00000000
00000000
00000000
7C000000
FC000000
FC000000
00000000
00000000
00000000
00000000
1FFFFC00
1FFFFC00
07FFF800
ENDCHAR
STARTCHAR eacute
ENCODING 233
SWIDTH 500 0
DWIDTH 32 0
BBX 26 42 0 3
BITMAP
003FC000
003FE000
003FE000
00000000
00000000
00000000
00000000
1FF80000
1FF80000
0FF00000
00000000
00000000
00000000
0FFFF800
1FFFFC00
0FFFFC00
00000000
00000000
00000000
70000200
FC001FC0
FC001FC0
30000200
00000000
00000000
00000000
FFFFFF80
FFFFFFC0
7FFFFF80
00000000
00000000
00000000
7C000000
FC000000
FC000000
00000000
00000000
00000000
00000000
1FFFFC00
1FFFFC00
07FFF800
ENDCHAR
STARTCHAR ecircumflex
ENCODING 234
SWIDTH 500 0
DWIDTH 32 0
BBX 26 48 0 3
BITMAP
01FFE000
03FFE000
01FFE000
00000000
00000000
00000000
0F807C00
1FC0FC00
1F80FC00
00000000
00000000
00000000
00000000
00000000
00000000
00000000
00000000
00000000
00000000
0FFFF800
1FFFFC00
0FFFFC00
00000000
00000000
00000000
70000200
FC001FC0
FC001FC0
30000200
00000000
00000000
00000000
FFFFFF80
FFFFFFC0
7FFFFF80
00000000
00000000
00000000
7C000000
FC000000
FC000000
00000000
00000000
00000000
00000000
1FFFFC00
1FFFFC00
07FFF800
ENDCHAR
STARTCHAR edieresis
ENCODING 235
SWIDTH 500 0
DWIDTH 32 0
BBX 26 42 0 3
BITMAP
0F807C00
1FC0FC00
1F80FC00
00000000
00000000
00000000
00000000
00000000
00000000
00000000
00000000
00000000
00000000
0FFFF800
1FFFFC00
0FFFFC00
00000000
00000000
00000000
70000200
FC001FC0
FC001FC0
30000200
00000000
00000000
00000000
FFFFFF80
FFFFFFC0
7FFFFF80
00000000
00000000
00000000
7C000000
FC000000
FC000000
00000000
00000000
00000000
00000000
1FFFFC00
1FFFFC00
07FFF800
ENDCHAR
STARTCHAR igrave
ENCODING 236
SWIDTH 500 0
DWIDTH 32 0
BBX 19 42 3 3
BITMAP
7F8000
FFC000
FFC000
000000
000000
000000
000000
01FF00
01FF00
01FE00
000000
000000
000000
0FF000
1FF800
0FF800
000000
000000
000000
006000
01F800
01F800
006000
000000
000000
000000
01F800
01F800
01F800
000000
000000
000000
01F000
01F800
01F800
000000
000000
000000
000000
FFFFE0
FFFFE0
3FFFC0
ENDCHAR
STARTCHAR iacute
ENCODING 237
SWIDTH 500 0
DWIDTH 32 0
BBX 19 42 3 3
BITMAP
01FE00
01FF00
01FF00
000000
000000
000000
000000
FFC000
FFC000
7F8000
000000
000000
000000
0FF000
1FF800
0FF800
000000
000000
000000
006000
01F800
01F800
006000
000000
000000
000000
01F800
01F800
01F800
000000
000000
000000
01F000
01F800
01F800
000000
000000
000000
000000
FFFFE0
FFFFE0
3FFFC0
ENDCHAR
STARTCHAR icircumflex
ENCODING 238
SWIDTH 500 0
DWIDTH 32 0
BBX 19 48 3 3
BITMAP
0FFF00
1FFF00
0FFF00
000000
000000
000000
7C03E0
FE07E0
FC07E0
000000
000000
000000
000000
000000
000000
000000
000000
000000
000000
0FF000
1FF800
0FF800
000000
000000
000000
006000
01F800
01F800
006000
000000
000000
000000
01F800
01F800
01F800
000000
000000
000000
01F000
01F800
01F800
000000
000000
000000
000000
FFFFE0
FFFFE0
3FFFC0
ENDCHAR
STARTCHAR idieresis
ENCODING 239
SWIDTH 500 0
DWIDTH 32 0
BBX 19 42 3 3
BITMAP
7C03E0
FE07E0
FC07E0
000000
000000
000000
000000
000000
000000
000000
000000
000000
000000
0FF000
1FF800
0FF800
000000
000000
000000
006000
01F800
01F800
006000
000000
000000
000000
01F800
01F800
01F800
000000
000000
000000
01F000
01F800
01F800
000000
000000
000000
000000
FFFFE0
FFFFE0
3FFFC0
ENDCHAR
STARTCHAR eth
ENCODING 240
SWIDTH 500 0
DWIDTH 32 0
BBX 26 55 0 -10
BITMAP
7FFE0000
FFFF0000
FFFF0000
00000000
00000000
00000000
00000000
FC000000
FC000000
7C000000
00000000
00000000
00000000
7FF00000
FFF80000
FFF80000
00000000
00000000
00000000
70000000
FC000000
FC000000
30000000
00000000
00000000
00000000
FC07FC00
FC07FC00
FC07FC00
00000000
00000000
00000000
003E0F80
003F1FC0
003F1F80
00000000
00000000
00000000
00000000
003F1F80
003F1FC0
003E0F80
00000000
00000000
00000000
003F0F80
003F1FC0
003F1F80
00000000
00000000
00000000
0000E800
0007FC00
0007FC00
0002E800
ENDCHAR
STARTCHAR ntilde
ENCODING 241
SWIDTH 500 0
DWIDTH 32 0
BBX 26 48 0 3
BITMAP
1FF8FC00
1FF8FC00
0FF0FC00
00000000
00000000
00000000
7C3FC000
FC3FE000
FC3FE000
00000000
00000000
00000000
00000000
00000000
00000000
00000000
00000000
00000000
00000000
7FFFF800
FFFFFC00
FFFFFC00
00000000
00000000
00000000
1C000200
FFC01FC0
FFC01FC0
1C000200
00000000
00000000
00000000
FC001F80
FC001FC0
FC000F80
00000000
00000000
00000000
7C000F80
FC001FC0
FC001F80
00000000
00000000
00000000
00000000
FC001F80
FC001FC0
7C000F80
ENDCHAR
STARTCHAR ograve
ENCODING 242
SWIDTH 500 0
DWIDTH 32 0
BBX 26 42 0 3
BITMAP
01FE0000
03FF0000
01FF0000
00000000
00000000
00000000
00000000
0007FC00
0007FC00
0003FC00
00000000
00000000
00000000
0FFFF800
1FFFFC00
0FFFFC00
00000000
00000000
00000000
70000200
FC001FC0
FC001FC0
30000200
00000000
00000000
00000000
FC001F80
FC001FC0
FC000F80
00000000
00000000
00000000
7C000F80
FC001FC0
FC001F80
00000000
00000000
00000000
00000000
1FFFFC00
1FFFFC00
07FFF800
ENDCHAR
STARTCHAR oacute
ENCODING 243
SWIDTH 500 0
DWIDTH 32 0
BBX 26 42 0 3
BITMAP
003FC000
003FE000
003FE000
00000000
00000000
00000000
00000000
1FF80000
1FF80000
0FF00000
00000000
00000000
00000000
0FFFF800
1FFFFC00
0FFFFC00
00000000
00000000
00000000
70000200
FC001FC0
FC001FC0
30000200
00000000
00000000
00000000
FC001F80
FC001FC0
FC000F80
00000000
00000000
00000000
7C000F80
FC001FC0
FC001F80
00000000
00000000
00000000
00000000
1FFFFC00
1FFFFC00
07FFF800
ENDCHAR
STARTCHAR ocircumflex
ENCODING 244
SWIDTH 500 0
DWIDTH 32 0
BBX 26 48 0 3
BITMAP
01FFE000
03FFE000
01FFE000
00000000
00000000
00000000
0F807C00
1FC0FC00
1F80FC00
00000000
00000000
00000000
00000000
00000000
00000000
00000000
00000000
00000000
00000000
0FFFF800
1FFFFC00
0FFFFC00
00000000
00000000
00000000
70000200
FC001FC0
FC001FC0
30000200
00000000
00000000
00000000
FC001F80
FC001FC0
FC000F80
00000000
00000000
00000000
7C000F80
FC001FC0
FC001F80
00000000
00000000
00000000
00000000
1FFFFC00
1FFFFC00
07FFF800
ENDCHAR
STARTCHAR otilde
ENCODING 245
SWIDTH 500 0
DWIDTH 32 0
BBX 26 48 0 3
BITMAP
1FF8FC00
1FF8FC00
0FF0FC00
00000000
00000000
00000000
7C3FC000
FC3FE000
FC3FE000
00000000
00000000
00000000
00000000
00000000
00000000
00000000
00000000
00000000
00000000
0FFFF800
1FFFFC00
0FFFFC00
00000000
00000000
00000000
70000200
FC001FC0
FC001FC0
30000200
00000000
00000000
00000000
FC001F80
FC001FC0
FC000F80
00000000
00000000
00000000
7C000F80
FC001FC0
FC001F80
00000000
00000000
00000000
00000000
1FFFFC00
1FFFFC00
07FFF800
ENDCHAR
STARTCHAR odieresis
ENCODING 246
SWIDTH 500 0
DWIDTH 32 0
BBX 26 42 0 3
BITMAP
0F807C00
1FC0FC00
1F80FC00
00000000
00000000
00000000
00000000
00000000
00000000
00000000
00000000
00000000
00000000
0FFFF800
1FFFFC00
0FFFFC00
00000000
00000000
00000000
70000200
FC001FC0
FC001FC0
30000200
00000000
00000000
00000000
FC001F80
FC001FC0
FC000F80
00000000
00000000
00000000
7C000F80
FC001FC0
FC001F80
00000000
00000000
00000000
00000000
1FFFFC00
1FFFFC00
07FFF800
ENDCHAR
STARTCHAR divide
ENCODING 247
SWIDTH 500 0
DWIDTH 32 0
BBX 26 29 0 3
BITMAP
0FFFF800
1FFFFC00
0FFFFC00
00000000
00000000
00000000
700C0200
FC3F1FC0
FC3F1FC0
300C0200
00000000
00000000
00000000
FC3FFF80
FC3FFFC0
FC3FFF80
00000000
00000000
00000000
7C3E0000
FC3F0000
FC3F0000
00000000
00000000
00000000
00000000
1FFFFF80
1FFFFFC0
03FFFE00
ENDCHAR
STARTCHAR oslash
ENCODING 248
SWIDTH 500 0
DWIDTH 32 0
BBX 26 41 0 -3
BITMAP
00001F80
00001FC0
00000F80
00000000
00000000
00000000
0FFFF800
1FFFFC00
0FFFFC00
00000000
00000000
00000000
70017800
FC07FFC0
FC07FFC0
30007800
00000000
00000000
00000000
FC3F1F80
FC3F1FC0
FC3F0F80
00000000
00000000
00000000
7FF00F80
FFF81FC0
FFF81F80
00000000
00000000
00000000
00000000
1FFFFC00
1FFFFC00
07FFF800
00000000
00000000
00000000
FC000000
FC000000
FC000000
ENDCHAR
STARTCHAR ugrave
ENCODING 249
SWIDTH 500 0
DWIDTH 32 0
BBX 26 42 0 3
BITMAP
0FF00000
1FF80000
1FF80000
00000000
00000000
00000000
00000000
003FE000
003FE000
003FC000
00000000
00000000
00000000
FC00FC00
FC00FC00
FC00FC00
00000000
00000000
00000000
70007000
FC00FC00
FC00FC00
30003000
00000000
00000000
00000000
FC00FC00
FC00FC00
FC00FC00
00000000
00000000
00000000
7C007C00
FC00FC00
FC00FC00
00000000
00000000
00000000
00000000
1FFFFF80
1FFFFFC0
03FFFE00
ENDCHAR
STARTCHAR uacute
ENCODING 250
SWIDTH 500 0
DWIDTH 32 0
BBX 26 42 0 3
BITMAP
003FC000
003FE000
003FE000
00000000
00000000
00000000
00000000
1FF80000
1FF80000
0FF00000
00000000
00000000
00000000
FC00FC00
FC00FC00
FC00FC00
00000000
00000000
00000000
70007000
FC00FC00
FC00FC00
30003000
00000000
00000000
00000000
FC00FC00
FC00FC00
FC00FC00
00000000
00000000
00000000
7C007C00
FC00FC00
FC00FC00
00000000
00000000
00000000
00000000
1FFFFF80
1FFFFFC0
03FFFE00
ENDCHAR
STARTCHAR ucircumflex
ENCODING 251
SWIDTH 500 0
DWIDTH 32 0
BBX 26 48 0 3
BITMAP
01FFE000
03FFE000
01FFE000
00000000
00000000
00000000
0F807C00
1FC0FC00
1F80FC00
00000000
00000000
00000000
00000000
00000000
00000000
00000000
00000000
00000000
00000000
FC00FC00
FC00FC00
FC00FC00
00000000
00000000
00000000
70007000
FC00FC00
FC00FC00
30003000
00000000
00000000
00000000
FC00FC00
FC00FC00
FC00FC00
00000000
00000000
00000000
7C007C00
FC00FC00
FC00FC00
00000000
00000000
00000000
00000000
1FFFFF80
1FFFFFC0
03FFFE00
ENDCHAR
STARTCHAR udieresis
ENCODING 252
SWIDTH 500 0
DWIDTH 32 0
BBX 26 42 0 3
BITMAP
0F807C00
1FC0FC00
1F80FC00
00000000
00000000
00000000
00000000
00000000
00000000
00000000
00000000
00000000
00000000
FC00FC00
FC00FC00
FC00FC00
00000000
00000000
00000000
70007000
FC00FC00
FC00FC00
30003000
00000000
00000000
00000000
FC00FC00
FC00FC00
FC00FC00
00000000
00000000
00000000
7C007C00
FC00FC00
FC00FC00
00000000
00000000
00000000
00000000
1FFFFF80
1FFFFFC0
03FFFE00
ENDCHAR
STARTCHAR yacute
ENCODING 253
SWIDTH 500 0
DWIDTH 32 0
BBX 22 55 0 -10
BITMAP
0F807C
1FC0FC
1F80FC
000000
000000
000000
000000
000000
000000
000000
000000
000000
000000
FC00FC
FC00FC
FC00FC
000000
000000
000000
700070
FC00FC
FC00FC
300030
000000
000000
000000
FC07FC
FC07FC
FC07FC
000000
000000
000000
07FFF0
1FFFFC
1FFFFC
000000
000000
000000
000000
0000FC
0000FC
00007C
000000
000000
000000
FC00FC
FC00FC
FC00FC
000000
000000
000000
03FF00
1FFFE0
1FFFE0
07FF00
ENDCHAR
STARTCHAR thorn
ENCODING 254
SWIDTH 500 0
DWIDTH 32 0
BBX 26 55 0 -10
BITMAP
7FFE0000
FFFF0000
FFFF0000
00000000
00000000
00000000
00000000
FC000000
FC000000
7C000000
00000000
00000000
00000000
7FF00000
FFF80000
FFF80000
00000000
00000000
00000000
70000000
FC000000
FC000000
30000000
00000000
00000000
00000000
FC3FFF80
FC3FFFC0
FC3FFF80
00000000
00000000
00000000
003E0000
003F0000
003F0000
00000000
00000000
00000000
00000000
003FFC00
003FFC00
001FF800
00000000
00000000
00000000
003F0000
003F0000
003F0000
00000000
00000000
00000000
0007FE00
003FFFC0
003FFFC0
0007FE00
ENDCHAR
STARTCHAR ydieresis
ENCODING 255
SWIDTH 500 0
DWIDTH 32 0
BBX 26 42 0 3
BITMAP
5FFFFE00
FFFFFFC0
FFFFFF80
00000000
00000000
00000000
00000000
FC001F80
FC001FC0
7C000F80
00000000
00000000
00000000
FC000F80
FC001FC0
FC001F80
00000000
00000000
00000000
70000200
FC001FC0
FC001FC0
30000200
00000000
00000000
00000000
FC001F80
FC001FC0
FC000F80
00000000
00000000
00000000
7C000F80
FC001FC0
FC001F80
00000000
00000000
00000000
00000000
FFFFFF80
FFFFFFC0
1FFFFC00
ENDCHAR
STARTCHAR NameMe.320
ENCODING 1025
SWIDTH 500 0
DWIDTH 32 0
BBX 26 48 0 3
BITMAP
1F80FC00
1FC0FC00
0F80FC00
00000000
00000000
00000000
00000000
00000000
00000000
00000000
00000000
00000000
00000000
FFFFFF80
FFFFFFC0
1FFFFC00
00000000
00000000
00000000
FC000000
FC000000
FC000000
00000000
00000000
00000000
11FE0000
FFFFE000
FFFFE000
07F00000
00000000
00000000
00000000
FC000000
FC000000
FC000000
00000000
00000000
00000000
7C000000
FC000000
FC000000
00000000
00000000
00000000
00000000
FFFFFF80
FFFFFFC0
1FFFFC00
ENDCHAR
STARTCHAR afii10034
ENCODING 1040
SWIDTH 500 0
DWIDTH 32 0
BBX 26 42 0 3
BITMAP
001FFF00
003FFFC0
003FFFC0
00000000
00000000
00000000
00000000
03F81F80
03F81FC0
01F00F80
00000000
00000000
00000000
0F800F80
1FC01FC0
1F801F80
00000000
00000000
00000000
70000200
FC001FC0
FC001FC0
30000200
00000000
00000000
00000000
FFFFFF80
FFFFFFC0
7FFFFF80
00000000
00000000
00000000
7C000F80
FC001FC0
FC001F80
00000000
00000000
00000000
00000000
FC001F80
FC001FC0
7C000F80
ENDCHAR
STARTCHAR NameMe.257
ENCODING 1041
SWIDTH 500 0
DWIDTH 32 0
BBX 26 42 0 3
BITMAP
5FFFFE00
FFFFFFC0
FFFFFF80
00000000
00000000
00000000
00000000
FC000000
FC000000
7C000000
00000000
00000000
00000000
FC000000
FC000000
FC000000
00000000
00000000
00000000
087F8000
FFFFFC00
FFFFFC00
03FC2000
00000000
00000000
00000000
FC001F80
FC001FC0
FC000F80
00000000
00000000
00000000
7C000F80
FC001FC0
FC001F80
00000000
00000000
00000000
00000000
FFFFFC00
FFFFFC00
7FFFE000
ENDCHAR
STARTCHAR NameMe.258
ENCODING 1042
SWIDTH 500 0
DWIDTH 32 0
BBX 26 42 0 3
BITMAP
7FFF8000
FFFFE000
FFFFE000
00000000
00000000
00000000
00000000
FC00FC00
FC00FC00
7C007C00
00000000
00000000
00000000
FC00FC00
FC00FC00
FC00FC00
00000000
00000000
00000000
087F8000
FFFFFC00
FFFFFC00
03FC2000
00000000
00000000
00000000
FC001F80
FC001FC0
FC000F80
00000000
00000000
00000000
7C000F80
FC001FC0
FC001F80
00000000
00000000
00000000
00000000
FFFFFC00
FFFFFC00
7FFFE000
ENDCHAR
STARTCHAR NameMe.259
ENCODING 1043
SWIDTH 500 0
DWIDTH 32 0
BBX 26 42 0 3
BITMAP
5FFFFE00
FFFFFFC0
FFFFFF80
00000000
00000000
00000000
00000000
FC000000
FC000000
7C000000
00000000
00000000
00000000
FC000000
FC000000
FC000000
00000000
00000000
00000000
70000000
FC000000
FC000000
30000000
00000000
00000000
00000000
FC000000
FC000000
FC000000
00000000
00000000
00000000
7C000000
FC000000
FC000000
00000000
00000000
00000000
00000000
FC000000
FC000000
7C000000
ENDCHAR
STARTCHAR NameMe.260
ENCODING 1044
SWIDTH 500 0
DWIDTH 32 0
BBX 26 48 0 -3
BITMAP
01FFF800
03FFFC00
01FFFC00
00000000
00000000
00000000
00000000
1F80FC00
1FC0FC00
0F807C00
00000000
00000000
00000000
0F80FC00
1FC0FC00
1F80FC00
00000000
00000000
00000000
02007000
1FC0FC00
1FC0FC00
02003000
00000000
00000000
00000000
1F80FC00
1FC0FC00
0F80FC00
00000000
00000000
00000000
0F807C00
1FC0FC00
1F80FC00
00000000
00000000
00000000
00000000
FFFFFF80
FFFFFFC0
1FFFFC00
00000000
00000000
00000000
FC000F80
FC001FC0
FC001F80
ENDCHAR
STARTCHAR NameMe.261
ENCODING 1045
SWIDTH 500 0
DWIDTH 32 0
BBX 26 42 0 3
BITMAP
5FFFFE00
FFFFFFC0
FFFFFF80
00000000
00000000
00000000
00000000
FC000000
FC000000
7C000000
00000000
00000000
00000000
FC000000
FC000000
FC000000
00000000
00000000
00000000
003FE800
FFFFFFC0
FFFFFFC0
03FF0000
00000000
00000000
00000000
FC000000
FC000000
FC000000
00000000
00000000
00000000
7C000000
FC000000
FC000000
00000000
00000000
00000000
00000000
FFFFFF80
FFFFFFC0
1FFFFC00
ENDCHAR
STARTCHAR NameMe.262
ENCODING 1046
SWIDTH 500 0
DWIDTH 32 0
BBX 26 42 0 3
BITMAP
7C3E0F80
FC3F1FC0
FC3F1F80
00000000
00000000
00000000
00000000
FC3F1F80
FC3F1FC0
7C3E0F80
00000000
00000000
00000000
0FFFFC00
1FFFFC00
0FFFFC00
00000000
00000000
00000000
001E0000
03FFE000
03FFE000
009E0000
00000000
00000000
00000000
0FFFFC00
1FFFFC00
0FFFFC00
00000000
00000000
00000000
7C3E0F80
FC3F1FC0
FC3F1F80
00000000
00000000
00000000
00000000
FC3F1F80
FC3F1FC0
7C3E0F80
ENDCHAR
STARTCHAR NameMe.263
ENCODING 1047
SWIDTH 500 0
DWIDTH 32 0
BBX 26 42 0 3
BITMAP
07FFF000
1FFFFC00
1FFFFC00
00000000
00000000
00000000
00000000
FC001F80
FC001FC0
7C000F80
00000000
00000000
00000000
00000F80
00001FC0
00001F80
00000000
00000000
00000000
0003C000
003FFC00
003FFC00
0003C000
00000000
00000000
00000000
00001F80
00001FC0
00000F80
00000000
00000000
00000000
7C000F80
FC001FC0
FC001F80
00000000
00000000
00000000
00000000
1FFFFC00
1FFFFC00
0FFFF800
ENDCHAR
STARTCHAR NameMe.264
ENCODING 1048
SWIDTH 500 0
DWIDTH 32 0
BBX 26 42 0 3
BITMAP
7C000F80
FC001FC0
FC001F80
00000000
00000000
00000000
00000000
FC00FF80
FC00FFC0
7C007F80
00000000
00000000
00000000
FC07FF80
FC07FFC0
FC07FF80
00000000
00000000
00000000
700C0200
FC3F1FC0
FC3F1FC0
300C0200
00000000
00000000
00000000
FFF81F80
FFF81FC0
7FF00F80
00000000
00000000
00000000
7F800F80
FFC01FC0
FF801F80
00000000
00000000
00000000
00000000
FC001F80
FC001FC0
7C000F80
ENDCHAR
STARTCHAR NameMe.265
ENCODING 1049
SWIDTH 500 0
DWIDTH 32 0
BBX 26 48 0 3
BITMAP
003FE000
003FE000
003FE000
00000000
00000000
00000000
7C3E0F80
FC3F1FC0
FC3F1F80
00000000
00000000
00000000
00000000
FC00FF80
FC00FFC0
7C007F80
00000000
00000000
00000000
FC07FF80
FC07FFC0
FC07FF80
00000000
00000000
00000000
700C0200
FC3F1FC0
FC3F1FC0
300C0200
00000000
00000000
00000000
FFF81F80
FFF81FC0
7FF00F80
00000000
00000000
00000000
7F800F80
FFC01FC0
FF801F80
00000000
00000000
00000000
00000000
FC001F80
FC001FC0
7C000F80
ENDCHAR
STARTCHAR NameMe.266
ENCODING 1050
SWIDTH 500 0
DWIDTH 32 0
BBX 26 42 0 3
BITMAP
7C000F80
FC001FC0
FC001F80
00000000
00000000
00000000
00000000
FC001F80
FC001FC0
7C000F80
00000000
00000000
00000000
FC07FC00
FC07FC00
FC07FC00
00000000
00000000
00000000
1FFC0000
FFFF0000
FFFF0000
1FF80000
00000000
00000000
00000000
FC07FC00
FC07FC00
FC07FC00
00000000
00000000
00000000
7C000F80
FC001FC0
FC001F80
00000000
00000000
00000000
00000000
FC001F80
FC001FC0
7C000F80
ENDCHAR
STARTCHAR NameMe.267
ENCODING 1051
SWIDTH 500 0
DWIDTH 32 0
BBX 26 42 0 3
BITMAP
001FFF00
003FFFC0
003FFFC0
00000000
00000000
00000000
00000000
03F81F80
03F81FC0
01F00F80
00000000
00000000
00000000
0F800F80
1FC01FC0
1F801F80
00000000
00000000
00000000
70000200
FC001FC0
FC001FC0
30000200
00000000
00000000
00000000
FC001F80
FC001FC0
FC000F80
00000000
00000000
00000000
7C000F80
FC001FC0
FC001F80
00000000
00000000
00000000
00000000
FC001F80
FC001FC0
7C000F80
ENDCHAR
STARTCHAR NameMe.268
ENCODING 1052
SWIDTH 500 0
DWIDTH 32 0
BBX 26 42 0 3
BITMAP
7C000F80
FC001FC0
FC001F80
00000000
00000000
00000000
00000000
FF80FF80
FFC0FFC0
7F807F80
00000000
00000000
00000000
7FFFFF80
FFFFFFC0
FFFFFF80
00000000
00000000
00000000
700C0200
FC3F1FC0
FC3F1FC0
300C0200
00000000
00000000
00000000
FC3F1F80
FC3F1FC0
FC3F0F80
00000000
00000000
00000000
7C000F80
FC001FC0
FC001F80
00000000
00000000
00000000
00000000
FC001F80
FC001FC0
7C000F80
ENDCHAR
STARTCHAR NameMe.269
ENCODING 1053
SWIDTH 500 0
DWIDTH 32 0
BBX 26 42 0 3
BITMAP
7C000F80
FC001FC0
FC001F80
00000000
00000000
00000000
00000000
FC001F80
FC001FC0
7C000F80
00000000
00000000
00000000
FC000F80
FC001FC0
FC001F80
00000000
00000000
00000000
70000200
FC001FC0
FC001FC0
30000200
00000000
00000000
00000000
FFFFFF80
FFFFFFC0
7FFFFF80
00000000
00000000
00000000
7C000F80
FC001FC0
FC001F80
00000000
00000000
00000000
00000000
FC001F80
FC001FC0
7C000F80
ENDCHAR
STARTCHAR NameMe.270
ENCODING 1054
SWIDTH 500 0
DWIDTH 32 0
BBX 26 42 0 3
BITMAP
07FFF000
1FFFFC00
1FFFFC00
00000000
00000000
00000000
00000000
FC001F80
FC001FC0
7C000F80
00000000
00000000
00000000
FC000F80
FC001FC0
FC001F80
00000000
00000000
00000000
70000200
FC001FC0
FC001FC0
30000200
00000000
00000000
00000000
FC001F80
FC001FC0
FC000F80
00000000
00000000
00000000
7C000F80
FC001FC0
FC001F80
00000000
00000000
00000000
00000000
1FFFFC00
1FFFFC00
0FFFF800
ENDCHAR
STARTCHAR NameMe.271
ENCODING 1055
SWIDTH 500 0
DWIDTH 32 0
BBX 26 42 0 3
BITMAP
5FFFFE00
FFFFFFC0
FFFFFF80
00000000
00000000
00000000
00000000
FC001F80
FC001FC0
7C000F80
00000000
00000000
00000000
FC000F80
FC001FC0
FC001F80
00000000
00000000
00000000
70000200
FC001FC0
FC001FC0
30000200
00000000
00000000
00000000
FC001F80
FC001FC0
FC000F80
00000000
00000000
00000000
7C000F80
FC001FC0
FC001F80
00000000
00000000
00000000
00000000
FC001F80
FC001FC0
7C000F80
ENDCHAR
STARTCHAR NameMe.272
ENCODING 1056
SWIDTH 500 0
DWIDTH 32 0
BBX 26 42 0 3
BITMAP
5FFFF000
FFFFFC00
FFFFFC00
00000000
00000000
00000000
00000000
FC001F80
FC001FC0
7C000F80
00000000
00000000
00000000
FC000F80
FC001FC0
FC001F80
00000000
00000000
00000000
70000200
FC001FC0
FC001FC0
30000200
00000000
00000000
00000000
FFFFFC00
FFFFFC00
7FFFFC00
00000000
00000000
00000000
7C000000
FC000000
FC000000
00000000
00000000
00000000
00000000
FC000000
FC000000
7C000000
ENDCHAR
STARTCHAR NameMe.273
ENCODING 1057
SWIDTH 500 0
DWIDTH 32 0
BBX 26 42 0 3
BITMAP
03FFFE00
1FFFFFC0
1FFFFF80
00000000
00000000
00000000
00000000
FC000000
FC000000
7C000000
00000000
00000000
00000000
FC000000
FC000000
FC000000
00000000
00000000
00000000
70000000
FC000000
FC000000
30000000
00000000
00000000
00000000
FC000000
FC000000
FC000000
00000000
00000000
00000000
7C000000
FC000000
FC000000
00000000
00000000
00000000
00000000
1FFFFF80
1FFFFFC0
03FFFE00
ENDCHAR
STARTCHAR NameMe.274
ENCODING 1058
SWIDTH 500 0
DWIDTH 32 0
BBX 26 42 0 3
BITMAP
5FFFFE00
FFFFFFC0
FFFFFF80
00000000
00000000
00000000
00000000
FC3F1F80
FC3F1FC0
7C3E0F80
00000000
00000000
00000000
003F0000
003F0000
003F0000
00000000
00000000
00000000
000C0000
003F0000
003F0000
000C0000
00000000
00000000
00000000
003F0000
003F0000
003F0000
00000000
00000000
00000000
003E0000
003F0000
003F0000
00000000
00000000
00000000
00000000
003F0000
003F0000
003E0000
ENDCHAR
STARTCHAR NameMe.275
ENCODING 1059
SWIDTH 500 0
DWIDTH 32 0
BBX 26 42 0 3
BITMAP
7C000F80
FC001FC0
FC001F80
00000000
00000000
00000000
00000000
FC001F80
FC001FC0
7C000F80
00000000
00000000
00000000
FC000F80
FC001FC0
FC001F80
00000000
00000000
00000000
010FF000
1FFFFFC0
1FFFFFC0
017F8400
00000000
00000000
00000000
00001F80
00001FC0
00000F80
00000000
00000000
00000000
7C000F80
FC001FC0
FC001F80
00000000
00000000
00000000
00000000
1FFFFC00
1FFFFC00
0FFFF800
ENDCHAR
STARTCHAR NameMe.276
ENCODING 1060
SWIDTH 500 0
DWIDTH 32 0
BBX 26 42 0 3
BITMAP
003E0000
003F0000
003F0000
00000000
00000000
00000000
00000000
1FFFFC00
1FFFFC00
0FFFF800
00000000
00000000
00000000
FC3F0F80
FC3F1FC0
FC3F1F80
00000000
00000000
00000000
700C0200
FC3F1FC0
FC3F1FC0
300C0200
00000000
00000000
00000000
FC3F1F80
FC3F1FC0
FC3F0F80
00000000
00000000
00000000
07FFF000
1FFFFC00
1FFFFC00
00000000
00000000
00000000
00000000
003F0000
003F0000
003E0000
ENDCHAR
STARTCHAR NameMe.277
ENCODING 1061
SWIDTH 500 0
DWIDTH 32 0
BBX 26 42 0 3
BITMAP
7C000F80
FC001FC0
FC001F80
00000000
00000000
00000000
00000000
FC001F80
FC001FC0
7C000F80
00000000
00000000
00000000
01FFE000
03FFE000
01FFE000
00000000
00000000
00000000
000C0000
003F0000
003F0000
000C0000
00000000
00000000
00000000
01FFE000
03FFE000
01FFE000
00000000
00000000
00000000
7C000F80
FC001FC0
FC001F80
00000000
00000000
00000000
00000000
FC001F80
FC001FC0
7C000F80
ENDCHAR
STARTCHAR NameMe.278
ENCODING 1062
SWIDTH 500 0
DWIDTH 32 0
BBX 26 48 0 -3
BITMAP
7C007C00
FC00FC00
FC00FC00
00000000
00000000
00000000
00000000
FC00FC00
FC00FC00
7C007C00
00000000
00000000
00000000
FC00FC00
FC00FC00
FC00FC00
00000000
00000000
00000000
70007000
FC00FC00
FC00FC00
30003000
00000000
00000000
00000000
FC00FC00
FC00FC00
FC00FC00
00000000
00000000
00000000
7C007C00
FC00FC00
FC00FC00
00000000
00000000
00000000
00000000
FFFFFF80
FFFFFFC0
1FFFFC00
00000000
00000000
00000000
00000F80
00001FC0
00001F80
ENDCHAR
STARTCHAR NameMe.279
ENCODING 1063
SWIDTH 500 0
DWIDTH 32 0
BBX 26 42 0 3
BITMAP
7C000F80
FC001FC0
FC001F80
00000000
00000000
00000000
00000000
FC001F80
FC001FC0
7C000F80
00000000
00000000
00000000
FC000F80
FC001FC0
FC001F80
00000000
00000000
00000000
003FE800
FFFFFFC0
FFFFFFC0
03FF0000
00000000
00000000
00000000
00001F80
00001FC0
00000F80
00000000
00000000
00000000
00000F80
00001FC0
00001F80
00000000
00000000
00000000
00000000
00001F80
00001FC0
00000F80
ENDCHAR
STARTCHAR NameMe.280
ENCODING 1064
SWIDTH 500 0
DWIDTH 32 0
BBX 26 42 0 3
BITMAP
7C3E0F80
FC3F1FC0
FC3F1F80
00000000
00000000
00000000
00000000
FC3F1F80
FC3F1FC0
7C3E0F80
00000000
00000000
00000000
FC3F0F80
FC3F1FC0
FC3F1F80
00000000
00000000
00000000
700C0200
FC3F1FC0
FC3F1FC0
300C0200
00000000
00000000
00000000
FC3F1F80
FC3F1FC0
FC3F0F80
00000000
00000000
00000000
7C3E0F80
FC3F1FC0
FC3F1F80
00000000
00000000
00000000
00000000
FFFFFF80
FFFFFFC0
1FFFFC00
ENDCHAR
STARTCHAR NameMe.281
ENCODING 1065
SWIDTH 500 0
DWIDTH 32 0
BBX 26 48 0 -3
BITMAP
7C3E0F80
FC3F1FC0
FC3F1F80
00000000
00000000
00000000
00000000
FC3F1F80
FC3F1FC0
7C3E0F80
00000000
00000000
00000000
FC3F0F80
FC3F1FC0
FC3F1F80
00000000
00000000
00000000
700C0200
FC3F1FC0
FC3F1FC0
300C0200
00000000
00000000
00000000
FC3F1F80
FC3F1FC0
FC3F0F80
00000000
00000000
00000000
7C3E0F80
FC3F1FC0
FC3F1F80
00000000
00000000
00000000
00000000
FFFFFF80
FFFFFFC0
1FFFFC00
00000000
00000000
00000000
00000F80
00001FC0
00001F80
ENDCHAR
STARTCHAR NameMe.282
ENCODING 1066
SWIDTH 500 0
DWIDTH 32 0
BBX 26 42 0 3
BITMAP
3F000000
FFC00000
FFC00000
00000000
00000000
00000000
00000000
FFC00000
FFC00000
7F000000
00000000
00000000
00000000
0FC00000
0FC00000
0FC00000
00000000
00000000
00000000
01FF8000
1FFFFC00
1FFFFC00
007C2000
00000000
00000000
00000000
0FC01F80
0FC01FC0
0FC00F80
00000000
00000000
00000000
0F800F80
0FC01FC0
0FC01F80
00000000
00000000
00000000
00000000
1FFFFC00
0FFFFC00
07FFE000
ENDCHAR
STARTCHAR NameMe.283
ENCODING 1067
SWIDTH 500 0
DWIDTH 32 0
BBX 26 42 0 3
BITMAP
7C000F80
FC001FC0
FC001F80
00000000
00000000
00000000
00000000
FC001F80
FC001FC0
7C000F80
00000000
00000000
00000000
FC000F80
FC001FC0
FC001F80
00000000
00000000
00000000
1FFC0200
FFFF1FC0
FFFF1FC0
1FF80200
00000000
00000000
00000000
FC07FF80
FC07FFC0
FC07FF80
00000000
00000000
00000000
7C03FF80
FC07FFC0
FC07FF80
00000000
00000000
00000000
00000000
FFFF1F80
FFFF1FC0
7FFE0F80
ENDCHAR
STARTCHAR NameMe.284
ENCODING 1068
SWIDTH 500 0
DWIDTH 32 0
BBX 26 42 0 3
BITMAP
7C000000
FC000000
FC000000
00000000
00000000
00000000
00000000
FC000000
FC000000
7C000000
00000000
00000000
00000000
FC000000
FC000000
FC000000
00000000
00000000
00000000
087F8000
FFFFFC00
FFFFFC00
03FC2000
00000000
00000000
00000000
FC001F80
FC001FC0
FC000F80
00000000
00000000
00000000
7C000F80
FC001FC0
FC001F80
00000000
00000000
00000000
00000000
FFFFFC00
FFFFFC00
7FFFE000
ENDCHAR
STARTCHAR NameMe.285
ENCODING 1069
SWIDTH 500 0
DWIDTH 32 0
BBX 26 42 0 3
BITMAP
5FFFF000
FFFFFC00
FFFFFC00
00000000
00000000
00000000
00000000
00001F80
00001FC0
00000F80
00000000
00000000
00000000
00000F80
00001FC0
00001F80
00000000
00000000
00000000
0007FC00
03FFFFC0
03FFFFC0
001FE000
00000000
00000000
00000000
00001F80
00001FC0
00000F80
00000000
00000000
00000000
00000F80
00001FC0
00001F80
00000000
00000000
00000000
00000000
FFFFFC00
FFFFFC00
7FFFE000
ENDCHAR
STARTCHAR NameMe.286
ENCODING 1070
SWIDTH 500 0
DWIDTH 32 0
BBX 26 42 0 3
BITMAP
7C1FF800
FC3FFC00
FC3FFC00
00000000
00000000
00000000
00000000
FFF81F80
FFF81FC0
7FF00F80
00000000
00000000
00000000
7FF00F80
FFF81FC0
FFF81F80
00000000
00000000
00000000
0F200200
FFF81FC0
FFF81FC0
0F200200
00000000
00000000
00000000
FFF81F80
FFF81FC0
7FF00F80
00000000
00000000
00000000
7FF00F80
FFF81FC0
FFF81F80
00000000
00000000
00000000
00000000
FC3FFC00
FC3FFC00
7C3FF800
ENDCHAR
STARTCHAR NameMe.287
ENCODING 1071
SWIDTH 500 0
DWIDTH 32 0
BBX 26 42 0 3
BITMAP
03FFFE00
1FFFFFC0
1FFFFF80
00000000
00000000
00000000
00000000
FC001F80
FC001FC0
7C000F80
00000000
00000000
00000000
FC000F80
FC001FC0
FC001F80
00000000
00000000
00000000
010FF000
1FFFFFC0
1FFFFFC0
017F8400
00000000
00000000
00000000
01F81F80
03F81FC0
01F00F80
00000000
00000000
00000000
0F800F80
1FC01FC0
1F801F80
00000000
00000000
00000000
00000000
FC001F80
FC001FC0
7C000F80
ENDCHAR
STARTCHAR NameMe.288
ENCODING 1072
SWIDTH 500 0
DWIDTH 32 0
BBX 26 29 0 3
BITMAP
0FFFC000
1FFFE000
1FFFE000
00000000
00000000
00000000
00007000
0000FC00
0000FC00
00003000
00000000
00000000
00000000
0FFFFC00
1FFFFC00
0FFFFC00
00000000
00000000
00000000
7C007C00
FC00FC00
FC00FC00
00000000
00000000
00000000
00000000
1FFFFF80
1FFFFFC0
03FFFE00
ENDCHAR
STARTCHAR NameMe.289
ENCODING 1073
SWIDTH 500 0
DWIDTH 32 0
BBX 26 42 0 3
BITMAP
03FFFE00
1FFFFFC0
1FFFFF80
00000000
00000000
00000000
00000000
03F80000
03F80000
01F00000
00000000
00000000
00000000
003FE000
003FE000
003FE000
00000000
00000000
00000000
003FE000
1FFFFC00
1FFFFC00
00FE0000
00000000
00000000
00000000
FC001F80
FC001FC0
FC000F80
00000000
00000000
00000000
7C000F80
FC001FC0
FC001F80
00000000
00000000
00000000
00000000
1FFFFC00
1FFFFC00
0FFFF800
ENDCHAR
STARTCHAR NameMe.290
ENCODING 1074
SWIDTH 500 0
DWIDTH 32 0
BBX 26 42 0 3
BITMAP
0FFE0000
1FFF0000
1FFF0000
00000000
00000000
00000000
00000000
FC07E000
FC07E000
7C07E000
00000000
00000000
00000000
FC3F0000
FC3F0000
FC3F0000
00000000
00000000
00000000
087F8000
FFFFFC00
FFFFFC00
03FC2000
00000000
00000000
00000000
FC001F80
FC001FC0
FC000F80
00000000
00000000
00000000
7C000F80
FC001FC0
FC001F80
00000000
00000000
00000000
00000000
1FFFFC00
1FFFFC00
0FFFF800
ENDCHAR
STARTCHAR NameMe.291
ENCODING 1075
SWIDTH 500 0
DWIDTH 32 0
BBX 26 29 0 3
BITMAP
0FFFFC00
1FFFFC00
0FFFFC00
00000000
00000000
00000000
00000200
00001FC0
00001FC0
00000200
00000000
00000000
00000000
0FFFFC00
1FFFFC00
0FFFFC00
00000000
00000000
00000000
7C000000
FC000000
FC000000
00000000
00000000
00000000
00000000
1FFFFF80
1FFFFFC0
03FFFE00
ENDCHAR
STARTCHAR NameMe.292
ENCODING 1076
SWIDTH 500 0
DWIDTH 32 0
BBX 26 42 0 3
BITMAP
07FFF000
1FFFFC00
1FFFFC00
00000000
00000000
00000000
00000000
FC001F80
FC001FC0
7C000F80
00000000
00000000
00000000
00000F80
00001FC0
00001F80
00000000
00000000
00000000
010FF000
1FFFFFC0
1FFFFFC0
017F8400
00000000
00000000
00000000
FC001F80
FC001FC0
FC000F80
00000000
00000000
00000000
7C000F80
FC001FC0
FC001F80
00000000
00000000
00000000
00000000
1FFFFC00
1FFFFC00
0FFFF800
ENDCHAR
STARTCHAR NameMe.293
ENCODING 1077
SWIDTH 500 0
DWIDTH 32 0
BBX 26 29 0 3
BITMAP
0FFFFC00
1FFFFC00
0FFFFC00
00000000
00000000
00000000
70000200
FC001FC0
FC001FC0
30000200
00000000
00000000
00000000
FFFFFF80
FFFFFFC0
7FFFFF80
00000000
00000000
00000000
7C000000
FC000000
FC000000
00000000
00000000
00000000
00000000
1FFFFC00
1FFFFC00
0FFFF800
ENDCHAR
STARTCHAR NameMe.294
ENCODING 1078
SWIDTH 500 0
DWIDTH 32 0
BBX 26 29 0 3
BITMAP
FC3F0F80
FC3F1FC0
FC3F1F80
00000000
00000000
00000000
003FE000
1FFFFC00
1FFFFC00
00FE0000
00000000
00000000
00000000
01FFE000
03FFE000
01FFE000
00000000
00000000
00000000
07FFF000
1FFFFC00
1FFFFC00
00000000
00000000
00000000
00000000
FC3F1F80
FC3F1FC0
7C3E0F80
ENDCHAR
STARTCHAR NameMe.295
ENCODING 1079
SWIDTH 500 0
DWIDTH 32 0
BBX 26 29 0 3
BITMAP
0FFFFC00
1FFFFC00
0FFFFC00
00000000
00000000
00000000
70000200
FC001FC0
FC001FC0
30000200
00000000
00000000
00000000
003FFC00
003FFC00
003FFC00
00000000
00000000
00000000
7C000F80
FC001FC0
FC001F80
00000000
00000000
00000000
00000000
1FFFFC00
1FFFFC00
0FFFF800
ENDCHAR
STARTCHAR NameMe.296
ENCODING 1080
SWIDTH 500 0
DWIDTH 32 0
BBX 26 29 0 3
BITMAP
FC00FC00
FC00FC00
FC00FC00
00000000
00000000
00000000
70007000
FC00FC00
FC00FC00
30003000
00000000
00000000
00000000
FC00FC00
FC00FC00
FC00FC00
00000000
00000000
00000000
7C03FC00
FC07FC00
FC07FC00
00000000
00000000
00000000
00000000
1FFFFF80
1FFFFFC0
03FFFE00
ENDCHAR
STARTCHAR NameMe.297
ENCODING 1081
SWIDTH 500 0
DWIDTH 32 0
BBX 26 35 0 3
BITMAP
003F0000
003F0000
003E0000
00000000
00000000
00000000
FC00FC00
FC00FC00
FC00FC00
00000000
00000000
00000000
70007000
FC00FC00
FC00FC00
30003000
00000000
00000000
00000000
FC00FC00
FC00FC00
FC00FC00
00000000
00000000
00000000
7C03FC00
FC07FC00
FC07FC00
00000000
00000000
00000000
00000000
1FFFFF80
1FFFFFC0
03FFFE00
ENDCHAR
STARTCHAR NameMe.298
ENCODING 1082
SWIDTH 500 0
DWIDTH 32 0
BBX 26 29 0 3
BITMAP
FC000F80
FC001FC0
FC001F80
00000000
00000000
00000000
7000E800
FC07FC00
FC07FC00
3002E800
00000000
00000000
00000000
FFFF0000
FFFF0000
7FFE0000
00000000
00000000
00000000
7C03FC00
FC07FC00
FC07FC00
00000000
00000000
00000000
00000000
FC001F80
FC001FC0
7C000F80
ENDCHAR
STARTCHAR NameMe.299
ENCODING 1083
SWIDTH 500 0
DWIDTH 32 0
BBX 26 29 0 3
BITMAP
003FFF80
003FFFC0
003FFF80
00000000
00000000
00000000
00400200
03F81FC0
03F81FC0
00500200
00000000
00000000
00000000
01F81F80
03F81FC0
01F00F80
00000000
00000000
00000000
01F00F80
03F81FC0
01F81F80
00000000
00000000
00000000
00000000
FF801F80
FFC01FC0
7F800F80
ENDCHAR
STARTCHAR NameMe.300
ENCODING 1084
SWIDTH 500 0
DWIDTH 32 0
BBX 26 29 0 3
BITMAP
FC000F80
FC001FC0
FC001F80
00000000
00000000
00000000
1C001C00
FFC0FFC0
FFC0FFC0
1C001C00
00000000
00000000
00000000
FFFFFF80
FFFFFFC0
7FFFFF80
00000000
00000000
00000000
7C3E0F80
FC3F1FC0
FC3F1F80
00000000
00000000
00000000
00000000
FC001F80
FC001FC0
7C000F80
ENDCHAR
STARTCHAR NameMe.301
ENCODING 1085
SWIDTH 500 0
DWIDTH 32 0
BBX 26 29 0 3
BITMAP
FC000F80
FC001FC0
FC001F80
00000000
00000000
00000000
70000200
FC001FC0
FC001FC0
30000200
00000000
00000000
00000000
FFFFFF80
FFFFFFC0
7FFFFF80
00000000
00000000
00000000
7C000F80
FC001FC0
FC001F80
00000000
00000000
00000000
00000000
FC001F80
FC001FC0
7C000F80
ENDCHAR
STARTCHAR NameMe.302
ENCODING 1086
SWIDTH 500 0
DWIDTH 32 0
BBX 26 29 0 3
BITMAP
0FFFFC00
1FFFFC00
0FFFFC00
00000000
00000000
00000000
70000200
FC001FC0
FC001FC0
30000200
00000000
00000000
00000000
FC001F80
FC001FC0
FC000F80
00000000
00000000
00000000
7C000F80
FC001FC0
FC001F80
00000000
00000000
00000000
00000000
1FFFFC00
1FFFFC00
0FFFF800
ENDCHAR
STARTCHAR NameMe.303
ENCODING 1087
SWIDTH 500 0
DWIDTH 32 0
BBX 26 29 0 3
BITMAP
7FFFE000
FFFFE000
FFFFE000
00000000
00000000
00000000
1C007000
FFC0FC00
FFC0FC00
1C003000
00000000
00000000
00000000
FC00FC00
FC00FC00
FC00FC00
00000000
00000000
00000000
7C007C00
FC00FC00
FC00FC00
00000000
00000000
00000000
00000000
FC00FF80
FC00FFC0
7C007F80
ENDCHAR
STARTCHAR NameMe.304
ENCODING 1088
SWIDTH 500 0
DWIDTH 32 0
BBX 26 35 0 -3
BITMAP
7FFFFC00
FFFFFC00
FFFFFC00
00000000
00000000
00000000
70000200
FC001FC0
FC001FC0
30000200
00000000
00000000
00000000
FC001F80
FC001FC0
FC000F80
00000000
00000000
00000000
5FFFF000
FFFFFC00
FFFFFC00
00000000
00000000
00000000
00000000
FC000000
FC000000
7C000000
00000000
00000000
00000000
FC000000
FC000000
FC000000
ENDCHAR
STARTCHAR NameMe.305
ENCODING 1089
SWIDTH 500 0
DWIDTH 32 0
BBX 26 29 0 3
BITMAP
0FFFFC00
1FFFFC00
0FFFFC00
00000000
00000000
00000000
70000200
FC001FC0
FC001FC0
30000200
00000000
00000000
00000000
FC000000
FC000000
FC000000
00000000
00000000
00000000
7C000F80
FC001FC0
FC001F80
00000000
00000000
00000000
00000000
1FFFFC00
1FFFFC00
0FFFF800
ENDCHAR
STARTCHAR NameMe.306
ENCODING 1090
SWIDTH 500 0
DWIDTH 32 0
BBX 26 29 0 3
BITMAP
7FFFFF80
FFFFFFC0
FFFFFF80
00000000
00000000
00000000
000C0000
003F0000
003F0000
000C0000
00000000
00000000
00000000
003F0000
003F0000
003F0000
00000000
00000000
00000000
003E0000
003F0000
003F0000
00000000
00000000
00000000
00000000
003F0000
003F0000
003E0000
ENDCHAR
STARTCHAR NameMe.307
ENCODING 1091
SWIDTH 500 0
DWIDTH 32 0
BBX 26 35 0 -3
BITMAP
FC000F80
FC001FC0
FC001F80
00000000
00000000
00000000
70000200
FC001FC0
FC001FC0
30000200
00000000
00000000
00000000
FC001F80
FC001FC0
FC000F80
00000000
00000000
00000000
03FFFE00
1FFFFFC0
1FFFFF80
00000000
00000000
00000000
00000000
00001F80
00001FC0
00000F80
00000000
00000000
00000000
7FFFFC00
FFFFFC00
FFFFFC00
ENDCHAR
STARTCHAR NameMe.308
ENCODING 1092
SWIDTH 500 0
DWIDTH 32 0
BBX 26 29 0 3
BITMAP
003F0000
003F0000
003F0000
00000000
00000000
00000000
003FE000
1FFFFC00
1FFFFC00
00FE0000
00000000
00000000
00000000
FC3F1F80
FC3F1FC0
FC3F0F80
00000000
00000000
00000000
07FFF000
1FFFFC00
1FFFFC00
00000000
00000000
00000000
00000000
003F0000
003F0000
003E0000
ENDCHAR
STARTCHAR NameMe.309
ENCODING 1093
SWIDTH 500 0
DWIDTH 32 0
BBX 26 29 0 3
BITMAP
FC000F80
FC001FC0
FC001F80
00000000
00000000
00000000
001E0000
03FFE000
03FFE000
009E0000
00000000
00000000
00000000
003F0000
003F0000
003F0000
00000000
00000000
00000000
01FFC000
03FFE000
01FFE000
00000000
00000000
00000000
00000000
FC001F80
FC001FC0
7C000F80
ENDCHAR
STARTCHAR NameMe.310
ENCODING 1094
SWIDTH 500 0
DWIDTH 32 0
BBX 26 35 0 -3
BITMAP
FC00FC00
FC00FC00
FC00FC00
00000000
00000000
00000000
70007000
FC00FC00
FC00FC00
30003000
00000000
00000000
00000000
FC00FC00
FC00FC00
FC00FC00
00000000
00000000
00000000
7C03FC00
FC07FC00
FC07FC00
00000000
00000000
00000000
00000000
1FFF1F80
1FFF1FC0
0FFE0F80
00000000
00000000
00000000
00000F80
00001FC0
00001F80
ENDCHAR
STARTCHAR NameMe.311
ENCODING 1095
SWIDTH 500 0
DWIDTH 32 0
BBX 26 29 0 3
BITMAP
FC000F80
FC001FC0
FC001F80
00000000
00000000
00000000
70000200
FC001FC0
FC001FC0
30000200
00000000
00000000
00000000
FFFFFF80
FFFFFFC0
7FFFFF80
00000000
00000000
00000000
00000F80
00001FC0
00001F80
00000000
00000000
00000000
00000000
00001F80
00001FC0
00000F80
ENDCHAR
STARTCHAR NameMe.312
ENCODING 1096
SWIDTH 500 0
DWIDTH 32 0
BBX 26 29 0 3
BITMAP
FC3F0F80
FC3F1FC0
FC3F1F80
00000000
00000000
00000000
700C0200
FC3F1FC0
FC3F1FC0
300C0200
00000000
00000000
00000000
FC3F1F80
FC3F1FC0
FC3F0F80
00000000
00000000
00000000
7C3E0F80
FC3F1FC0
FC3F1F80
00000000
00000000
00000000
00000000
FFFFFF80
FFFFFFC0
1FFFFC00
ENDCHAR
STARTCHAR NameMe.313
ENCODING 1097
SWIDTH 500 0
DWIDTH 32 0
BBX 26 35 0 -3
BITMAP
FC3F0F80
FC3F1FC0
FC3F1F80
00000000
00000000
00000000
700C0200
FC3F1FC0
FC3F1FC0
300C0200
00000000
00000000
00000000
FC3F1F80
FC3F1FC0
FC3F0F80
00000000
00000000
00000000
7C3E0F80
FC3F1FC0
FC3F1F80
00000000
00000000
00000000
00000000
FFFFFF80
FFFFFFC0
1FFFFC00
00000000
00000000
00000000
00000F80
00001FC0
00001F80
ENDCHAR
STARTCHAR NameMe.314
ENCODING 1098
SWIDTH 500 0
DWIDTH 32 0
BBX 26 29 0 3
BITMAP
7FF00000
FFF80000
FFF80000
00000000
00000000
00000000
00400000
03F80000
03F80000
00500000
00000000
00000000
00000000
01FFFC00
03FFFC00
01FFFC00
00000000
00000000
00000000
01F00F80
03F81FC0
01F81F80
00000000
00000000
00000000
00000000
03FFFC00
03FFFC00
00FFF800
ENDCHAR
STARTCHAR NameMe.315
ENCODING 1099
SWIDTH 500 0
DWIDTH 32 0
BBX 26 29 0 3
BITMAP
FC000F80
FC001FC0
FC001F80
00000000
00000000
00000000
70000200
FC001FC0
FC001FC0
30000200
00000000
00000000
00000000
FFFF1F80
FFFF1FC0
7FFE0F80
00000000
00000000
00000000
7C03FF80
FC07FFC0
FC07FF80
00000000
00000000
00000000
00000000
FFFF1F80
FFFF1FC0
7FFE0F80
ENDCHAR
STARTCHAR NameMe.316
ENCODING 1100
SWIDTH 500 0
DWIDTH 32 0
BBX 26 29 0 3
BITMAP
FC000000
FC000000
FC000000
00000000
00000000
00000000
70000000
FC000000
FC000000
30000000
00000000
00000000
00000000
FFFFFC00
FFFFFC00
7FFFFC00
00000000
00000000
00000000
7C000F80
FC001FC0
FC001F80
00000000
00000000
00000000
00000000
FFFFFC00
FFFFFC00
7FFFE000
ENDCHAR
STARTCHAR NameMe.317
ENCODING 1101
SWIDTH 500 0
DWIDTH 32 0
BBX 26 29 0 3
BITMAP
0FFFFC00
1FFFFC00
0FFFFC00
00000000
00000000
00000000
70000200
FC001FC0
FC001FC0
30000200
00000000
00000000
00000000
003FFF80
003FFFC0
003FFF80
00000000
00000000
00000000
7C000F80
FC001FC0
FC001F80
00000000
00000000
00000000
00000000
1FFFFC00
1FFFFC00
0FFFF800
ENDCHAR
STARTCHAR NameMe.318
ENCODING 1102
SWIDTH 500 0
DWIDTH 32 0
BBX 26 29 0 3
BITMAP
FC3FFC00
FC3FFC00
FC3FFC00
00000000
00000000
00000000
0F200200
FFF81FC0
FFF81FC0
0F200200
00000000
00000000
00000000
FFF81F80
FFF81FC0
7FF00F80
00000000
00000000
00000000
7FF00F80
FFF81FC0
FFF81F80
00000000
00000000
00000000
00000000
FC3FFC00
FC3FFC00
7C3FF800
ENDCHAR
STARTCHAR NameMe.319
ENCODING 1103
SWIDTH 500 0
DWIDTH 32 0
BBX 26 29 0 3
BITMAP
0FFFFF80
1FFFFFC0
0FFFFF80
00000000
00000000
00000000
70000200
FC001FC0
FC001FC0
30000200
00000000
00000000
00000000
0FFFFF80
1FFFFFC0
0FFFFF80
00000000
00000000
00000000
01F00F80
03F81FC0
01F81F80
00000000
00000000
00000000
00000000
FF801F80
FFC01FC0
7F800F80
ENDCHAR
STARTCHAR NameMe.321
ENCODING 1105
SWIDTH 500 0
DWIDTH 32 0
BBX 26 42 0 3
BITMAP
0F807C00
1FC0FC00
1F80FC00
00000000
00000000
00000000
00000000
00000000
00000000
00000000
00000000
00000000
00000000
0FFFF800
1FFFFC00
0FFFFC00
00000000
00000000
00000000
70000200
FC001FC0
FC001FC0
30000200
00000000
00000000
00000000
FFFFFF80
FFFFFFC0
7FFFFF80
00000000
00000000
00000000
7C000000
FC000000
FC000000
00000000
00000000
00000000
00000000
1FFFFC00
1FFFFC00
07FFF800
ENDCHAR
STARTCHAR .notdef
ENCODING -1
SWIDTH 500 0
DWIDTH 32 0
BBX 17 43 2 0
BITMAP
FFFF80
FFFF80
C00180
C00180
C00180
C00180
C00180
C00180
C00180
C00180
C00180
C00180
C00180
C00180
C00180
C00180
C00180
C00180
C00180
C00180
C00180
C00180
C00180
C00180
C00180
C00180
C00180
C00180
C00180
C00180
C00180
C00180
C00180
C00180
C00180
C00180
C00180
C00180
C00180
C00180
C00180
FFFF80
FFFF80
ENDCHAR
ENDFONT
